<svg xmlns="http://www.w3.org/2000/svg" xmlns:xlink="http://www.w3.org/1999/xlink" version="1.1" id="Layer_1" x="0px" y="0px" width="100%" height="100%" viewBox="0 0 41 41" enable-background="new 0 0 41 41" xml:space="preserve" xmlns:xml="http://www.w3.org/XML/1998/namespace"><g><path fill="#828282" d="M38.254,7.671l-8.068-3.229l-3.229-1.613H26.83c0.082,0.262,0.127,0.533,0.127,0.809c0,2.232-2.893,4.034-6.457,4.034s-6.455-1.802-6.455-4.034c0-0.275,0.04-0.545,0.127-0.809h-0.127l-3.229,1.613L2.745,7.671v9.685l7.111-2.845l-2.27,23.827h25.827l-2.273-23.827l7.113,2.845V7.671L38.254,7.671z M36.641,14.973l-7.354-2.941l2.35,24.693H9.362l2.352-24.693l-7.355,2.941V8.764l7.116-2.848l1.284-0.645c0.982,2.347,4.032,4.013,7.738,4.013c3.704,0,6.757-1.668,7.739-4.013l1.281,0.645l7.119,2.848v6.209H36.641z" /></g></svg>