<svg version="1.0" id="Layer_1" xmlns="http://www.w3.org/2000/svg" xmlns:xlink="http://www.w3.org/1999/xlink" x="0px" y="0px"
	 width="100%" height="100%" xml:space="preserve">
<g>
	<g>
		<path fill="#F1F2F2" d="M31.979,13.621H20.457L17,2.099l-3.454,11.522H2.021l9.217,6.338L7.781,30.901L17,25.144l9.22,5.758
			l-3.458-10.942L31.979,13.621z"/>
	</g>
	<g>
		<path fill="none" stroke="#D1D3D4" stroke-width="1.1356" stroke-miterlimit="10" d="M31.979,13.621H20.457L17,2.099
			l-3.454,11.522H2.021l9.217,6.338L7.781,30.901L17,25.144l9.22,5.758l-3.458-10.942L31.979,13.621z"/>
	</g>
</g>
<g>
	<g>
		<path fill="#333333" d="M17.33,3.196L17,2.098L13.546,13.62H2.021l9.217,6.343L7.781,30.905L17,25.147l0.557,0.344L17.33,3.196z"
			/>
	</g>
	<g>
		<path fill="none" stroke="#333333" stroke-width="1.1356" stroke-miterlimit="10" d="M17.33,3.196L17,2.098L13.546,13.62H2.021
			l9.217,6.343L7.781,30.905L17,25.147l0.557,0.344L17.33,3.196z"/>
	</g>
</g>
</svg>