<svg version="1.0" id="Layer_1" xmlns="http://www.w3.org/2000/svg" xmlns:xlink="http://www.w3.org/1999/xlink" x="0px" y="0px"
	 width="100%" height="100%" viewBox="0 0 100 100" enable-background="new 0 0 100 100" xml:space="preserve">
<g>
	<g>
		<rect x="20.896" y="1.782" fill="none" stroke="#CCCCCC" stroke-miterlimit="10" width="56.605" height="51.986"/>
		<g>
			<g>
				<path fill="#999999" d="M47.802,33.329c0.564,1.119,0.705,2.506,0.423,4.161c-0.179,1.053-0.381,1.777-0.606,2.172
					c-0.536,0.95-1.377,1.674-2.525,2.172c-0.987,0.386-2.021,0.578-3.103,0.578c-1.27,0-2.454-0.263-3.554-0.79
					c-1.091-0.517-1.938-1.227-2.539-2.13l-0.028-0.056v-0.057c0.009-0.338,0.376-0.855,1.1-1.551
					c0.235-0.207,0.479-0.212,0.733-0.014c0.179,0.132,0.461,0.372,0.847,0.719c0.705,0.649,1.27,1.096,1.692,1.34
					c0.714,0.414,1.453,0.597,2.214,0.55c0.79-0.066,1.608-0.541,2.455-1.425c0.809-0.846,1.284-1.678,1.424-2.497
					c0.188-1.138-0.211-2.087-1.199-2.849c-0.733-0.555-1.914-1.081-3.541-1.58c-0.254-0.009-0.583-0.014-0.987-0.014
					c-0.301,0-0.63,0-0.987,0c-0.348,0.009-0.494,0.014-0.437,0.014l-0.113,0.014l-0.057-0.085
					c-0.357-0.498-0.451-0.954-0.282-1.368c0.122-0.319,0.414-0.526,0.875-0.621c1.166-0.131,2.102-0.409,2.807-0.832
					c0.602-0.367,1.255-0.987,1.96-1.862c0.545-1.542,0.555-2.685,0.028-3.428c-1.138-1.27-2.501-1.692-4.09-1.27
					c-0.461,0.132-1.016,0.362-1.665,0.691c-0.583,0.301-0.936,0.46-1.058,0.479c-0.282-0.508-0.472-0.929-0.571-1.263
					c-0.099-0.333-0.082-0.618,0.05-0.853c0.235-0.423,0.926-0.743,2.073-0.959l0.183-0.028c1.599-0.292,3.263-0.132,4.994,0.479
					l0.07,0.028c0.968,0.809,1.66,1.777,2.073,2.905c0.508,1.364,0.494,2.718-0.042,4.062l-0.071,0.127
					c0.019-0.028,0.019-0.019,0,0.028c-0.451,1.128-1.213,1.946-2.285,2.454C45.889,31.133,47.134,31.984,47.802,33.329z"/>
				<path fill="#999999" d="M60.977,39.972c-0.631,0.902-1.435,1.613-2.412,2.129c0.057,0-0.353,0.118-1.228,0.353
					c-0.771,0.197-1.358,0.291-1.763,0.282c-0.489-0.009-0.818-0.042-0.988-0.099c-0.168-0.056-0.512-0.263-1.028-0.621
					c-1.6-2.435-2.516-4.988-2.751-7.659c-0.123-1.326-0.028-3.207,0.282-5.642c0.799-2.915,1.622-5.002,2.469-6.262
					c0.854-1.279,1.828-1.862,2.919-1.75c1.749-0.056,3.08,0.546,3.992,1.806c0.056,0.094,0.479,1.025,1.27,2.793
					c0.874,2.52,1.123,5.52,0.747,8.999c-0.188,1.749-0.465,3.244-0.832,4.485C61.521,39.125,61.296,39.521,60.977,39.972z
					 M60.285,27.574c0,0-0.07-0.259-0.212-0.776c-0.179-0.63-0.404-1.222-0.677-1.777c-0.837-1.711-1.904-2.6-3.202-2.666
					l-0.127,0.042c-0.084,0.028-0.164,0.066-0.239,0.113c-0.273,0.179-0.536,0.484-0.79,0.917c-0.809,1.392-1.448,3.94-1.918,7.645
					c-0.32,2.407-0.015,4.659,0.917,6.756l0.479,1.213c0.282,0.658,0.865,1.062,1.75,1.213c0.846,0.132,1.612-0.004,2.299-0.409
					c1.241-2.624,1.904-5.402,1.988-8.336c0.057-1.909-0.047-3.192-0.31-3.851C60.271,27.602,60.285,27.574,60.285,27.574z"/>
			</g>
		</g>
		<rect x="20.443" y="1.301" fill="#CCCCCC" width="57.762" height="12.613"/>
	</g>
	<g>
		<g>
			<path fill="#333333" d="M30.797,75.844c0.316,0.627,0.395,1.403,0.237,2.33c-0.1,0.59-0.213,0.995-0.339,1.217
				c-0.3,0.531-0.771,0.938-1.414,1.216c-0.553,0.217-1.132,0.324-1.738,0.324c-0.711,0-1.375-0.147-1.99-0.442
				c-0.611-0.289-1.085-0.688-1.422-1.192l-0.016-0.032v-0.031c0.005-0.189,0.211-0.479,0.616-0.869
				c0.132-0.115,0.269-0.118,0.411-0.008c0.1,0.074,0.258,0.208,0.474,0.403c0.395,0.363,0.711,0.613,0.948,0.75
				c0.4,0.231,0.813,0.335,1.24,0.309c0.442-0.037,0.9-0.303,1.375-0.798c0.453-0.475,0.719-0.94,0.798-1.398
				c0.105-0.637-0.119-1.169-0.671-1.596c-0.411-0.311-1.072-0.605-1.983-0.885c-0.142-0.005-0.327-0.008-0.553-0.008
				c-0.168,0-0.353,0-0.553,0c-0.195,0.006-0.276,0.008-0.245,0.008l-0.063,0.008l-0.032-0.047c-0.2-0.279-0.253-0.534-0.158-0.767
				c0.068-0.179,0.232-0.295,0.49-0.348c0.653-0.073,1.177-0.229,1.572-0.466c0.337-0.205,0.703-0.553,1.098-1.043
				c0.305-0.863,0.311-1.503,0.016-1.919c-0.637-0.711-1.4-0.948-2.291-0.711c-0.258,0.074-0.569,0.203-0.932,0.387
				c-0.327,0.169-0.524,0.259-0.592,0.269c-0.158-0.284-0.265-0.52-0.32-0.707c-0.055-0.187-0.046-0.346,0.027-0.478
				c0.132-0.237,0.519-0.416,1.161-0.537l0.103-0.016c0.895-0.163,1.827-0.074,2.796,0.269l0.04,0.016
				c0.542,0.453,0.93,0.995,1.161,1.627c0.285,0.764,0.276,1.522-0.023,2.275l-0.04,0.07c0.01-0.016,0.01-0.01,0,0.017
				c-0.253,0.632-0.679,1.09-1.28,1.374C29.725,74.614,30.423,75.091,30.797,75.844z"/>
			<path fill="#333333" d="M38.174,79.564c-0.353,0.505-0.803,0.903-1.351,1.192c0.032,0-0.197,0.066-0.687,0.197
				c-0.432,0.111-0.761,0.163-0.988,0.158c-0.273-0.005-0.458-0.023-0.553-0.056c-0.095-0.031-0.287-0.146-0.577-0.347
				c-0.895-1.364-1.409-2.794-1.54-4.289c-0.069-0.743-0.016-1.796,0.158-3.16c0.448-1.632,0.909-2.801,1.382-3.507
				c0.479-0.716,1.024-1.043,1.635-0.979c0.979-0.031,1.725,0.306,2.235,1.011c0.032,0.053,0.269,0.574,0.711,1.564
				c0.49,1.411,0.629,3.091,0.418,5.039c-0.105,0.979-0.261,1.816-0.466,2.512C38.48,79.09,38.354,79.312,38.174,79.564z
				 M37.788,72.621c0,0-0.04-0.145-0.119-0.435c-0.1-0.353-0.227-0.685-0.379-0.995c-0.469-0.958-1.066-1.456-1.793-1.493
				l-0.071,0.024c-0.047,0.016-0.092,0.036-0.134,0.062c-0.153,0.101-0.3,0.271-0.442,0.514c-0.453,0.779-0.811,2.206-1.074,4.281
				c-0.179,1.348-0.008,2.609,0.513,3.783l0.269,0.68c0.158,0.368,0.484,0.595,0.979,0.679c0.474,0.074,0.903-0.002,1.288-0.229
				c0.695-1.47,1.066-3.025,1.114-4.668c0.032-1.069-0.026-1.788-0.174-2.157C37.779,72.637,37.788,72.621,37.788,72.621z"/>
			<path fill="#333333" d="M44.77,80.836c0-0.005-0.052-1.837-0.158-5.494s-0.116-5.856-0.032-6.599
				c1.975-0.143,3.47,0.25,4.487,1.177c0.784,0.716,1.261,1.809,1.43,3.277c0.052,1.88-0.45,3.613-1.509,5.198
				c-0.985,1.469-2.069,2.316-3.254,2.543C45.133,80.986,44.812,80.951,44.77,80.836z M49.225,75.054
				c0.4-1.953,0.174-3.383-0.679-4.289c-0.853-0.605-1.735-0.837-2.646-0.695c-0.105,5.529-0.084,8.726,0.063,9.59
				c0.853-0.475,1.538-1.043,2.054-1.706C48.532,77.263,48.935,76.297,49.225,75.054z"/>
			<path fill="#333333" d="M55.561,69.817l0.545,2.512l0.33,1.477l0.926,4.281l0.576,2.836l-1.146-0.016l-0.678-3.357l-2.757,0.11
				l-0.695,3.239l-0.979,0.008l0.387-2.354l2.046-9.85l1.231,0.15L55.561,69.817z M55.773,76.35l-1.066-5.197l-0.64,2.812
				l-0.521,2.346L55.773,76.35z"/>
			<path fill="#333333" d="M61.586,80.97c-0.227-0.016-0.65-0.021-1.271-0.016l-0.063-5.806l-0.355-0.798l-2.693-5.315
				c0.279-0.121,0.624-0.234,1.035-0.34l2.796,4.85l2.346-4.818l1.288,0.008c-0.559,1.327-1.564,3.41-3.018,6.248L61.586,80.97z"/>
			<path fill="#333333" d="M66.665,73.363c-0.463-0.452-0.728-0.82-0.794-1.102c-0.065-0.281-0.077-0.555-0.035-0.817
				c0.031-0.227,0.063-0.393,0.095-0.498c0.174-0.531,0.481-1.019,0.924-1.461c0.717-0.5,1.364-0.748,1.943-0.742
				c0.948-0.021,1.967,0.081,3.057,0.308c0,0.195-0.071,0.442-0.213,0.742c-0.059,0.048-0.737,0.04-2.038-0.023
				c-0.463,0.005-0.882,0.082-1.256,0.229c-0.395,0.152-0.724,0.418-0.987,0.798c-0.353,0.511-0.219,1.079,0.402,1.706
				c0.469,0.357,1.106,0.685,1.912,0.979c1.138,0.489,1.951,1.155,2.44,1.998c0.227,0.447,0.362,0.882,0.407,1.304
				c0.045,0.421,0.027,0.853-0.052,1.295c-0.147,0.885-0.461,1.588-0.939,2.109c-0.501,0.637-1.662,0.913-3.483,0.829
				c-0.764-0.031-1.47-0.095-2.117-0.189c0.042-0.506,0.081-0.846,0.118-1.02c0.343,0,0.683,0.006,1.02,0.017
				c0.863,0.084,1.703,0.019,2.52-0.198c0.816-0.216,1.335-0.937,1.556-2.164c0-0.526-0.129-0.984-0.387-1.374
				c-0.279-0.601-1.127-1.193-2.543-1.777C67.692,74.096,67.176,73.779,66.665,73.363z"/>
			<path fill="#333333" d="M27.637,87.117l-2.338,0.056l0.008,5.529l-0.047,5.561c-0.463,0.026-0.853,0.031-1.169,0.016
				c-0.037-0.8-0.071-2.644-0.103-5.529c-0.031-2.886-0.029-4.747,0.008-5.584h-0.498c-0.495,0.016-1.077,0.019-1.746,0.008
				l-0.04-1.13c0.5,0.016,1.198,0.021,2.093,0.016c0.896-0.005,2.183-0.008,3.863-0.008L27.637,87.117z"/>
			<path fill="#333333" d="M35.69,95.857c-0.15,0.445-0.374,0.855-0.671,1.232c-0.297,0.376-0.556,0.641-0.774,0.794
				c-0.219,0.152-0.594,0.308-1.125,0.466c-0.611,0.073-1.034,0.094-1.268,0.06s-0.418-0.087-0.553-0.158s-0.333-0.186-0.596-0.344
				c-1.064-1.269-1.669-2.651-1.817-4.146c-0.074-0.743-0.013-1.799,0.182-3.168c0.4-1.675,0.85-2.777,1.351-3.31
				c0.637-0.853,1.298-1.267,1.983-1.24c0.869-0.005,1.544,0.226,2.026,0.691s0.883,1.112,1.205,1.939
				c0.542,1.416,0.695,3.102,0.458,5.055C35.973,94.703,35.84,95.412,35.69,95.857z M34.73,89.897
				c-0.169-0.526-0.337-0.944-0.506-1.256c-0.432-0.969-1.09-1.472-1.975-1.509c-0.005,0.006-0.034,0.014-0.087,0.024
				c-0.063,0.016-0.121,0.036-0.174,0.062c-0.2,0.095-0.39,0.264-0.568,0.506c-0.774,0.964-1.23,2.443-1.367,4.439
				c-0.147,1.237,0.04,2.398,0.561,3.483c0.316,0.843,0.876,1.369,1.682,1.579c0.858-0.042,1.5-0.462,1.923-1.26
				s0.662-2.021,0.715-3.669C34.967,91.225,34.899,90.425,34.73,89.897z"/>
			<path fill="#333333" d="M42.455,90.695c-0.463-0.452-0.728-0.82-0.793-1.102c-0.066-0.281-0.078-0.555-0.036-0.817
				c0.032-0.227,0.063-0.393,0.095-0.498c0.174-0.531,0.482-1.019,0.924-1.461c0.716-0.5,1.364-0.748,1.943-0.742
				c0.948-0.021,1.967,0.081,3.057,0.308c0,0.195-0.071,0.442-0.213,0.742c-0.058,0.048-0.737,0.04-2.038-0.023
				c-0.463,0.005-0.882,0.082-1.256,0.229c-0.395,0.152-0.724,0.418-0.987,0.798c-0.353,0.511-0.219,1.079,0.403,1.706
				c0.469,0.357,1.106,0.685,1.912,0.979c1.137,0.489,1.951,1.155,2.44,1.998c0.227,0.447,0.362,0.882,0.407,1.304
				c0.044,0.421,0.027,0.853-0.052,1.295c-0.147,0.885-0.46,1.588-0.94,2.109c-0.5,0.637-1.661,0.913-3.483,0.829
				c-0.764-0.031-1.469-0.095-2.117-0.189c0.042-0.506,0.082-0.846,0.119-1.02c0.342,0,0.682,0.006,1.019,0.017
				c0.864,0.084,1.704,0.019,2.52-0.198c0.816-0.216,1.335-0.937,1.556-2.164c0-0.526-0.129-0.984-0.387-1.374
				c-0.279-0.601-1.127-1.193-2.543-1.777C43.482,91.428,42.966,91.111,42.455,90.695z"/>
			<path fill="#333333" d="M54.611,87.117l-2.337,0.056l0.008,5.529l-0.048,5.561c-0.463,0.026-0.853,0.031-1.169,0.016
				c-0.037-0.8-0.071-2.644-0.103-5.529c-0.031-2.886-0.029-4.747,0.008-5.584h-0.498c-0.495,0.016-1.077,0.019-1.746,0.008
				l-0.04-1.13c0.5,0.016,1.198,0.021,2.093,0.016c0.896-0.005,2.183-0.008,3.863-0.008L54.611,87.117z"/>
			<path fill="#333333" d="M58.521,87.149l0.545,2.512l0.332,1.477l0.924,4.281l0.576,2.836l-1.145-0.016l-0.68-3.357l-2.756,0.11
				l-0.695,3.239l-0.98,0.008l0.388-2.354l2.046-9.85l1.232,0.15L58.521,87.149z M58.734,93.682l-1.066-5.197l-0.639,2.812
				l-0.521,2.346L58.734,93.682z"/>
			<path fill="#333333" d="M64.319,92.125c-0.021,0-0.147,0.016-0.379,0.048c-0.185,0.026-0.366,0.045-0.545,0.055
				c0,0.143-0.037,1.72-0.11,4.731l-0.056,1.146c-0.016,0.011-0.038,0.04-0.067,0.087c-0.029,0.048-0.145,0.075-0.348,0.083
				c-0.202,0.008-0.433-0.004-0.69-0.035c-0.063-2.522-0.1-5.171-0.107-7.946s0.018-4.191,0.075-4.25l1.098,0.008l0.079,0.174
				l1.619-0.182c1.375-0.121,2.249,0.271,2.623,1.177c0.152,0.363,0.202,0.767,0.15,1.209c-0.048,0.421-0.19,0.863-0.427,1.327
				c-0.495,0.832-1.056,1.467-1.683,1.903l2.378,6.43l-1.091,0.189L64.319,92.125z M63.285,91.201
				c0.494,0.031,1.019-0.129,1.571-0.481c0.742-0.469,1.274-0.985,1.596-1.549c0.289-0.516,0.353-0.974,0.189-1.374
				c-0.079-0.242-0.408-0.397-0.987-0.466c-0.674-0.105-1.467-0.019-2.378,0.261L63.285,91.201z"/>
			<path fill="#333333" d="M74.96,87.117l-2.339,0.056l0.008,5.529l-0.047,5.561c-0.464,0.026-0.854,0.031-1.169,0.016
				c-0.037-0.8-0.071-2.644-0.103-5.529c-0.032-2.886-0.029-4.747,0.008-5.584H70.82c-0.495,0.016-1.077,0.019-1.745,0.008
				l-0.04-1.13c0.5,0.016,1.198,0.021,2.094,0.016c0.895-0.005,2.183-0.008,3.862-0.008L74.96,87.117z"/>
		</g>
	</g>
</g>
</svg>