<svg version="1.0" id="Layer_1" xmlns="http://www.w3.org/2000/svg" xmlns:xlink="http://www.w3.org/1999/xlink" x="0px" y="0px"
	 width="100%" height="100%" viewBox="0 0 100 100" enable-background="new 0 0 100 100" xml:space="preserve">
<g>
	<path fill="#CCCCCC" d="M99,20.6C99,14.416,93.986,9.4,87.801,9.4h-75.6C6.016,9.4,1,14.416,1,20.6V79.4
		C1,85.586,6.016,90.6,12.201,90.6h75.6C93.986,90.6,99,85.586,99,79.4V20.6z"/>
	<path fill="#FFFFFF" d="M96.201,79.389c0,4.646-3.766,8.412-8.412,8.412H12.211c-4.645,0-8.41-3.766-8.41-8.412V20.609
		c0-4.645,3.766-8.408,8.41-8.408h75.578c4.646,0,8.412,3.764,8.412,8.408V79.389z"/>
	<linearGradient id="SVGID_1_" gradientUnits="userSpaceOnUse" x1="50.0005" y1="12.2012" x2="50.0005" y2="87.8013">
		<stop  offset="0" style="stop-color:#FFFFFF;stop-opacity:0"/>
		<stop  offset="0.9884" style="stop-color:#EFEEEE"/>
	</linearGradient>
	<path fill="url(#SVGID_1_)" d="M96.201,79.389c0,4.646-3.766,8.412-8.412,8.412H12.211c-4.645,0-8.41-3.766-8.41-8.412V20.609
		c0-4.645,3.766-8.408,8.41-8.408h75.578c4.646,0,8.412,3.764,8.412,8.408V79.389z"/>
</g>
<g>
	<path fill-rule="evenodd" clip-rule="evenodd" fill="#676767" d="M48.636,50.002h2.734v-9.559h9.555v-2.732H51.37v-9.557h-2.734
		v9.557h-9.555v2.732h9.555V50.002z M69.116,19.963H30.884c-1.504,0-2.729,1.225-2.729,2.73v57.344l21.848-21.844l21.842,21.844
		V22.693C71.845,21.188,70.626,19.963,69.116,19.963z M69.116,73.447L50.003,54.33L30.884,73.447V22.693h38.232V73.447z"/>
</g>
</svg>