<svg xmlns="http://www.w3.org/2000/svg" xmlns:xlink="http://www.w3.org/1999/xlink" version="1.1" id="Layer_1" x="0px" y="0px" width="100%" height="100%" viewBox="0 0 41 41" enable-background="new 0 0 41 41" xml:space="preserve" xmlns:xml="http://www.w3.org/XML/1998/namespace"><g><path fill="#828282" d="M30.479,2.287c-4.994,0-7.498,2.158-9.979,4.991c-2.481-2.833-4.993-4.991-9.979-4.991c-4.991,0-9.979,3.326-9.979,13.308c0,4.989,4.994,14.967,19.96,23.286c14.969-8.318,19.959-18.297,19.959-23.286C40.459,5.613,35.469,2.287,30.479,2.287z M20.5,36.969C6.054,28.688,2.205,19.404,2.205,15.595c0-10.133,5.212-11.644,8.318-11.644c4.085,0,6.218,1.556,8.729,4.422l1.253,1.434l1.25-1.434c2.513-2.865,4.646-4.422,8.732-4.422c3.105,0,8.316,1.511,8.316,11.644C38.795,19.403,34.945,28.688,20.5,36.969z" /></g></svg>