<svg version="1.0" id="Layer_1" xmlns="http://www.w3.org/2000/svg" xmlns:xlink="http://www.w3.org/1999/xlink" x="0px" y="0px"
	 width="100%" height="100%" viewBox="0 0 100 100" enable-background="new 0 0 100 100" xml:space="preserve">
<g>
	<g>
		<g>
			<polygon fill="#EE272B" points="81.652,89.027 50.082,57.461 18.516,89.027 18.516,5.215 81.652,5.215 			"/>
			<linearGradient id="SVGID_1_" gradientUnits="userSpaceOnUse" x1="50.0845" y1="89.0273" x2="50.0845" y2="5.2153">
				<stop  offset="0" style="stop-color:#010101;stop-opacity:0.55"/>
				<stop  offset="0.9368" style="stop-color:#010101;stop-opacity:0.25"/>
			</linearGradient>
			<polygon fill="url(#SVGID_1_)" points="81.652,89.027 50.082,57.461 18.516,89.027 18.516,5.215 81.652,5.215 			"/>
		</g>
	</g>
	<g id="icon_278_9_">
		<g id="icon_278_11_">
			<g>
				<g>
					<path fill="#EE272B" d="M81.23,0.93H18.77c-2.457,0-4.457,1.996-4.457,4.461v93.68l35.691-35.688L85.688,99.07V5.391
						C85.688,2.926,83.695,0.93,81.23,0.93z M81.23,88.297L50.004,57.074L18.77,88.297V5.391H81.23V88.297z M67.844,29.922H32.156
						v4.465h35.688V29.922z"/>
				</g>
				<g>
					
						<linearGradient id="SVGID_2_" gradientUnits="userSpaceOnUse" x1="-515.2954" y1="-217.5967" x2="-515.2954" y2="-240.2105" gradientTransform="matrix(4.34 0 0 4.34 2286.3789 1043.4414)">
						<stop  offset="0" style="stop-color:#010101;stop-opacity:0.55"/>
						<stop  offset="0.9368" style="stop-color:#010101;stop-opacity:0.25"/>
					</linearGradient>
					<path fill="url(#SVGID_2_)" d="M81.23,0.93H18.77c-2.457,0-4.457,1.996-4.457,4.461v93.68l35.691-35.688L85.688,99.07V5.391
						C85.688,2.926,83.695,0.93,81.23,0.93z M81.23,88.297L50.004,57.074L18.77,88.297V5.391H81.23V88.297z M67.844,29.922H32.156
						v4.465h35.688V29.922z"/>
				</g>
				<g>
					<path fill-rule="evenodd" clip-rule="evenodd" fill="#FFFFFF" d="M81.23,0.93H18.77c-2.457,0-4.457,1.996-4.457,4.461v93.68
						l35.691-35.688L85.688,99.07V5.391C85.688,2.926,83.695,0.93,81.23,0.93z M81.23,88.297L50.004,57.074L18.77,88.297V5.391
						H81.23V88.297z M67.844,29.922H32.156v4.465h35.688V29.922z"/>
				</g>
			</g>
		</g>
	</g>
</g>
</svg>