<svg xmlns="http://www.w3.org/2000/svg" xmlns:xlink="http://www.w3.org/1999/xlink" version="1.1" id="Layer_1" x="0px" y="0px" width="100%" height="100%" viewBox="0 0 41 41" enable-background="new 0 0 41 41" xml:space="preserve" xmlns:xml="http://www.w3.org/XML/1998/namespace"><g><path fill="#828282" d="M35.338,1.839L15.033,8.869v0.782v23.041c-0.99-0.719-2.372-1.17-3.904-1.17c-3.021-0.006-5.468,1.744-5.468,3.902c0,2.154,2.447,3.904,5.468,3.904c3.02,0,5.464-1.75,5.464-3.904V15.638l17.179-5.728v18.093c-0.99-0.723-2.373-1.172-3.906-1.172c-3.02,0-5.462,1.748-5.462,3.906c0,2.154,2.448,3.904,5.462,3.904c3.023,0,5.467-1.75,5.467-3.904V3.403L35.338,1.839L35.338,1.839z M11.129,37.766c-2.158,0-3.906-1.047-3.906-2.344s1.748-2.344,3.906-2.344c2.155,0,3.904,1.047,3.904,2.344C15.033,36.717,13.284,37.766,11.129,37.766z M29.871,33.078c-2.156,0-3.904-1.049-3.904-2.346s1.748-2.346,3.904-2.346s3.906,1.045,3.906,2.346C33.777,32.029,32.027,33.078,29.871,33.078zM33.777,7.848l-17.183,5.947v-3.623l17.183-5.73V7.848z" /></g></svg>