<svg version="1.0" id="Layer_1" xmlns="http://www.w3.org/2000/svg" xmlns:xlink="http://www.w3.org/1999/xlink" x="0px" y="0px"
	 width="100%" height="100%" viewBox="0 0 100 100" enable-background="new 0 0 100 100" xml:space="preserve">
<g>
	<g>
		<g>
			<path fill="#EE272B" d="M97.6,23.399c0-4.639-3.76-8.399-8.398-8.399H10.8c-4.639,0-8.4,3.761-8.4,8.399v53.2
				c0,4.639,3.762,8.4,8.4,8.4h78.401c4.639,0,8.398-3.762,8.398-8.4V23.399z"/>
			<linearGradient id="SVGID_1_" gradientUnits="userSpaceOnUse" x1="50" y1="85" x2="50" y2="15.0005">
				<stop  offset="0" style="stop-color:#010101;stop-opacity:0.45"/>
				<stop  offset="0.9368" style="stop-color:#010101;stop-opacity:0.25"/>
			</linearGradient>
			<path fill="url(#SVGID_1_)" d="M97.6,23.399c0-4.639-3.76-8.399-8.398-8.399H10.8c-4.639,0-8.4,3.761-8.4,8.399v53.2
				c0,4.639,3.762,8.4,8.4,8.4h78.401c4.639,0,8.398-3.762,8.398-8.4V23.399z"/>
		</g>
	</g>
	<g>
		<polygon fill="#676767" points="37.4,33.905 37.4,63.98 68.182,48.942 		"/>
		<polygon fill="#FFFFFF" points="37.4,33.905 37.4,63.98 68.182,48.942 		"/>
	</g>
</g>
</svg>