<svg xmlns="http://www.w3.org/2000/svg" xmlns:xlink="http://www.w3.org/1999/xlink" version="1.1" id="Layer_1" x="0px" y="0px" width="100%" height="100%" viewBox="0 0 41 41" enable-background="new 0 0 41 41" xml:space="preserve" xmlns:xml="http://www.w3.org/XML/1998/namespace"><g><path fill="#BF1622" d="M2.411,3.283v34.602h36.177V3.283H2.411z M7.127,36.318H3.979v-3.146h3.145v3.145L7.127,36.318L7.127,36.318z M7.127,31.596H3.979v-3.145h3.145v3.145H7.127z M7.127,26.877H3.979v-3.145h3.145v3.145H7.127z M7.127,22.156H3.979V19.01h3.145v3.146H7.127z M7.127,17.437H3.979V14.29h3.145v3.146L7.127,17.437L7.127,17.437z M7.127,12.715H3.979V9.57h3.145v3.146H7.127z M7.127,7.995H3.979V4.849h3.145v3.146L7.127,7.995L7.127,7.995z M32.299,36.318H8.697V21.369h23.604v14.949H32.299zM32.299,19.798H8.697V4.849h23.604v14.949H32.299z M37.02,36.318h-3.145v-3.146h3.145V36.318z M37.02,31.596h-3.145v-3.145h3.145V31.596z M37.02,26.877h-3.145v-3.145h3.145V26.877z M37.02,22.156h-3.145V19.01h3.145V22.156z M37.02,17.437h-3.145V14.29h3.145V17.437z M37.02,12.715h-3.145V9.57h3.145V12.715z M37.02,7.995h-3.145V4.849h3.145V7.995z" /></g></svg>