<svg version="1.0" id="Layer_1" xmlns="http://www.w3.org/2000/svg" xmlns:xlink="http://www.w3.org/1999/xlink" x="0px" y="0px"
	 width="100%" height="100%" xml:space="preserve">
<g>
	<g>
		<path fill-rule="evenodd" clip-rule="evenodd" fill="#DE2B26" d="M236.9,6.6c-2,2.5-5.4,0.3-7.4,3.1c4-0.8,7.5-1.7,11.1-2.2
			c3.5-0.6,6.6-1.4,8,3.8c1.8,6.3,3.6,6.5,9.6,3.1c1.4-0.8,2.7-0.9,4.2-0.5c0.8,0.2,1.7,0.3,1.8,1.3c0.2,0.9-0.5,1.6-1.3,1.9
			c-2.3,0.9-4.2,2.4-5.9,4.1c-1.6,1.6-3.8,2.8-1.8,6.1c0.7,1.1,1.3,6.5-3.9,6.3c-2.5-0.1-3.2,1.1-2,3.4c0.5,0.9,0.6,1.9-0.5,2.5
			c-0.8,0.4-1.6,0.2-2.1-0.5c-0.7-1-1.4-3-2.7-1.7c-1.7,1.7,1.7,1.7,1.6,3.6c-1.7,0.6-3.6,1.8-5.5,1.8c-5.9,0.1-10.4,4.8-16.3,4.5
			c-3.5-0.2-5.3,4-5.6,5.4c-1.6,7.2-6.3,3.9-9,2.6c-4.7-2.3-8.5-5.8-9.5-11.9c-0.5-3-3.2-5.2,2.2-5.7c-2.1-2.9-3.2,0.2-5.1,0.2
			c-1.3-2.1-0.2-5.6-3.7-7c-4.9-2-10.5-3.4-14.9-1.9c-4.5,1.6-4.7-3.9-8.1-2.3c4.6-1.7,8.1-4.1,11.6-7.3c4.1-3.7,9.6-6.8,16-4.8
			c2.9,0.9,5.9,1.6,6.5-3c0-0.4,0.6-1.1,0.7-1.1c5.9,1.8,9.1-5,14.8-4.6C225.3,5.8,231,4,236.9,6.6z"/>
		<path fill-rule="evenodd" clip-rule="evenodd" fill="#DE2B26" d="M531.2,222.7c0.7-5.5-3.7-6.1-6.1-6.3c-4.2-0.3-8.7,0-12.5,3
			c-3.7,2.9-8.5,3.2-12.9,4.2c-1.5,0.3-3.8-1.9-2.7-2.9c4.1-3.6,0.3-6.2-0.9-8.6c-4.9-9.6-3.2-13.6,7.4-15.6c5.1-1,7-5.8,10.7-8.5
			c1.7-1.2,2.4-3.6,4.9-1.4c1.3,1.1,2.3,0.8,3-0.7c2.5-5.2,7.2-2.9,11.1-3.1c1.2-0.1,1.5,1,1.1,2.1c-0.5,1.4-1.4,2.8,0.4,3.8
			c2.1,1.2,4.2,3.3,6.3,3.2c2.6-0.1,2.9-3.2,2.6-5.3c-0.3-2-0.6-3.8,0.7-6c2,4.9,6,8,7.7,13c1.1,3.2,5.1,5.2,7.4,8.3
			c4,5.5,4.9,12.9,1.2,18.5c-2,3.1-2.4,7.2-7.1,8.6c-6.5,2-9.7,1.3-13.5-4.6C537.4,220.1,535.2,219.5,531.2,222.7z"/>
		<path fill-rule="evenodd" clip-rule="evenodd" fill="#DE2B26" d="M558.5,180c-3.7-0.2-5.6-1.2-6.6-3c-2-3.3-3.7-3-5.9-0.3
			c-1.4,1.7-8.1,0.1-7.8-1.9c0.6-4.1-2.2-4.9-4.6-5c-4.4-0.3-5.8-4-8.4-6.4c-0.2-0.1-0.2-0.8-0.1-0.8c0.5-0.3,1.3-0.7,1.7-0.5
			c5.9,3.2,13.1,0.8,18.9,4.7C550.7,170.1,554.4,174.4,558.5,180z"/>
		<path fill-rule="evenodd" clip-rule="evenodd" fill="#DE2B26" d="M500.7,148.8c0.9,5.7,3.3,9.9-0.6,15c-1.8,2.4-2,4.5-5.8,4
			c-4-0.5-6.6-2.2-7.6-6.2c-0.4-1.7-0.4-2.6,2-3.7C492.8,156.1,497,153.7,500.7,148.8z"/>
		<path fill-rule="evenodd" clip-rule="evenodd" fill="#DE2B26" d="M384.3,188c-1.9,5.4-3.8,11-5.8,16.5c-0.6,1.5-2.2,1.8-3.7,1.5
			c-1.6-0.3-1.5-1.7-2-2.9c-1.6-3.8,1.2-7.5-0.3-11.3c-0.5-1.3,1.2-2,2.5-2.4c1.9-0.6,3.2-2,4.4-3.5c0.8-1,1-3.2,2.9-2.5
			C384.2,184.1,383.7,186.2,384.3,188z"/>
		<path fill-rule="evenodd" clip-rule="evenodd" fill="#DE2B26" d="M550.7,85.8c-0.9,1.8-2.8,1.3-4.3,1.6c-2.7,0.5-5.4,0.1-3.4,4.7
			c1.5,3.6-4.3,9-9.9,10.8c-2.7,0.8-6,0.2-7.9,3.2c-0.6,1-1.8,0.3-2.4-0.6c-0.6-0.9-1.6-2.3-0.5-3c2-1.2,3.4-3.4,6.1-3.5
			c8.8-0.2,10.8-2.1,11.7-10.5C540.7,83.3,544.7,82.3,550.7,85.8z"/>
		<path fill-rule="evenodd" clip-rule="evenodd" fill="#DE2B26" d="M462.5,152.4c2.9-0.2,4.5,1.2,6,2.5c3.1,2.5,6.3,5.1,9.3,7.7
			c2.1,1.8,4.6,2.9,3,6.9c-1.2,2.9,2.5,3,4.3,3.9c1.9,0.9,3.8,0,5.7,0.4c1.7,0.3,3.6,0,4.4,2.4c-5.3-1.2-11.1,0.3-15.9-3.9
			c-4.3-3.7-8.5-7.1-10.5-12.8C468,156.8,465,155,462.5,152.4z"/>
		<path fill-rule="evenodd" clip-rule="evenodd" fill="#DE2B26" d="M296.5,69.3c-2.7,3.6-6.9,2.1-9.7,1.4c-4.1-1-1.3-3.6,0.8-5.4
			c-1.3-0.6-2.3-1.1-3.3-1.6c-1.7-1-3.8-2.4-3.1-4.3c0.5-1.2,3.1-2,4.8-2.2c1.7-0.2,3.5,0.6,3.6,3c0.2,2.7,2.2,4.2,4.1,5.6
			c1.3,1,2.6,1.9,2.7,3.7C296.4,69.5,296.5,69.3,296.5,69.3z"/>
		<path fill-rule="evenodd" clip-rule="evenodd" fill="#DE2B26" d="M416.3,26.5c-1.9,3.4-3.8,4.2-6.5,3.9c-3.5-0.3-7.3-0.6-10.5,1.1
			c-1.9,1-6.2,1.1-3.6,5.5c0.4,0.7-0.4,1.6-1.2,1.7c-0.8,0.2-1.7,0.3-2.4,0c-1.9-1-5.4-0.5-5.7-2.7c-0.3-2.2,3.1-2.2,4.7-3.4
			c5.6-3.8,11.7-5,18.4-4.6C411.4,28,413.3,27.2,416.3,26.5z"/>
		<path fill-rule="evenodd" clip-rule="evenodd" fill="#DE2B26" d="M255.7,45.9c3.2,2,6.9,0.2,10.5,0.3c1,0,2.6,0.1,2.6,1.6
			c0,1-1.3,1.1-2.1,1.6c-3.9,2.4-7.8,1.8-11.7,0c-1.1-0.5-1.8-1.4-1.5-2.6C253.6,45.9,254.5,45.7,255.7,45.9z"/>
		<path fill-rule="evenodd" clip-rule="evenodd" fill="#DE2B26" d="M590.3,242.7c-0.9-0.2-2.3,0.2-2.8-1.2c-0.5-1.4,0.5-2.1,1.5-2.7
			c2.8-1.6,5.5-3.3,7.8-5.5c0.7-0.7,1.7-1,2.6-0.2c0.7,0.6,0.7,1.3,0.5,2.2C599.4,236.9,592,242.7,590.3,242.7z"/>
		<path fill-rule="evenodd" clip-rule="evenodd" fill="#DE2B26" d="M468,144.4c5.5,3.7,8.3,8.9,10.5,14.6
			C474.1,158.6,469.2,152,468,144.4z"/>
		<path fill-rule="evenodd" clip-rule="evenodd" fill="#DE2B26" d="M512.1,137.4c-2.9,0-4,2.8-6.6,4.1c1.8-2.3,2.5-4.4-0.3-6.3
			c-1-0.7-1-2.2,0.3-2.8c1.5-0.7,2.1-3.5,3.5-2.7c3.3,1.9-0.9,3.2-0.9,5.2C508.5,136.9,511.6,134.9,512.1,137.4z"/>
		<path fill-rule="evenodd" clip-rule="evenodd" fill="#DE2B26" d="M282.9,65.9c-0.5,2.9-2.9,3.6-5.3,4c-1.6,0.2-2-0.8-2-2.4
			c0-3.3,2.4-3.9,4.6-4.4C282,62.7,282.6,64.3,282.9,65.9z"/>
		<path fill-rule="evenodd" clip-rule="evenodd" fill="#DE2B26" d="M511.4,163.1c-1.8,1.6-3.3,2.7-0.9,4.4c0.7,0.5,1.4,2.1,0.1,2.8
			c-1,0.5-2-0.5-2.2-1.4c-0.7-3.2-2.8-1.3-4.4-0.9C503.3,161.6,507.5,163.2,511.4,163.1z"/>
		<path fill-rule="evenodd" clip-rule="evenodd" fill="#DE2B26" d="M599.5,222.4c2.5,2.6,3.5,5.8,6.9,5.2c0.6,1.9-1,2.5-1.6,3.5
			c-0.5,1-2,2.9-2.3,2.1c-0.6-1.7-3.3-2.7-2.6-3.7C601.7,227.1,599.6,225.3,599.5,222.4z"/>
		<path fill-rule="evenodd" clip-rule="evenodd" fill="#DE2B26" d="M508.5,147.8c1.7-2.4,4.7-0.4,6.6-2.1c0.1-0.1,1.2,0.8,1.7,1.4
			c0.7,0.9,0.2,1.8-0.4,2.5c-0.8,0.8-1.7,1.5-2.9,0.9C511.8,149.6,510.2,148.8,508.5,147.8z"/>
		<path fill-rule="evenodd" clip-rule="evenodd" fill="#DE2B26" d="M91.8,31.5c0.7-2.5-0.8-2.7-2.7-2.5c-1.9,0.2-3.8,0.4-6,0.7
			c2.5-3.3,6.6-4.6,10.1-3.4c4.1,1.3,8.1,4.2,12.6,1c0.7,2.7,8.4-2.2,5.1,4.7c2.9,1,2.3,5.5,5.8,6c1,0.1,2.3,0,2.8,1.4
			c-1.4,2.7-4.9,0.8-7.4,3.6c4.3,0.8,8,0.6,11.7,0.4c0.5,0,0.9-0.7,1.3-1.2c0.7-0.7-2.2-2.5,0.8-2.6c1.6,0,1.9,1,2,2.2
			c0.2,1.7,1.2,2.2,2.7,1.7c1.7-0.5,1.6-1.8,1.4-3.1c-0.1-1.4-1.4-2.6-0.6-4.1c1.7-0.5,2.9,0.6,3.2,1.6c1.5,4.1,7.1,1.3,8.6,5.3
			c0.1,0.2,3-1.1,3.5-2.5c0.6-1.7-1.2-1.4-2.2-1.6c-0.9-0.2-1.9-0.1-2.9-0.2c-1.7-0.3-3.1-1.2-3.4-3c-0.4-2.4,1.9-2.3,3.3-2.8
			c1.6-0.6,3.6-1.6,4,1.5c0.2,1.5,0.8,2.1,2.2,1c4.9-4.2,10.3-3.2,15.6-1.3c3.7,1.3,7.1,3.1,11,3.5c0.8,0.1,2.1,0.1,2.3,0.6
			c2.4,5.2,8.3,4.4,12,7.5c-2.5,4.5-6,0.3-9.2,0.8c0.2,0.6,0.1,1.2,0.4,1.4c1.2,1.2,4.3,1.6,3.2,3.4c-0.7,1.2-4.1,1.8-5.9,1.3
			c-5.4-1.4-10.4-4.3-16.3-3.3c-0.7,0.1-1.3-0.4-1.3-1.1c0-1.2,1-1.8,2-1.5c2.5,0.7,3.9-0.7,5.5-2.2c0.6-0.5,1.5-1,0.7-1.8
			c-0.6-0.7-1.4-0.3-2.2,0.1c-1.5,1-3.7,4.9-3.2-1.3c0.2-2.9-4.7-1.7-7.4-1.5c-1.7,0.1-2.8,0.7-1,2.6c1.3,1.3-0.3,1.7-1.3,2.3
			c-1.9,1.1-4.1-0.2-6.7,1c2.9,1,5.4,1.9,7.8,2.8c0.7,0.3,1.7,0.6,1.3,1.6c-0.3,0.9-1.1,0.7-2,0.4c-6.6-2.1-13.1-3.3-18.9,2.2
			c-1.4,1.3-3.9,2.1-3.1,4.3c0.7,2,2.8,3.5,5,3.9c4.8,0.9,9.2,3.2,14.1,3.3c2.6,0,2.8,2.8,4.2,4.1c1.1,1.1,1.6,2.8,3.5,1.9
			c1.9-1,0.4-2.6,0.2-3.9c-0.1-0.6-0.5-1.2-0.8-1.8c4.9-0.7,5.3-1.4,2.9-5.5c-1.7-3.1,0.4-7.4,3.9-6.9c4.1,0.6,9.1-0.1,11.4,5.2
			c0.9,2,3.4,2,4.9,0.2c2.2-2.7,3.8-1.9,5.1,0.5c2.5,4.7,8.1,5.6,11.4,9.2c0.4,0.4,1.1,0.6,1.7,0.8c-3.4,4.8,1.4,5.7,3.6,7.9
			c1.2,1.2,0,2-1.4,1.9c-2.1,0-4.2-0.1-6.3-0.1c-1.4-0.1-1.5-1-1-2c0.7-1.4,1.6-2.7,2.5-4.2c-2.1-1.4-3.1,1-4.7,1.3
			c-2.6,0.6-4.7,3.1-8,0.3c-2.3-1.9-4.9,0.9-7.1,2.7c1.8,1.2,2.9-0.2,4.2-0.5c1.4-0.3,2.9-0.4,3.1,1.3c0.4,3.5,3.2,3.1,5.3,3.4
			c0.9,0.1,1.9-0.3,2.2,0.9c0.4,1.7-1.1,2.1-2,2c-3.4-0.5-6.7,4.7-10.2,0.1c-0.3-0.4-3.3,0.3-3.9,1.2c-3.1,4.6-10.4,6.4-11.2,11
			c-1,5.8-5.2,6.6-8.1,9.2c-1.8,1.6-2.5,2.8-1.1,4.8c0.4,0.7,0.7,1.4,1,2.2c0.6,1.7,1.6,3.9-0.4,4.7c-1.6,0.7-2.5-1.7-3.3-2.8
			c-4.1-6-5.1-6.4-12.8-3.6c-1.4,0.5-2.5-0.2-3.8-0.4c-3.4-0.4-8.9,2.3-9.3,4.6c-1.4,7,0.3,13.1,4.6,14.4c2.4,0.7,5.5,0.7,6.6-2.5
			c1.2-3.5,4.2-2.6,6-2c2.7,0.9,0.5,2.8-0.1,4.3c-1.8,4.1-0.9,5.5,3.5,5.1c3.4-0.3,4.4,1.2,4,4.3c-0.2,1.1-0.3,2.2-0.3,3.4
			c-0.1,1.4,0.4,2.5,1.4,3.5c0.9,1,11.5,0.7,12.3-0.3c1.8-2.2,4-3.6,6.6-4.5c1.2,1.6-1.3,3.3,0.7,4.9c1.4-3.1,3-4.7,6.8-2.3
			c1.2,0.8,4.1,1.1,6.6,0c2.5-1.1,4,2.9,5.7,3.7c3.6,1.6,5.7,5.9,10.9,5.3c3.6-0.4,5.8,4,7.5,6.9c1.4,2.5-3,1.9-4.2,4.8
			c8-4.1,13.7,2.8,20.8,3.1c3,0.1,6.3,2.6,8.8,4.7c3.4,2.9,1.1,6.8-0.9,8.5c-4.5,3.9-4.8,8.9-6,14c-0.9,3.9-2.6,7.6-7.8,8.5
			c-3.6,0.7-8.8,1.5-7.8,7.7c0.1,0.7-0.8,1.7-1.5,2.4c-2.3,2.4-4.6,4.7-6.4,7.5c-1.7,2.7-4.3,3.9-7.7,2c1.7,4.8-0.2,8.2-4.8,7.7
			c-3.9-0.4-4.4,4.9-8.2,3.6c-0.1,0,0.3,1.2,0.8,1.8c1.5,2.1-1.4,2.3-1.7,3.6c-0.5,1.7-5.9,2.5-0.8,5.3c1.1,0.6-0.7,2.1-1.6,3
			c-5.4,5-5.1,7,1.8,9.8c-3.8,2.3-7.3,2.3-11.3-0.3c-4-2.6-6.1-7.2-5-10.9c2.6-8.7,2.2-17.8,5.2-26.5c2.4-6.9,3.4-14.5,3.6-22
			c0.1-3-1.4-5-4-6.1c-4.9-2-7.2-6-9.4-10.4c-1.6-3.1-2.2-6.8-5.6-8.8c-1.2-0.7-1-1.9-0.2-3c0.7-0.9,1.5-2,0.9-3.1
			c-1.8-3.2,0.5-4.6,2.4-6.4c2.9-2.6,4.2-5.8,2.2-9.5c-1-1.8-1.8-4.6-4.8-1.4c-1.4,1.5-8.3-2.5-9.5-5.7c-1.1-3.2-3.2-4.2-6.1-4.6
			c-0.2,0-0.4,0-0.5-0.1c-6.8-5.1-16.3-3.3-23-8.7c-2-1.6-4-2.6-4.6-5.6c-0.8-4.1-5.3-5.8-7.6-9.1c-2-2.9-5.2-4.9-7-8.2
			c-0.4,0.3-0.9,0.7-1.3,1c3.3,4.4,6.6,8.9,10,13.5c-2.5,1-3.7-1-4.8-2.1c-3.6-3.8-6.8-8-8.9-12.8c-2.1-4.7-7.5-5.6-10-10.1
			c-1.9-3.4-3.6-6.3-3-10.3c0.7-4.9,0-8.9-5.4-11.6c-2.7-1.4-3.3-6.2-6.9-7.7c-1,1.4,1.4,2.2,0.2,3.8c-1.6-0.4-3.1-1-3.6-3
			c-1.2-4.6-5-7-8.7-8.7c-4.3-1.9-9.3-2.3-14-3.5c-1.7-0.4-2.7,1-4,1.2c-1.7,0.2-3.4,3.8-5.4,0.1c-0.6-1-2.8,1.4-1.9,3.8
			c0.9,2.5-1.3,3-1.8,2.8c-5.6-2-9.5,2.9-14.5,3.2c-1,0-2,1.3-3.5-0.3c3.9-1.8,7.6-3.5,11.3-5.2c0-0.4,0-0.9,0-1.3
			c-3.9,0.9-6.4-2.9-10.4-1.9c-1.7,0.4-2.8-1.6-3.4-3c-0.7-1.6,1-2.1,2-2.8c1.7-1.3,4.5-0.1,6.4-2.7c-4.1-0.1-8.1,2.1-11.4-1.5
			c3.2-3.5,6.9-0.7,10.7-0.8C12.8,43,9,43.9,6.7,42.2c4.4-3.5,10.1-3.1,14.6-5.6c0.4-0.2,1.2,0,1.8,0.2c9.2,2.6,19,1,28.2,3.1
			c8.4,1.9,16.3-1.9,24.7-0.5c5.2,0.8,10.9,0.7,16.4,1.6c-2-2.7-3.3-6.8-7.8-3.5c-0.2,0.2-0.6,0.1-1,0.1c-2.3,0.2-5.6,0.1-5.8-2
			c-0.3-2.6,2.1-4.1,5.3-3.8c2.8,0.3,5.7-0.2,8.6-0.3c4.6,4.4,11.3,1.2,16.6,4.6c-0.5-1.6-0.2-3.8-2-3.6
			C101.6,32.9,96.8,30.1,91.8,31.5z M150.6,79.6c0,0,0-0.1,0-0.1c-1.3,0-2.6-0.2-3.8,0c-3.8,0.6-2.8,3.7-2.9,6.1
			c0,1.1-0.3,2.9,1.1,2.7c2.6-0.4,0.7-2.9,1.4-4.3c0.7-1.4,1.5-2.6,3.1-2.7c1.9-0.2,2.4,1.2,2.5,2.8c0.1,1.1,0.7,2.1,1.8,1.4
			c1.4-0.9,1-3.4,3.1-3.8c-0.7-1.9-2.2-2.1-3.9-2C152.2,79.7,151.4,79.6,150.6,79.6z M138.2,77.9c2.9,0,5.8,0,8.7,0
			c0.5,0,1.3-0.3,1.6-0.7c0.5-0.9-0.4-1.3-1-1.8C143.5,72.1,141.1,75.7,138.2,77.9z M153.3,88.2c0.2,0.4,0.5,0.8,0.7,1.2
			c3.2-1.8,6.4-3.5,10.1-5.6C158.4,82,156.7,86.8,153.3,88.2z"/>
		<path fill-rule="evenodd" clip-rule="evenodd" fill="#DE2B26" d="M165.2,126.9c-5.7-1.5-9.6-5.5-14.9-3.8
			C154.4,120.1,159,121.2,165.2,126.9z"/>
		<path fill-rule="evenodd" clip-rule="evenodd" fill="#DE2B26" d="M176.2,129.4c-3.6,1.2-3.6,1.2-7.9-0.4
			C171.3,125.8,173.4,125.9,176.2,129.4z"/>
		<path fill-rule="evenodd" clip-rule="evenodd" fill="#DE2B26" d="M117.7,34.2c2.3-1.5,4.4-0.8,6.4-1.1c1.2-0.2,2.2,0.3,2.5,1.7
			c0.2,1.1-0.5,1.8-1.3,2.3c-0.9,0.6-2.1,0.8-2.4-0.2C121.9,34.5,119.4,35.9,117.7,34.2z"/>
		<path fill-rule="evenodd" clip-rule="evenodd" fill="#DE2B26" d="M114.3,31.2c-0.6-2.8,0.8-3.3,2.6-3.3c1.6,0,3.2,0,4.8,0.1
			c1.1,0.1,3.1-0.6,2.6,1.5c-0.3,1.5-1.8,1.3-3.2,1C117.6,29.6,117.6,29.7,114.3,31.2z"/>
		<path fill-rule="evenodd" clip-rule="evenodd" fill="#DE2B26" d="M122.8,25.9c-3.7,0.2-6.4-1.6-9.7-1
			C115.5,21.7,119,22,122.8,25.9z"/>
		<path fill-rule="evenodd" clip-rule="evenodd" fill="#DE2B26" d="M299.3,71.4c4.4,0.7,6.7-4.4,11.1-3.8c0.2-2-1.3-4.7,2.1-5.4
			c3.6-0.7,1,3.9,3.3,4.1c2.5,0.2,5,1.4,7.6,0.6c1.9-0.6,3.7-1.3,5.7-0.7c1,0.3,2,0.3,2.3-1c0.6-2.9,4-3.2,4.8-4.4
			c2.9-3.9,7-1.6,11-3.6c-2.8-2.5-5.8-1.9-8.3-1.3c-2.5,0.6-4.4,0.9-5.4-2c-1-2.8,1.5-3.1,2.9-4.2c1-0.7,2.1-1.4,3.1-2.1
			c-0.7-2-2.6-1.6-3.3-1.2c-3.2,2-5.5,5.5-9.5,6.4c-0.2,0-0.4,0.9-0.3,1.3c1.5,6.2-0.9,9.6-7.1,10c-0.6,0-1.8,0.1-1.8,0
			c-0.8-5.8-4.2-4.8-8.3-3.6c-1.6,0.5-2.9-1.6-3.2-3.6c-0.2-1.5-1.3-3.5,0.7-4.3c6.7-2.6,11.6-8.2,17.7-11.4
			c7.7-4,16.8-5.2,25.5-2.4c6,1.9,12.1,3,19,4.7c-4.1,2.9-7.6,3.3-11.4,2.1c-0.5,1.6,0.4,3.5,1.1,3.2c2.4-1.3,5.1,1.9,7.2-0.8
			c1.8-2.4,4.2-3.2,6.9-2c1-1.6-1.4-3.9,1.4-4.7c2.5-0.7,2.6,0.9,2.6,2.7c0,0.1,0.8,0.3,1.1,0.2c6.7-2.4,14-1.1,20.5-2.8
			c6-1.5,11.2-0.6,17.2,0.9c-2.7-4.3-2-6.7,1.9-8.8c2-1.1,6,0.6,5.5,2.6c-0.8,3.3,2.6,7.9-4.6,9.6c3.9,1.2,5.1-0.4,6.5-1.6
			c1.3-1.2,2.3-3.4,4.8-1.5c0.9,0.7,2.2,0.9,3.1-0.2c0.3-0.3,0.1-1.2-0.2-1.8c-0.7-1.3-1.9-1.2-3-0.8c-6.3,2.4-3.3-2.2-3.6-4.9
			c2,1.8,2.9,3.8,5.5,0.2c2.2-3.1,5,1.7,7.8,2.2c1,0.2,1.1,3.6,2.9,1.3c1.1-1.4-0.8-2.4-2.1-3.2c-0.9-0.5-2.2-0.6-2.6-1.8
			c8-1.9,15.9-5.4,23.7-5.2c7.1,0.2,13.7-4.5,21.1-1.2c2.6,1.1,6.6-0.3,10,0.4c1.1,0.2,3.4,0.2,2.6,1.9c-2.3,4.7,1.5,2.9,3.1,3.1
			c5.8,0.7,11.6,1.8,17.5-0.2c2.7-1,5.9-0.8,6.3,3.6c0.1,1.2,1.6,2.3,2.5,1.6c3.4-2.5,7.2-0.2,10.7-1.3c2.2-0.7,5.3-0.3,5.3-3.7
			c0-3.3-3.5-1.2-4.8-2.8c2.5-2.1,7.3-2,12.4,0.2c-0.6,1.7-2.8,0.6-3.5,2c-0.3,0.7,0.3,0.9,0.7,1c7.4,0.6,14.1,5,21.8,4
			c2.8-0.3,5.5-0.2,7.8,1.7c1.4,1.1,2.9,1.1,4.6,1c4.1-0.3,8.4-1.4,12.3,1c0.3,0.2,0.8,0.3,0.9,0.2c3.9-4.3,8.5,0,12.7-1.1
			c1.5-0.4,3.9,0,4.1,1.6c0.2,2,1.7,5-0.3,6.3c-2.9,1.8,0,2.8,0,4.4c-4.5,0-8.6,0.9-12.5,2.9c-3.2,1.7-6.7,1-10,0.9
			c-3.5,0-6,0.9-6,5.1c0,4.3-4.3,5.2-6.5,7.8c-1.6,1.8-3.6,3.1-5.2,4.5c-3.1-8.9-0.3-14.9,9.7-17.3c-3.2,0.5-2.6-4.2-5.3-2.9
			c-1.9,0.9-3.6,2.2-5.3,3.4c-2.6,2-5.2,1.7-8.4,1.7c-6.5-0.1-13.9-2.4-19.6,3.6c-1.6,1.6-4.1,2.4-6.4,3.7c2.7,3,6.3,1.1,9.2,2.3
			c2.6,1,6.1,5.5,4.7,7.6c-1.2,1.8-0.5,3.7-1.2,5.8c-3.9-2.6-1.3-6.4-3.2-9.8c-1.2,6.3-5.6,9.8-10.1,13.2c-1.3,1-2.4,2-4.2,2
			c-5.7,0-8.5,4-7,9.4c0.6,2.2,0.2,4.2-2,5.5c-0.9,0.5-1.8,0.7-2.7,0c-0.8-0.6-0.7-1.4-0.3-2.1c1-1.9,1.3-3.5-1.6-3.6
			c-2.1-0.1-1-1.6-1.1-2.5c-0.2-1.1-0.4-1.9-1.8-1.5c-1.5,0.4-3.7,3.2-3.9-1.3c0-0.9-1.9,0.6-2.6,1.1c-1,0.8-3.3,0.7-2.8,2.7
			c0.3,1.3,1.6,1.9,2.9,2.2c1.2,0.2,3-1.1,3.5,0.5c0.6,1.8-1.5,2-2.7,2.7c-2,1.1-0.5,2,0.1,3c4.1,6.2,3.6,8.3-1.4,13.3
			c-4.1,4.1-8,7.9-14.4,7.7c-1.9-0.1-2.7,1.6-1.7,3.6c0.7,1.6-0.4,2.4-1.3,3.3c-0.5,0.5-1.2,0.4-1.7-0.2c-0.8-1-0.4-2.1-0.1-3.2
			c0.4-1.1,1.6-2.4,0-3.4c-0.9-0.6-1.8,0.4-2.5,1.1c-1.1,1.1-3,2-1.7,3.9c0.9,1.5,2.4,2.6,3.5,4c1.8,2.2,3.3,4.3,2.3,7.5
			c-1.1,3.4-4.7,3.6-6.9,5.6c-1.1,1-2.1-1-2.9-1.9c-1.7-1.9-2.8-4.4-5.8-5.4c-1.4,0.9-0.7,3.3-2.4,4.2c-1.9-1.3-1.9-3.3-2.1-5.2
			c-0.6-6.4-0.6-6.4-5.6-2.9c-1.4-1.1-0.7-2.7-1-4c-0.6-3.4-3.6-5.3-5.1-8.1c-3,1.7-7,0.4-9.6,3.3c-2.2,2.5-4.5,5.1-7.7,6.6
			c-1.9,0.9-2.2,2.6-2.2,4.5c0,4.4-1.8,8.1-4.7,12.4c-2.3-8.6-9.3-14.4-8.7-23.2c0-0.5-0.2-0.9-0.3-1.4c-6.2,1.7-5.2-6.4-9.7-7.2
			c-1.4-0.3-2.3-0.1-3.5,0.1c-4.4,0.7-9,1.9-12.6-2.1c-0.6-0.6-1.3-1.3-2.1-1c-4.9,2-7.4-1.4-10.2-4.3c-0.9-0.9-1.4-2.4-3-1
			c-1.3,1.2-0.6,2.3,0.3,3.4c1.3,1.6,2.7,3.2,3.9,4.9c1.8,2.6,3.5,3.2,6.1,1c3.3-2.8,5.1,1.2,7.3,2.3c2.7,1.3,0.5,3.2-0.3,4.8
			c-2,4-5.2,6.4-9.4,7.9c-4.4,1.6-8.7,3.5-13.1,5.1c-3.1,1.2-4.9,0.2-5.5-3.2c-1.7-8.4-9.1-13.9-11.6-21.9c-0.4-1.3-1.7-1.5-2.8-1
			c-1.3,0.7-0.5,1.6-0.1,2.5c4.3,7.7,8.3,15.6,12.8,23.1c4.2,7,7.5,5.2,12.4,3.3c1.1-0.4,2.5-1.3,3.6-0.1c0.9,1,0.1,2.2-0.3,3.2
			c-2.6,5.3-4.6,10.8-10.3,14.1c-4.3,2.4-6.9,6.8-9.7,10.7c-1.6,2.1-0.3,5.1,0.7,7.5c3.4,7.8,2.4,11.8-4.7,16.5
			c-2.5,1.7-4.2,3.6-2.7,6.9c0.5,1,1,2.6,0.2,3.2c-5.2,4.1-6.8,11.1-12.4,15.1c-4.8,3.4-10.2,2.2-15.3,3.4c-1.2,0.3-2.1-1.2-2.6-2.5
			c-3.5-8.7-5.7-17.8-10.2-26.1c-1.4-2.5-1.9-5.7,0-7.9c4.7-5.2,0.8-9.7-0.5-14.4c-0.2-0.7-0.7-1.5-1.3-2c-4-3.7-4.7-7.6-2.2-12.8
			c1.2-2.5-1.3-4-3.6-2.8c-2.6,1.3-3.8,0.5-5-1.7c-1.3-2.2-3.3-2.6-5.4-1.4c-3.8,2.2-8.3,1.3-12.1,2.5c-8,2.5-11.1-2.4-14.7-7.4
			c-0.9-1.2-1.9-2.2-3.2-2.9c-3.9-2.1-4-5.7-2.3-8.9c1.4-2.7,1.8-4.9,0.8-7.8c-1.2-3.5,2.6-10.6,6.9-13.3c2.3-1.4,4-2.7,4.4-5.7
			c0.4-3.6,3.9-5.8,6.8-6.1c8.1-1,15.6-5.3,24.1-4.6c3.6,0.3,6.2,0.4,4,4.9c-0.6,1.3,0.4,1.7,1.2,2.1c3.7,1.6,7.3,3.3,11,4.8
			c1.1,0.5,2.4,0.4,3.2-0.4c5-5.2,10.7-2,15.6-0.6c6.7,1.8,12.3-0.2,13.1-6.1c0.3-2.4-0.3-3.6-2.8-2.6c-2.6,1-5.2,0.2-7.7-0.1
			c-2.9-0.3-6.2-1.3-6.1-5.5c0-1.3-0.3-3-2.1-2.1c-1.1,0.5-3.8,0.7-1.8,3.2c1.7,2.2-0.4,2.7-1.6,3.6c-2.1,1.5-2.7-0.2-3.5-1.7
			c-3.1-6.2-8.1-10.5-15.4-14c1.6,3.8,3.6,5.8,6.1,6.8c3.6,1.4,3.5,3.2,1.3,6.1c-1.2-3-3.6-4.4-6.5-5.1c-1.6-0.4-3-1.3-3.9-2.7
			c-0.6-1-1.3-1.9-2.6-2c-5.1-0.4-13.7,4.7-16.3,9.4c-2.7,4.7-12.3,5.6-15.7,1.1c-1.8-2.4,0.2-5.7,0.4-8.6c0.2-2,2.9-1.3,4.6-1.3
			c1.5,0,2.9,0.1,4.4,0.2c2.1,0.2,3.9,0,4.4-2.6c0.5-2.4-0.7-3.6-2.8-4.4c-0.6-0.2-1.2-0.5-2.4-1.1c2.5-1.5,4.8-2.2,7.3-2.4
			c2.4-0.2,3.4-1.4,3.6-3.7L299.3,71.4z M383.9,89.8c-0.9,2.7-6.4,2.9-2.5,6.3c1.7,1.5,4.4,1.9,6.9,1.6c1.8-0.2,2.8-1.2,2.1-2.9
			c-1.2-2.8-0.7-6.2-3.6-8.3c-0.9-0.7-3-1.4-2-3.3c0.8-1.5,2.3-0.6,3.5-0.5c0.9,0.1,2.1,0.3,2.5-0.7c0.5-1.1-0.6-1.8-1.2-2.4
			c-1.9-1.8-11.4,0.1-12.5,2.3c-0.6,1.2-0.1,2.2,0.5,3.2C379.1,87.4,381,89.2,383.9,89.8z M363.6,90.3c2-0.8,4.4,0.2,5-1.9
			c0.5-1.8-1.7-2.4-3-3.3c-1.4-1-4-1.7-4.3-2.9c-0.6-3.3-1.6-2.5-3-0.8c-2,2.5-3.6,3-5.5-0.1c-1.3-2.1-3.1-1.8-4.2,0.1
			c-1.4,2.6-5.7,4.1-3.4,8.1c0.4,0.7,1.1,0.4,1.7,0.3C352.6,89,358.3,87,363.6,90.3z"/>
	</g>
	<g>
		<path fill-rule="evenodd" clip-rule="evenodd" fill="none" stroke="#010101" stroke-width="1.4175" stroke-miterlimit="10" d="
			M236,4.7c-2,2.5-5.4,0.3-7.4,3.1c4-0.8,7.5-1.7,11.1-2.2c3.5-0.6,6.6-1.4,8,3.8c1.8,6.3,3.6,6.5,9.6,3.1c1.4-0.8,2.7-0.9,4.2-0.5
			c0.8,0.2,1.7,0.3,1.8,1.3c0.2,0.9-0.5,1.6-1.3,1.9c-2.3,0.9-4.2,2.4-5.9,4.1c-1.6,1.6-3.8,2.8-1.8,6.1c0.7,1.1,1.3,6.5-3.9,6.3
			c-2.5-0.1-3.2,1.1-2,3.4c0.5,0.9,0.6,1.9-0.5,2.5c-0.8,0.4-1.6,0.2-2.1-0.5c-0.7-1-1.4-3-2.7-1.7c-1.7,1.7,1.7,1.7,1.6,3.6
			c-1.7,0.6-3.6,1.8-5.5,1.8c-5.9,0.1-10.4,4.8-16.3,4.5c-3.5-0.2-5.3,4-5.6,5.4c-1.6,7.2-6.3,3.9-9,2.6c-4.7-2.3-8.5-5.8-9.5-11.9
			c-0.5-3-3.2-5.2,2.2-5.7c-2.1-2.9-3.2,0.2-5.1,0.2c-1.3-2.1-0.2-5.6-3.7-7c-4.9-2-10.5-3.4-14.9-1.9c-4.5,1.6-4.7-3.9-8.1-2.3
			c4.6-1.7,8.1-4.1,11.6-7.3c4.1-3.7,9.6-6.8,16-4.8c2.9,0.9,5.9,1.6,6.5-3c0-0.4,0.6-1.1,0.7-1.1c5.9,1.8,9.1-5,14.8-4.6
			C224.4,4,230.1,2.1,236,4.7z"/>
		<path fill-rule="evenodd" clip-rule="evenodd" fill="none" stroke="#010101" stroke-width="1.4175" stroke-miterlimit="10" d="
			M530.2,220.8c0.7-5.5-3.7-6.1-6.1-6.3c-4.2-0.3-8.7,0-12.5,3c-3.7,2.8-8.5,3.2-12.9,4.2c-1.5,0.3-3.8-1.9-2.7-2.9
			c4.1-3.6,0.3-6.2-0.9-8.6c-4.9-9.6-3.2-13.6,7.4-15.6c5.1-1,7-5.8,10.7-8.5c1.7-1.2,2.4-3.6,4.9-1.4c1.3,1.1,2.3,0.8,3-0.7
			c2.5-5.2,7.2-2.9,11.1-3.1c1.2-0.1,1.5,1,1.1,2.1c-0.5,1.4-1.4,2.8,0.4,3.8c2.1,1.2,4.2,3.3,6.3,3.2c2.6-0.1,2.9-3.2,2.6-5.3
			c-0.3-2-0.6-3.8,0.7-6c2,4.9,6,8,7.7,13c1.1,3.2,5.1,5.2,7.4,8.3c4,5.5,4.9,12.9,1.2,18.5c-2,3.1-2.4,7.2-7.1,8.6
			c-6.5,2-9.7,1.3-13.5-4.6C536.5,218.3,534.2,217.7,530.2,220.8z"/>
		<path fill-rule="evenodd" clip-rule="evenodd" fill="none" stroke="#010101" stroke-width="1.4175" stroke-miterlimit="10" d="
			M557.5,178.1c-3.7-0.2-5.6-1.2-6.7-3c-2-3.3-3.7-3-5.9-0.3c-1.4,1.7-8.1,0.1-7.8-1.9c0.6-4.1-2.2-4.9-4.6-5
			c-4.4-0.3-5.8-4-8.4-6.4c-0.2-0.1-0.2-0.8-0.1-0.8c0.5-0.3,1.3-0.7,1.7-0.5c5.9,3.2,13.1,0.8,19,4.7
			C549.8,168.2,553.4,172.5,557.5,178.1z"/>
		<path fill-rule="evenodd" clip-rule="evenodd" fill="none" stroke="#010101" stroke-width="1.4175" stroke-miterlimit="10" d="
			M499.8,147c0.9,5.7,3.3,9.9-0.6,15c-1.8,2.4-2,4.5-5.8,4c-4-0.5-6.6-2.2-7.6-6.2c-0.4-1.7-0.4-2.6,2-3.7
			C491.9,154.3,496,151.9,499.8,147z"/>
		<path fill-rule="evenodd" clip-rule="evenodd" fill="none" stroke="#010101" stroke-width="1.4175" stroke-miterlimit="10" d="
			M383.4,186.2c-1.9,5.4-3.8,11-5.8,16.5c-0.6,1.5-2.2,1.8-3.7,1.5c-1.6-0.3-1.5-1.7-2-2.9c-1.6-3.8,1.2-7.5-0.3-11.3
			c-0.5-1.3,1.2-2,2.5-2.4c1.9-0.6,3.2-2,4.4-3.5c0.8-1,1-3.2,2.9-2.5C383.3,182.3,382.8,184.3,383.4,186.2z"/>
		<path fill-rule="evenodd" clip-rule="evenodd" fill="none" stroke="#010101" stroke-width="1.4175" stroke-miterlimit="10" d="
			M549.8,83.9c-0.9,1.8-2.8,1.3-4.3,1.6c-2.7,0.5-5.4,0.1-3.4,4.7c1.5,3.6-4.3,9-9.9,10.8c-2.7,0.8-6,0.2-7.9,3.2
			c-0.6,1-1.8,0.3-2.4-0.6c-0.6-0.9-1.6-2.3-0.5-3c2-1.2,3.4-3.4,6.1-3.5c8.8-0.2,10.8-2.1,11.7-10.5
			C539.8,81.5,543.8,80.4,549.8,83.9z"/>
		<path fill-rule="evenodd" clip-rule="evenodd" fill="none" stroke="#010101" stroke-width="1.4175" stroke-miterlimit="10" d="
			M461.6,150.5c2.9-0.2,4.5,1.2,6,2.5c3.1,2.5,6.2,5.1,9.3,7.7c2.1,1.8,4.6,2.9,3,6.9c-1.2,2.9,2.5,3,4.3,3.9c1.9,0.9,3.8,0,5.7,0.4
			c1.7,0.3,3.6,0,4.4,2.4c-5.3-1.2-11.1,0.3-15.9-3.9c-4.3-3.7-8.5-7.1-10.5-12.8C467.1,154.9,464.1,153.1,461.6,150.5z"/>
		<path fill-rule="evenodd" clip-rule="evenodd" fill="none" stroke="#010101" stroke-width="1.4175" stroke-miterlimit="10" d="
			M295.6,67.5c-2.7,3.6-6.9,2.1-9.7,1.4c-4.1-1-1.3-3.6,0.8-5.4c-1.3-0.6-2.3-1.1-3.3-1.6c-1.7-1-3.8-2.4-3.1-4.3
			c0.5-1.2,3.1-2,4.8-2.2c1.7-0.2,3.5,0.6,3.6,3c0.2,2.7,2.2,4.2,4.1,5.6c1.3,1,2.6,1.9,2.7,3.7C295.5,67.7,295.6,67.5,295.6,67.5z"
			/>
		<path fill-rule="evenodd" clip-rule="evenodd" fill="none" stroke="#010101" stroke-width="1.4175" stroke-miterlimit="10" d="
			M415.4,24.6c-1.9,3.5-3.8,4.2-6.5,3.9c-3.5-0.3-7.3-0.6-10.5,1.1c-1.9,1-6.2,1.1-3.6,5.5c0.4,0.7-0.4,1.6-1.2,1.7
			c-0.8,0.2-1.7,0.3-2.4,0c-1.9-1-5.4-0.5-5.7-2.7c-0.3-2.2,3.1-2.2,4.7-3.4c5.6-3.8,11.7-5,18.4-4.6
			C410.5,26.2,412.4,25.3,415.4,24.6z"/>
		<path fill-rule="evenodd" clip-rule="evenodd" fill="none" stroke="#010101" stroke-width="1.4175" stroke-miterlimit="10" d="
			M254.8,44c3.2,2,6.9,0.2,10.5,0.3c1,0,2.6,0.1,2.6,1.6c0,1-1.3,1.1-2.1,1.6c-3.9,2.4-7.8,1.8-11.7,0c-1.1-0.5-1.8-1.4-1.5-2.6
			C252.7,44,253.5,43.9,254.8,44z"/>
		<path fill-rule="evenodd" clip-rule="evenodd" fill="none" stroke="#010101" stroke-width="1.4175" stroke-miterlimit="10" d="
			M589.4,240.9c-0.9-0.2-2.3,0.2-2.8-1.2c-0.5-1.4,0.5-2.1,1.5-2.7c2.8-1.6,5.5-3.3,7.8-5.5c0.7-0.7,1.7-1,2.6-0.2
			c0.7,0.6,0.7,1.3,0.5,2.2C598.5,235.1,591.1,240.9,589.4,240.9z"/>
		<path fill-rule="evenodd" clip-rule="evenodd" fill="none" stroke="#010101" stroke-width="1.4175" stroke-miterlimit="10" d="
			M467.1,142.5c5.5,3.7,8.3,8.9,10.5,14.6C473.1,156.7,468.3,150.1,467.1,142.5z"/>
		<path fill-rule="evenodd" clip-rule="evenodd" fill="none" stroke="#010101" stroke-width="1.4175" stroke-miterlimit="10" d="
			M511.2,135.6c-2.9,0-4,2.8-6.6,4.1c1.8-2.3,2.5-4.4-0.3-6.3c-1-0.7-1-2.2,0.3-2.8c1.5-0.7,2.1-3.5,3.5-2.7
			c3.3,1.9-0.9,3.2-0.9,5.2C507.6,135,510.6,133,511.2,135.6z"/>
		<path fill-rule="evenodd" clip-rule="evenodd" fill="none" stroke="#010101" stroke-width="1.4175" stroke-miterlimit="10" d="
			M282,64c-0.5,2.9-2.9,3.6-5.3,4c-1.6,0.2-2-0.8-2-2.4c0-3.3,2.4-3.9,4.6-4.4C281.1,60.8,281.7,62.4,282,64z"/>
		<path fill-rule="evenodd" clip-rule="evenodd" fill="none" stroke="#010101" stroke-width="1.4175" stroke-miterlimit="10" d="
			M510.4,161.3c-1.8,1.6-3.3,2.7-0.9,4.4c0.7,0.5,1.4,2.1,0.1,2.8c-1,0.5-2-0.5-2.2-1.4c-0.7-3.2-2.8-1.3-4.4-0.9
			C502.4,159.7,506.5,161.4,510.4,161.3z"/>
		<path fill-rule="evenodd" clip-rule="evenodd" fill="none" stroke="#010101" stroke-width="1.4175" stroke-miterlimit="10" d="
			M598.6,220.5c2.5,2.6,3.5,5.8,6.9,5.2c0.6,1.9-1,2.5-1.6,3.5c-0.5,1-2,2.9-2.3,2.1c-0.6-1.7-3.3-2.7-2.6-3.7
			C600.8,225.3,598.7,223.5,598.6,220.5z"/>
		<path fill-rule="evenodd" clip-rule="evenodd" fill="none" stroke="#010101" stroke-width="1.4175" stroke-miterlimit="10" d="
			M507.6,146c1.7-2.4,4.7-0.4,6.6-2.1c0.1-0.1,1.2,0.8,1.7,1.4c0.7,0.9,0.2,1.8-0.4,2.5c-0.8,0.8-1.7,1.5-2.9,0.9
			C510.9,147.8,509.3,146.9,507.6,146z"/>
		<path fill-rule="evenodd" clip-rule="evenodd" fill="none" stroke="#010101" stroke-width="1.4175" stroke-miterlimit="10" d="
			M90.9,29.6c0.7-2.5-0.8-2.7-2.7-2.5c-1.9,0.2-3.8,0.4-6,0.7c2.5-3.3,6.6-4.6,10.1-3.4c4.1,1.3,8.1,4.2,12.6,1
			c0.7,2.7,8.4-2.2,5.1,4.7c2.9,1,2.3,5.5,5.8,6c1,0.1,2.3,0,2.8,1.4c-1.4,2.7-4.9,0.8-7.4,3.6c4.3,0.8,8,0.6,11.7,0.4
			c0.5,0,0.9-0.7,1.3-1.2c0.7-0.7-2.2-2.5,0.8-2.6c1.6,0,1.9,1,2,2.2c0.2,1.7,1.2,2.2,2.7,1.7c1.7-0.5,1.6-1.8,1.4-3.1
			c-0.1-1.4-1.4-2.6-0.6-4.1c1.7-0.5,2.9,0.6,3.2,1.6c1.5,4.1,7.1,1.3,8.6,5.3c0.1,0.2,3-1.1,3.5-2.5c0.6-1.7-1.2-1.4-2.2-1.6
			c-0.9-0.2-1.9-0.1-2.9-0.2c-1.7-0.3-3.1-1.2-3.4-3c-0.4-2.4,1.9-2.3,3.3-2.8c1.6-0.6,3.6-1.6,4,1.5c0.2,1.5,0.8,2.1,2.2,1
			c4.9-4.2,10.3-3.2,15.6-1.3c3.6,1.3,7.1,3.1,11,3.5c0.8,0.1,2.1,0.1,2.3,0.6c2.4,5.2,8.3,4.4,12,7.5c-2.5,4.5-6,0.3-9.2,0.8
			c0.2,0.6,0.1,1.2,0.4,1.4c1.2,1.2,4.3,1.6,3.2,3.4c-0.7,1.2-4.1,1.8-5.9,1.3c-5.4-1.4-10.4-4.3-16.3-3.3c-0.7,0.1-1.3-0.4-1.3-1.1
			c0-1.2,1-1.8,2-1.5c2.5,0.7,3.9-0.7,5.5-2.2c0.6-0.5,1.5-1,0.7-1.8c-0.6-0.7-1.4-0.3-2.2,0.1c-1.5,1-3.7,4.9-3.2-1.3
			c0.2-2.9-4.7-1.7-7.4-1.5c-1.7,0.1-2.8,0.7-1,2.6c1.3,1.3-0.3,1.7-1.3,2.3c-1.9,1.1-4.1-0.2-6.7,1c2.9,1,5.4,1.9,7.8,2.8
			c0.7,0.3,1.7,0.6,1.3,1.6c-0.3,0.9-1.1,0.7-2,0.4c-6.6-2.1-13.1-3.3-18.9,2.2c-1.4,1.3-3.9,2.1-3.1,4.3c0.7,2,2.8,3.5,5,3.9
			c4.8,0.9,9.2,3.2,14.1,3.3c2.6,0,2.8,2.8,4.2,4.1c1.1,1.1,1.6,2.8,3.5,1.9c1.9-1,0.4-2.6,0.2-3.9c-0.1-0.6-0.5-1.2-0.8-1.8
			c4.9-0.7,5.3-1.4,2.9-5.4c-1.7-3.1,0.4-7.4,3.9-6.9c4.1,0.6,9.1-0.1,11.4,5.2c0.9,2,3.4,2,4.9,0.2c2.2-2.7,3.8-1.9,5.1,0.5
			c2.5,4.7,8.1,5.6,11.4,9.2c0.4,0.4,1.1,0.6,1.7,0.8c-3.4,4.8,1.4,5.7,3.6,7.9c1.2,1.2,0,1.9-1.4,1.9c-2.1,0-4.2-0.1-6.3-0.2
			c-1.4-0.1-1.5-1-1-2c0.7-1.4,1.6-2.7,2.5-4.2c-2.1-1.4-3.1,1-4.7,1.3c-2.6,0.6-4.7,3.1-8,0.3c-2.3-1.9-4.9,0.9-7.1,2.7
			c1.8,1.2,2.9-0.2,4.2-0.5c1.4-0.3,2.9-0.4,3.1,1.3c0.4,3.5,3.2,3.1,5.3,3.4c0.9,0.1,1.9-0.3,2.2,0.9c0.4,1.7-1.1,2.1-2,2
			c-3.4-0.5-6.7,4.7-10.2,0.1c-0.3-0.4-3.3,0.3-3.9,1.2c-3.1,4.6-10.4,6.4-11.2,11c-1,5.8-5.2,6.6-8.1,9.2c-1.8,1.6-2.5,2.8-1.1,4.8
			c0.4,0.7,0.7,1.4,1,2.2c0.6,1.7,1.6,3.9-0.4,4.7c-1.6,0.7-2.5-1.7-3.3-2.8c-4.1-6-5.1-6.4-12.8-3.6c-1.4,0.5-2.5-0.2-3.8-0.4
			c-3.4-0.4-8.9,2.3-9.3,4.6c-1.4,7,0.3,13.1,4.6,14.4c2.4,0.7,5.5,0.7,6.6-2.5c1.2-3.5,4.2-2.6,6-2c2.7,0.9,0.5,2.8-0.1,4.3
			c-1.8,4.1-0.9,5.5,3.5,5.1c3.4-0.3,4.4,1.2,4,4.3c-0.2,1.1-0.3,2.2-0.3,3.4c-0.1,1.4,0.4,2.5,1.4,3.5c0.9,1,11.5,0.7,12.3-0.3
			c1.8-2.2,4-3.6,6.6-4.5c1.2,1.6-1.3,3.3,0.7,4.9c1.4-3.1,3-4.7,6.8-2.3c1.2,0.8,4.1,1.1,6.6,0c2.5-1.1,4,2.9,5.7,3.7
			c3.6,1.6,5.7,5.9,10.9,5.3c3.6-0.4,5.8,4,7.5,6.9c1.4,2.5-3,1.9-4.2,4.8c8-4.1,13.7,2.8,20.8,3.1c3,0.1,6.3,2.6,8.8,4.7
			c3.4,2.9,1.1,6.8-0.9,8.5c-4.5,3.9-4.8,8.9-6,14c-0.9,3.9-2.6,7.6-7.8,8.5c-3.6,0.7-8.8,1.5-7.8,7.7c0.1,0.7-0.8,1.7-1.5,2.4
			c-2.3,2.4-4.6,4.7-6.4,7.5c-1.7,2.7-4.3,3.9-7.7,2c1.7,4.8-0.2,8.2-4.8,7.7c-3.9-0.4-4.4,4.9-8.2,3.6c-0.1,0,0.3,1.2,0.8,1.8
			c1.5,2.1-1.4,2.3-1.7,3.6c-0.5,1.7-5.9,2.5-0.8,5.3c1.1,0.6-0.7,2.1-1.6,3c-5.4,5-5.1,7,1.8,9.8c-3.8,2.3-7.3,2.3-11.3-0.3
			c-4-2.6-6.1-7.2-5-10.9c2.6-8.7,2.2-17.8,5.2-26.5c2.4-6.9,3.4-14.5,3.6-22c0.1-3-1.4-5-4-6.1c-4.9-2-7.2-6-9.4-10.4
			c-1.6-3.1-2.2-6.8-5.6-8.8c-1.2-0.7-1-1.9-0.2-3c0.7-0.9,1.5-2,0.9-3.1c-1.8-3.2,0.5-4.6,2.4-6.4c2.9-2.6,4.2-5.8,2.2-9.5
			c-1-1.8-1.8-4.6-4.8-1.4c-1.4,1.5-8.3-2.5-9.5-5.7c-1.1-3.2-3.2-4.2-6.1-4.6c-0.2,0-0.4,0-0.5-0.1c-6.8-5.1-16.3-3.3-23-8.7
			c-2-1.6-4-2.6-4.6-5.6c-0.8-4.1-5.3-5.8-7.6-9.1c-2-2.9-5.2-4.9-7-8.2c-0.4,0.3-0.9,0.7-1.3,1c3.3,4.4,6.6,8.9,10,13.5
			c-2.5,1-3.7-1-4.8-2.1c-3.6-3.8-6.8-8-8.9-12.8c-2.1-4.7-7.5-5.6-10-10.1c-1.9-3.4-3.6-6.3-3-10.3c0.7-4.9,0-8.9-5.4-11.6
			c-2.7-1.4-3.3-6.2-6.9-7.7c-1,1.4,1.4,2.2,0.2,3.8c-1.6-0.4-3.1-1-3.6-3c-1.2-4.6-5-7-8.7-8.7c-4.3-1.9-9.3-2.3-14-3.5
			c-1.7-0.4-2.7,1-4,1.2c-1.7,0.2-3.4,3.8-5.4,0.1c-0.6-1-2.8,1.4-1.9,3.8c0.9,2.5-1.3,3-1.8,2.8c-5.6-2-9.5,2.9-14.5,3.2
			c-1,0-2,1.3-3.5-0.3c3.9-1.8,7.6-3.5,11.3-5.2c0-0.4,0-0.9,0-1.3c-3.9,0.9-6.4-2.9-10.4-1.9c-1.7,0.4-2.8-1.6-3.4-3
			c-0.7-1.6,1-2.1,2-2.8c1.7-1.3,4.5-0.1,6.4-2.7c-4.1-0.1-8.1,2.1-11.4-1.5c3.2-3.5,6.9-0.7,10.7-0.8c-1.7-3.6-5.5-2.7-7.8-4.4
			c4.4-3.5,10.1-3.1,14.6-5.6c0.4-0.2,1.2,0,1.8,0.2c9.2,2.6,19,1,28.2,3.1c8.4,1.9,16.3-1.9,24.7-0.5c5.2,0.8,10.9,0.7,16.4,1.6
			c-2-2.7-3.3-6.8-7.8-3.5c-0.2,0.2-0.6,0.1-1,0.1c-2.3,0.2-5.6,0.1-5.8-2c-0.3-2.6,2.1-4.1,5.3-3.8c2.8,0.3,5.7-0.2,8.6-0.3
			c4.6,4.4,11.3,1.2,16.6,4.6c-0.5-1.6-0.2-3.8-2-3.6C100.6,31,95.9,28.3,90.9,29.6z M149.6,77.8c0,0,0-0.1,0-0.1
			c-1.3,0-2.6-0.2-3.8,0c-3.8,0.6-2.8,3.7-2.9,6.1c0,1.1-0.3,2.9,1.1,2.7c2.6-0.4,0.7-2.9,1.4-4.3c0.7-1.4,1.5-2.6,3.1-2.7
			c1.9-0.2,2.4,1.2,2.5,2.8c0.1,1.1,0.7,2.1,1.8,1.4c1.4-0.9,1-3.4,3.1-3.8c-0.7-1.9-2.2-2.1-3.9-2
			C151.2,77.8,150.4,77.8,149.6,77.8z M137.3,76.1c2.9,0,5.8,0,8.7,0c0.5,0,1.3-0.3,1.6-0.7c0.5-0.9-0.4-1.3-1-1.8
			C142.6,70.2,140.2,73.8,137.3,76.1z M152.3,86.4c0.2,0.4,0.5,0.8,0.7,1.2c3.2-1.8,6.4-3.5,10.1-5.6
			C157.4,80.1,155.7,85,152.3,86.4z"/>
		<path fill-rule="evenodd" clip-rule="evenodd" fill="none" stroke="#010101" stroke-width="1.4175" stroke-miterlimit="10" d="
			M164.3,125c-5.7-1.5-9.6-5.5-14.9-3.8C153.4,118.3,158.1,119.4,164.3,125z"/>
		<path fill-rule="evenodd" clip-rule="evenodd" fill="none" stroke="#010101" stroke-width="1.4175" stroke-miterlimit="10" d="
			M175.2,127.5c-3.6,1.2-3.6,1.2-7.9-0.4C170.4,123.9,172.5,124,175.2,127.5z"/>
		<path fill-rule="evenodd" clip-rule="evenodd" fill="none" stroke="#010101" stroke-width="1.4175" stroke-miterlimit="10" d="
			M116.8,32.3c2.3-1.5,4.4-0.8,6.4-1.1c1.2-0.2,2.2,0.3,2.5,1.7c0.2,1.1-0.5,1.8-1.3,2.3c-0.9,0.6-2.1,0.8-2.4-0.2
			C121,32.7,118.4,34,116.8,32.3z"/>
		<path fill-rule="evenodd" clip-rule="evenodd" fill="none" stroke="#010101" stroke-width="1.4175" stroke-miterlimit="10" d="
			M113.4,29.4c-0.6-2.8,0.8-3.3,2.6-3.3c1.6,0,3.2,0,4.8,0.1c1.1,0.1,3.1-0.6,2.6,1.5c-0.3,1.5-1.8,1.3-3.2,1
			C116.7,27.8,116.6,27.9,113.4,29.4z"/>
		<path fill-rule="evenodd" clip-rule="evenodd" fill="none" stroke="#010101" stroke-width="1.4175" stroke-miterlimit="10" d="
			M121.9,24.1c-3.7,0.2-6.4-1.6-9.7-1C114.6,19.8,118.1,20.1,121.9,24.1z"/>
		<path fill-rule="evenodd" clip-rule="evenodd" fill="none" stroke="#010101" stroke-width="1.4175" stroke-miterlimit="10" d="
			M298.4,69.6c4.4,0.7,6.7-4.4,11.1-3.8c0.2-2-1.3-4.7,2.1-5.4c3.6-0.7,1,3.9,3.3,4.1c2.5,0.2,5,1.4,7.6,0.6
			c1.9-0.6,3.7-1.3,5.7-0.7c1,0.3,2,0.3,2.3-1c0.6-2.9,4-3.2,4.8-4.4c2.9-3.9,7-1.6,11-3.6c-2.8-2.5-5.8-1.9-8.3-1.3
			c-2.5,0.6-4.4,0.9-5.4-2c-1-2.8,1.5-3.1,2.9-4.2c1-0.7,2.1-1.4,3.1-2.1c-0.7-2-2.6-1.6-3.3-1.2c-3.2,2-5.5,5.5-9.5,6.4
			c-0.2,0-0.4,0.9-0.3,1.3c1.5,6.2-0.9,9.6-7.1,10c-0.6,0-1.8,0.1-1.8,0c-0.8-5.8-4.2-4.8-8.3-3.6c-1.6,0.5-2.9-1.6-3.2-3.6
			c-0.2-1.5-1.3-3.5,0.7-4.3c6.7-2.6,11.6-8.2,17.7-11.4c7.7-4,16.8-5.2,25.5-2.4c6,1.9,12.1,3,19,4.7c-4.1,2.9-7.6,3.3-11.4,2.1
			c-0.5,1.6,0.4,3.5,1.1,3.2c2.4-1.3,5.1,1.9,7.2-0.8c1.8-2.4,4.2-3.2,6.9-2c1-1.6-1.4-3.9,1.4-4.7c2.5-0.7,2.6,0.9,2.6,2.7
			c0,0.1,0.8,0.3,1.1,0.2c6.7-2.4,14-1.1,20.5-2.8c6-1.5,11.2-0.6,17.2,0.9c-2.7-4.3-2-6.7,1.9-8.8c2-1.1,6,0.6,5.5,2.6
			c-0.8,3.3,2.6,7.9-4.6,9.6c3.9,1.2,5.1-0.4,6.5-1.6c1.3-1.2,2.3-3.4,4.8-1.5c0.9,0.7,2.2,0.9,3.1-0.2c0.3-0.3,0.1-1.2-0.2-1.8
			c-0.7-1.3-1.9-1.2-3-0.8c-6.3,2.4-3.3-2.2-3.6-4.9c2,1.8,2.9,3.8,5.5,0.2c2.2-3.1,5,1.7,7.8,2.2c1,0.2,1.1,3.6,2.9,1.3
			c1.1-1.4-0.8-2.4-2.1-3.2c-0.9-0.5-2.2-0.6-2.6-1.8c8-1.9,15.9-5.4,23.7-5.2c7.1,0.2,13.7-4.5,21.1-1.2c2.6,1.1,6.6-0.3,10,0.4
			c1.1,0.2,3.4,0.2,2.6,1.9c-2.3,4.7,1.5,2.9,3.1,3.1c5.8,0.7,11.6,1.8,17.5-0.2c2.7-1,5.9-0.8,6.3,3.6c0.1,1.2,1.6,2.3,2.5,1.6
			c3.4-2.5,7.2-0.2,10.7-1.3c2.2-0.7,5.3-0.3,5.3-3.7c0-3.3-3.5-1.2-4.8-2.8c2.5-2.1,7.3-2,12.4,0.2c-0.6,1.7-2.8,0.6-3.5,2
			c-0.3,0.7,0.3,0.9,0.7,1c7.4,0.6,14.1,5,21.8,4c2.8-0.3,5.5-0.2,7.8,1.7c1.4,1.1,2.9,1.1,4.6,1c4.1-0.3,8.4-1.4,12.3,1
			c0.3,0.2,0.8,0.3,0.9,0.2c3.9-4.3,8.5,0,12.7-1.1c1.5-0.4,3.9,0,4.1,1.6c0.2,2,1.7,5-0.3,6.3c-2.9,1.8,0,2.8,0,4.4
			c-4.5,0-8.6,0.9-12.5,2.9c-3.2,1.7-6.7,1-10,0.9c-3.5,0-6,0.9-6,5.1c0,4.3-4.3,5.2-6.5,7.8c-1.6,1.8-3.6,3.1-5.2,4.5
			c-3.1-8.9-0.3-14.9,9.7-17.3c-3.2,0.5-2.6-4.2-5.3-2.9c-1.9,0.9-3.6,2.2-5.3,3.4c-2.6,2-5.2,1.7-8.4,1.7
			c-6.5-0.1-13.9-2.4-19.6,3.6c-1.6,1.6-4.1,2.4-6.4,3.7c2.7,3,6.3,1.1,9.2,2.2c2.6,1,6.1,5.5,4.7,7.6c-1.3,1.8-0.5,3.7-1.2,5.8
			c-3.9-2.6-1.3-6.4-3.2-9.8c-1.2,6.3-5.6,9.8-10.1,13.2c-1.3,1-2.4,2-4.2,2c-5.7,0-8.5,4-7,9.4c0.6,2.2,0.2,4.2-2,5.5
			c-0.9,0.5-1.8,0.7-2.7,0c-0.8-0.6-0.7-1.4-0.3-2.1c1-1.9,1.3-3.5-1.6-3.6c-2.1-0.1-1-1.6-1.1-2.5c-0.2-1.1-0.4-1.9-1.8-1.5
			c-1.5,0.4-3.7,3.2-3.9-1.3c0-0.9-1.9,0.6-2.6,1.1c-1,0.8-3.3,0.7-2.8,2.7c0.3,1.3,1.6,1.9,2.9,2.2c1.2,0.2,3-1.1,3.5,0.5
			c0.6,1.8-1.5,2-2.7,2.7c-1.9,1.1-0.5,2,0.1,3c4.1,6.2,3.6,8.3-1.4,13.3c-4.1,4.1-8,7.9-14.4,7.7c-1.9-0.1-2.7,1.6-1.7,3.6
			c0.7,1.6-0.4,2.4-1.3,3.3c-0.5,0.5-1.2,0.4-1.7-0.2c-0.8-1-0.4-2.1-0.1-3.2c0.4-1.1,1.6-2.4,0-3.4c-0.9-0.6-1.8,0.4-2.5,1.1
			c-1.1,1.1-3,2-1.7,3.9c0.9,1.5,2.4,2.6,3.5,4c1.8,2.2,3.3,4.3,2.3,7.5c-1.1,3.4-4.7,3.6-6.9,5.6c-1.1,1-2.1-1-2.9-1.9
			c-1.7-1.9-2.8-4.4-5.8-5.4c-1.4,0.9-0.7,3.3-2.4,4.2c-1.9-1.3-1.9-3.3-2.1-5.2c-0.6-6.4-0.6-6.4-5.6-2.9c-1.4-1.1-0.7-2.7-1-4
			c-0.6-3.4-3.6-5.3-5.1-8.1c-3,1.7-7,0.4-9.6,3.3c-2.2,2.5-4.5,5.1-7.7,6.6c-1.9,0.9-2.2,2.6-2.2,4.5c0,4.4-1.8,8.1-4.7,12.4
			c-2.3-8.6-9.3-14.4-8.8-23.2c0-0.5-0.2-0.9-0.3-1.4c-6.2,1.7-5.2-6.4-9.7-7.3c-1.4-0.3-2.3-0.1-3.5,0.1c-4.4,0.7-9,1.9-12.6-2.1
			c-0.6-0.6-1.3-1.3-2.1-1c-4.9,2-7.4-1.4-10.2-4.3c-0.9-0.9-1.4-2.4-3-1c-1.3,1.2-0.6,2.3,0.3,3.4c1.3,1.6,2.7,3.2,3.9,4.9
			c1.8,2.6,3.5,3.2,6.1,1c3.3-2.8,5.1,1.2,7.3,2.3c2.7,1.3,0.5,3.2-0.3,4.8c-2,4-5.2,6.4-9.4,7.9c-4.4,1.6-8.7,3.5-13.1,5.1
			c-3.1,1.2-4.9,0.2-5.5-3.2c-1.7-8.4-9.1-13.9-11.6-21.9c-0.4-1.3-1.7-1.5-2.8-1c-1.3,0.6-0.5,1.6-0.1,2.5
			c4.3,7.7,8.3,15.6,12.8,23.1c4.2,7,7.5,5.2,12.4,3.3c1.1-0.4,2.5-1.3,3.6-0.1c0.9,1,0.1,2.2-0.3,3.2c-2.6,5.3-4.6,10.8-10.3,14.1
			c-4.3,2.4-6.9,6.8-9.7,10.7c-1.6,2.1-0.3,5.1,0.7,7.5c3.4,7.8,2.4,11.8-4.7,16.5c-2.5,1.7-4.2,3.6-2.7,6.9c0.5,1,1,2.6,0.2,3.2
			c-5.2,4.1-6.8,11.1-12.4,15.1c-4.8,3.4-10.2,2.2-15.3,3.4c-1.2,0.3-2.1-1.2-2.6-2.5c-3.5-8.7-5.7-17.8-10.2-26.1
			c-1.4-2.5-1.9-5.7,0-7.9c4.7-5.2,0.8-9.7-0.5-14.4c-0.2-0.7-0.7-1.5-1.3-2c-4-3.7-4.7-7.6-2.2-12.8c1.2-2.5-1.3-4-3.6-2.8
			c-2.6,1.3-3.8,0.5-5-1.7c-1.3-2.2-3.3-2.6-5.4-1.4c-3.8,2.2-8.3,1.3-12.1,2.5c-8,2.5-11.1-2.4-14.7-7.4c-0.9-1.2-1.9-2.2-3.2-2.9
			c-3.9-2.1-4-5.7-2.3-8.9c1.4-2.7,1.8-4.9,0.8-7.8c-1.2-3.5,2.6-10.6,6.9-13.3c2.3-1.4,4-2.7,4.4-5.7c0.4-3.6,3.9-5.8,6.8-6.1
			c8.1-1,15.6-5.3,24.1-4.6c3.7,0.3,6.2,0.4,4,4.9c-0.6,1.3,0.4,1.7,1.2,2.1c3.7,1.6,7.3,3.3,11,4.8c1.1,0.5,2.4,0.4,3.2-0.4
			c5-5.2,10.7-2,15.6-0.6c6.7,1.8,12.3-0.2,13.1-6.1c0.3-2.4-0.3-3.6-2.8-2.6c-2.6,1-5.2,0.2-7.7-0.1c-2.9-0.3-6.2-1.3-6.1-5.5
			c0-1.3-0.3-3-2.1-2.1c-1.1,0.5-3.8,0.7-1.8,3.2c1.7,2.2-0.4,2.7-1.6,3.6c-2.1,1.5-2.7-0.2-3.5-1.7c-3.1-6.2-8.1-10.5-15.4-14
			c1.6,3.8,3.6,5.8,6.1,6.8c3.6,1.4,3.5,3.2,1.3,6.1c-1.2-3-3.6-4.4-6.5-5.1c-1.6-0.4-3-1.3-3.9-2.7c-0.6-1-1.3-1.9-2.6-2
			c-5.1-0.4-13.7,4.7-16.3,9.4c-2.7,4.7-12.3,5.6-15.7,1.1c-1.8-2.4,0.2-5.7,0.4-8.6c0.2-2,2.9-1.3,4.6-1.3c1.5,0,2.9,0.1,4.4,0.2
			c2.1,0.2,3.9,0,4.4-2.6c0.5-2.4-0.7-3.6-2.8-4.4c-0.6-0.2-1.2-0.5-2.4-1.1c2.5-1.5,4.8-2.2,7.3-2.4c2.4-0.2,3.4-1.4,3.6-3.7
			L298.4,69.6z M383,87.9c-0.9,2.7-6.4,2.9-2.5,6.3c1.7,1.5,4.4,1.9,6.9,1.6c1.8-0.2,2.8-1.2,2.1-2.9c-1.2-2.8-0.7-6.2-3.6-8.3
			c-0.9-0.7-3-1.4-2-3.3c0.8-1.5,2.3-0.6,3.5-0.5c0.9,0.1,2.1,0.3,2.5-0.7c0.5-1.1-0.6-1.8-1.2-2.4c-1.9-1.8-11.4,0.1-12.5,2.3
			c-0.6,1.2-0.1,2.2,0.5,3.2C378.1,85.5,380,87.3,383,87.9z M362.7,88.4c2-0.8,4.4,0.2,5-1.9c0.5-1.9-1.7-2.4-3-3.3
			c-1.4-1-4-1.7-4.3-2.9c-0.6-3.3-1.6-2.5-3-0.8c-2,2.5-3.6,3-5.5-0.1c-1.3-2.1-3.1-1.8-4.2,0.1c-1.4,2.6-5.7,4.1-3.4,8.1
			c0.4,0.7,1.1,0.4,1.7,0.3C351.7,87.2,357.4,85.2,362.7,88.4z"/>
	</g>
</g>
</svg>