<svg version="1.0" id="Layer_1" xmlns="http://www.w3.org/2000/svg" xmlns:xlink="http://www.w3.org/1999/xlink" x="0px" y="0px"
	 width="100%" height="100%" viewBox="0 0 100 100" enable-background="new 0 0 100 100" xml:space="preserve">
<g>
	<path fill="#CCCCCC" d="M99,20.6C99,14.416,93.986,9.4,87.801,9.4h-75.6C6.016,9.4,1,14.416,1,20.6V79.4
		C1,85.586,6.016,90.6,12.201,90.6h75.6C93.986,90.6,99,85.586,99,79.4V20.6z"/>
	<path fill="#FFFFFF" d="M96.201,79.389c0,4.646-3.766,8.412-8.408,8.412H12.209c-4.643,0-8.408-3.766-8.408-8.412V20.609
		c0-4.645,3.766-8.408,8.408-8.408h75.584c4.643,0,8.408,3.764,8.408,8.408V79.389z"/>
	<linearGradient id="SVGID_1_" gradientUnits="userSpaceOnUse" x1="50.0005" y1="12.2012" x2="50.0005" y2="87.8013">
		<stop  offset="0" style="stop-color:#FFFFFF;stop-opacity:0"/>
		<stop  offset="0.9884" style="stop-color:#EFEEEE"/>
	</linearGradient>
	<path fill="url(#SVGID_1_)" d="M96.201,79.389c0,4.646-3.766,8.412-8.408,8.412H12.209c-4.643,0-8.408-3.766-8.408-8.412V20.609
		c0-4.645,3.766-8.408,8.408-8.408h75.584c4.643,0,8.408,3.764,8.408,8.408V79.389z"/>
</g>
<g>
	<polygon fill="#EE272B" points="70.365,75.036 49.998,54.671 29.635,75.036 29.635,20.964 70.365,20.964 	"/>
	<radialGradient id="SVGID_2_" cx="50" cy="48" r="23.9342" gradientUnits="userSpaceOnUse">
		<stop  offset="0" style="stop-color:#010101;stop-opacity:0.25"/>
		<stop  offset="1" style="stop-color:#010101;stop-opacity:0.35"/>
	</radialGradient>
	<polygon fill="url(#SVGID_2_)" points="70.365,75.036 49.998,54.671 29.635,75.036 29.635,20.964 70.365,20.964 	"/>
</g>
<g>
	<rect x="38.488" y="36.561" fill-rule="evenodd" clip-rule="evenodd" fill="#FFFFFF" width="23.023" height="2.879"/>
</g>
<g>
	<g>
		<g>
			<path fill-rule="evenodd" clip-rule="evenodd" fill="#700F10" d="M70.146,18.341H29.85c-1.582,0-2.873,1.287-2.873,2.881v60.438
				L50,58.634l23.023,23.025V21.222C73.023,19.628,71.738,18.341,70.146,18.341z M70.146,74.708L50,54.563L29.85,74.708V21.222
				h40.297V74.708z"/>
		</g>
	</g>
</g>
</svg>