<svg version="1.0" id="Layer_1" xmlns="http://www.w3.org/2000/svg" xmlns:xlink="http://www.w3.org/1999/xlink" x="0px" y="0px"
	 width="100%" height="100%" viewBox="0 0 100 100" enable-background="new 0 0 100 100" xml:space="preserve">
<g id="icon_183_1_">
	<path fill-rule="evenodd" clip-rule="evenodd" fill="#989898" d="M62.813,3.137c-19.125,0-34.634,15.498-34.634,34.625
		c0,8.732,3.265,16.689,8.597,22.78L3.292,94.021l3.248,3.248L40.025,63.79c6.091,5.339,14.045,8.598,22.789,8.598
		c19.116,0,34.614-15.498,34.614-34.625S81.93,3.137,62.813,3.137z M62.813,68.061c-16.731,0-30.307-13.564-30.307-30.298
		c0-16.739,13.576-30.298,30.307-30.298c16.723,0,30.287,13.559,30.287,30.298C93.101,54.496,79.536,68.061,62.813,68.061z"/>
</g>
</svg>