<svg version="1.0" id="Layer_1" xmlns="http://www.w3.org/2000/svg" xmlns:xlink="http://www.w3.org/1999/xlink" x="0px" y="0px"
	 width="100%" height="100%" viewBox="0 0 100 100" enable-background="new 0 0 100 100" xml:space="preserve">
<g>
	<g>
		<path fill-rule="evenodd" clip-rule="evenodd" fill="#252525" d="M15.576,3.986v90.367l34.422-34.426l34.426,34.426V3.986
			C84.424,1.611,15.576,1.611,15.576,3.986z"/>
		<polygon fill-rule="evenodd" clip-rule="evenodd" fill="#161616" points="80.053,85.342 49.42,54.713 18.795,85.342 18.795,4.018 
			80.053,4.018 		"/>
	</g>
	<g id="icon_277_3_">
		<g>
			<g>
				<path fill="#FFFFFF" d="M47.814,50.002h4.379V34.686h15.309v-4.375H52.193V14.998h-4.379v15.312H32.506v4.375h15.309V50.002z
					 M80.635,1.869H19.373c-2.414,0-4.375,1.961-4.375,4.379v91.883l35.004-35.004l35,35.004V6.248
					C85.002,3.83,83.049,1.869,80.635,1.869z M80.635,87.568L50.002,56.936L19.373,87.568V6.248h61.262V87.568z"/>
			</g>
		</g>
	</g>
</g>
</svg>