<svg version="1.0" id="Layer_1" xmlns="http://www.w3.org/2000/svg" xmlns:xlink="http://www.w3.org/1999/xlink" x="0px" y="0px"
	 width="100%" height="100%" viewBox="0 0 25 25" enable-background="new 0 0 25 25" xml:space="preserve">
<g>
	<path fill="#B3B3B3" d="M12.577,0.351C5.862,0.315,0.392,5.722,0.351,12.43c-0.043,6.708,5.364,12.179,12.072,12.218
		c6.715,0.039,12.188-5.373,12.227-12.08C24.692,5.862,19.284,0.386,12.577,0.351 M12.651,16.754c-2.265,0-4.1-1.836-4.1-4.1
		c0-2.266,1.835-4.103,4.1-4.103c2.268,0,4.102,1.837,4.102,4.103C16.753,14.918,14.919,16.754,12.651,16.754"/>
	<path fill="#898989" d="M12.675,8.554c-2.277,0-4.121,1.844-4.121,4.121c0,2.273,1.844,4.118,4.121,4.118
		c2.275,0,4.117-1.845,4.117-4.118C16.792,10.398,14.95,8.554,12.675,8.554 M12.675,17.479c-2.658,0-4.807-2.155-4.807-4.804
		c0-2.654,2.149-4.806,4.807-4.806c2.654,0,4.801,2.151,4.801,4.806C17.476,15.323,15.329,17.479,12.675,17.479"/>
</g>
</svg>