<svg xmlns="http://www.w3.org/2000/svg" xmlns:xlink="http://www.w3.org/1999/xlink" version="1.1" id="Layer_1" x="0px" y="0px" width="100%" height="100%" viewBox="0 0 41 41" enable-background="new 0 0 41 41" xml:space="preserve" xmlns:xml="http://www.w3.org/XML/1998/namespace"><g><path fill="#828282" d="M4.894,18.619c0-1.003,0-2.009,0-3.019c0.018-0.098,0.048-0.195,0.061-0.295c0.097-0.791,0.15-1.588,0.293-2.37c0.512-2.828,1.592-5.409,3.521-7.581c2.386-2.682,5.42-4.129,8.938-4.632c0.549-0.083,1.103-0.142,1.654-0.206c0.665,0,1.329,0,1.989,0c0.098,0.016,0.201,0.039,0.3,0.05c1.017,0.142,2.056,0.204,3.044,0.442c5.029,1.221,8.509,4.248,10.292,9.125c0.981,2.65,1.223,5.406,1.082,8.216c-0.105,2.142-0.433,4.237-0.985,6.306c-0.985,3.717-2.521,7.182-4.881,10.254c-1.531,2.002-3.328,3.703-5.64,4.785c-1.876,0.877-3.835,1.195-5.89,0.768c-2.111-0.438-3.877-1.504-5.454-2.92c-2.65-2.379-4.475-5.336-5.85-8.582c-1.256-2.975-2.072-6.074-2.354-9.297C4.986,19.316,4.934,18.969,4.894,18.619z M29.661,18.45c0.017-1.892-1.463-3.592-3.657-3.621c-2.026-0.028-3.634,1.612-3.642,3.633c-0.008,2.019,1.619,3.659,3.613,3.661C28.021,22.129,29.661,20.492,29.661,18.45z M11.36,18.456c-0.058,1.867,1.488,3.665,3.588,3.665c2.019,0,3.659-1.621,3.665-3.641c0.008-2.039-1.604-3.621-3.647-3.64C12.913,14.827,11.279,16.637,11.36,18.456z M23.207,34.086c0-0.379-0.376-0.723-0.782-0.719c-0.389,0.008-0.673,0.311-0.673,0.707c-0.002,0.422,0.326,0.785,0.709,0.766C22.862,34.836,23.207,34.482,23.207,34.086zM22.439,30.195c-0.372,0-0.681,0.316-0.687,0.701c-0.008,0.426,0.32,0.793,0.707,0.785c0.387-0.002,0.739-0.359,0.75-0.752C23.207,30.555,22.831,30.189,22.439,30.195z M21.747,27.752c0,0.398,0.323,0.756,0.692,0.76c0.395,0.01,0.759-0.346,0.768-0.744c0.003-0.383-0.373-0.742-0.776-0.738C22.056,27.037,21.747,27.359,21.747,27.752z M17.823,31.66c0.407,0.02,0.76-0.314,0.77-0.721c0.005-0.373-0.325-0.715-0.722-0.742c-0.352-0.021-0.704,0.316-0.715,0.689C17.143,31.289,17.447,31.646,17.823,31.66zM17.87,34.818c0.419-0.004,0.732-0.34,0.722-0.762c-0.02-0.367-0.396-0.705-0.77-0.689c-0.368,0.021-0.673,0.348-0.667,0.73C17.16,34.508,17.48,34.824,17.87,34.818z M17.85,27.051c-0.385-0.004-0.69,0.301-0.695,0.689c-0.006,0.398,0.325,0.764,0.687,0.768c0.392,0.008,0.752-0.348,0.752-0.75C18.594,27.379,18.255,27.059,17.85,27.051zM21.772,24.652c0,0.404,0.321,0.762,0.691,0.766c0.395,0.008,0.759-0.352,0.767-0.75c0.003-0.379-0.372-0.742-0.775-0.738C22.078,23.943,21.772,24.264,21.772,24.652z M17.875,23.955c-0.386-0.006-0.692,0.297-0.698,0.689c-0.005,0.395,0.326,0.76,0.689,0.768c0.389,0.01,0.751-0.352,0.751-0.758C18.618,24.285,18.28,23.961,17.875,23.955z" /></g></svg>