<svg version="1.0" id="Layer_1" xmlns="http://www.w3.org/2000/svg" xmlns:xlink="http://www.w3.org/1999/xlink" x="0px" y="0px"
	 width="100%" height="100%" viewBox="0 0 100 100" enable-background="new 0 0 100 100" xml:space="preserve">
<g>
	<g>
		<path fill="#333333" d="M32.618,82.789c-0.867-1.815-1.336-2.789-1.409-2.919c-0.048-0.12-0.097-0.197-0.145-0.231l-1.488,2.955
			l-0.166,0.231l-0.788-0.021c-0.029-0.241-0.208-1.951-0.538-5.13s-0.519-5.185-0.567-6.018l1.293-0.058l0.636,9.037
			c0.838-1.714,1.271-2.61,1.3-2.688l0.029-0.036l-0.014,0.015c0.058-0.019,0.188-0.028,0.39-0.028c0.048,0,0.621,0.922,1.719,2.767
			l0.563-9.023l1.141-0.021c-0.053,0.93-0.201,2.972-0.444,6.126c-0.243,3.155-0.427,4.841-0.552,5.058L32.618,82.789z"/>
		<path fill="#333333" d="M39.134,72.61l0.499,2.297l0.303,1.351l0.845,3.916l0.527,2.594l-1.047-0.015l-0.621-3.07l-2.521,0.101
			l-0.636,2.962l-0.896,0.008l0.354-2.153l1.871-9.008l1.127,0.137L39.134,72.61z M39.329,78.584l-0.975-4.753l-0.585,2.571
			l-0.477,2.146L39.329,78.584z"/>
		<path fill="#333333" d="M46.387,72.581l-2.138,0.051l0.007,5.057l-0.043,5.086c-0.424,0.024-0.78,0.029-1.069,0.015
			c-0.034-0.732-0.065-2.418-0.094-5.057c-0.029-2.64-0.027-4.342,0.007-5.108h-0.455c-0.453,0.015-0.985,0.018-1.596,0.008
			l-0.036-1.033c0.458,0.015,1.095,0.02,1.914,0.015s1.997-0.008,3.533-0.008L46.387,72.581z"/>
		<path fill="#333333" d="M52.361,72.849c-0.447-0.14-0.914-0.243-1.401-0.311c-0.9-0.058-1.556,0.498-1.965,1.669
			c-0.168,0.549-0.32,1.288-0.455,2.218c-0.01,2.2,0.265,3.838,0.824,4.912c0.375,0.361,0.775,0.488,1.199,0.383
			c0.409-0.077,0.818-0.315,1.228-0.715c0.385-0.41,0.6-0.593,0.643-0.55c0.053,0.059,0.195,0.225,0.428,0.499
			c0,0.164-0.152,0.419-0.457,0.766c-0.188,0.255-0.465,0.503-0.83,0.744c-0.404,0.265-0.867,0.368-1.387,0.311
			c-0.573-0.01-1.088-0.258-1.546-0.744c-0.458-0.563-0.773-1.418-0.946-2.564c-0.149-0.978-0.229-1.63-0.238-1.958
			c-0.02-2.042,0.354-3.609,1.12-4.703c0.294-0.419,0.628-0.736,1.004-0.953c0.322-0.178,0.628-0.263,0.917-0.253
			c0.978,0.053,1.674,0.265,2.088,0.636C52.557,72.461,52.482,72.665,52.361,72.849z"/>
		<path fill="#333333" d="M59.217,71.613c0.115,0.202,0.146,1.912,0.094,5.129c-0.057,3.154-0.145,5.165-0.26,6.032
			c-0.25,0.029-0.578,0.005-0.982-0.072l0.043-4.248c-0.244-0.023-0.736-0.05-1.473-0.079c-0.746,0.029-1.24,0.056-1.48,0.079
			l-0.145,4.233c-0.285,0.087-0.553,0.116-0.803,0.087c-0.115-0.867-0.199-2.878-0.252-6.032c-0.059-3.217-0.027-4.927,0.094-5.129
			h1.178l-0.182,5.743l1.59,0.043l1.582-0.043l0.029-5.743H59.217z"/>
		<path fill="#333333" d="M65.256,78.845l0.066,3.908c-0.42,0.077-0.812,0.101-1.178,0.072c0.01-0.867,0.014-2.883,0.014-6.047
			c-0.059-3.222-0.061-4.937-0.008-5.144h1.084L65.256,78.845z"/>
		<path fill="#333333" d="M71.752,72.581l-2.139,0.051l0.008,5.057l-0.045,5.086c-0.424,0.024-0.779,0.029-1.068,0.015
			c-0.033-0.732-0.064-2.418-0.094-5.057c-0.029-2.64-0.027-4.342,0.008-5.108h-0.455c-0.453,0.015-0.986,0.018-1.598,0.008
			l-0.035-1.033c0.457,0.015,1.096,0.02,1.914,0.015s1.996-0.008,3.533-0.008L71.752,72.581z"/>
		<path fill="#333333" d="M30.018,88.462l0.499,2.297l0.303,1.351l0.845,3.916l0.527,2.594l-1.047-0.015l-0.621-3.07l-2.521,0.101
			l-0.636,2.962l-0.896,0.008l0.354-2.153l1.871-9.008l1.127,0.137L30.018,88.462z M30.212,94.436l-0.975-4.753l-0.585,2.571
			l-0.477,2.146L30.212,94.436z"/>
		<path fill="#333333" d="M39.265,97.622c0.004,0.371-0.017,0.682-0.065,0.932c-0.102,0.043-0.34,0.084-0.715,0.123
			c-0.906-2.019-2.199-5.232-3.879-9.645l-0.051,4.276l-0.202,5.267c-0.274,0.067-0.535,0.087-0.78,0.058
			c-0.111-0.866-0.2-2.814-0.267-5.844c-0.067-3.097-0.048-4.881,0.058-5.354c0.453,0.024,0.968,0.039,1.546,0.044
			c0.25,0.491,1.341,3.02,3.272,7.585c0.02-4.807-0.002-7.34-0.065-7.6h1.156L39.265,97.622z"/>
		<path fill="#333333" d="M44.292,98.662c-0.207-0.015-0.595-0.02-1.163-0.015l-0.058-5.31l-0.325-0.729l-2.463-4.862
			c0.255-0.11,0.57-0.214,0.946-0.311l2.557,4.436l2.146-4.406l1.178,0.007c-0.511,1.214-1.43,3.119-2.76,5.715L44.292,98.662z"/>
		<path fill="#333333" d="M57.209,88.433l-2.139,0.051l0.008,5.057l-0.043,5.086c-0.424,0.024-0.781,0.029-1.07,0.015
			c-0.033-0.732-0.064-2.418-0.094-5.057c-0.027-2.64-0.025-4.342,0.008-5.108h-0.455c-0.453,0.015-0.984,0.018-1.596,0.008
			l-0.037-1.033c0.458,0.015,1.096,0.02,1.914,0.015c0.82-0.005,1.996-0.008,3.533-0.008L57.209,88.433z"/>
		<path fill="#333333" d="M59.434,94.696l0.066,3.908c-0.42,0.077-0.812,0.101-1.178,0.072c0.01-0.867,0.014-2.883,0.014-6.047
			c-0.059-3.222-0.061-4.937-0.008-5.144h1.084L59.434,94.696z"/>
		<path fill="#333333" d="M66.645,87.465c0.062,0.207,0.111,1.901,0.148,5.082c0.035,3.181,0,5.205-0.105,6.072l-1.047-0.008v-3.908
			l-0.066-5.086l-1.668,2.428c-0.066,0.11-0.125,0.166-0.174,0.166c-0.027,0-0.082,0.015-0.158,0.043
			c-0.062,0.024-0.104,0.027-0.123,0.008l-0.014-0.021c-0.016-0.02-0.025-0.039-0.029-0.059l-1.598-2.499L61.5,98.611
			c-0.326,0.044-0.617,0.044-0.873,0c-0.078-0.866-0.064-2.875,0.035-6.024c0.039-3.213,0.062-4.915,0.072-5.107l1.178-0.036
			l0.217,0.23l1.453,2.804l0.086,0.072l1.879-3.07L66.645,87.465z"/>
		<path fill="#333333" d="M72.496,88.382c-1.479,0.01-2.602,0.003-3.367-0.021c-0.066,1.099-0.066,2.681,0,4.746h2.738
			c0.076,0.246,0.105,0.535,0.086,0.867c-0.057,0.015-0.447,0.043-1.17,0.087c-0.795,0.053-1.311,0.089-1.545,0.108
			c-0.006,0.39-0.01,0.887-0.016,1.491c-0.004,0.604,0.002,1.198,0.021,1.781c0.949-0.015,2.113-0.005,3.49,0.028
			c0.039,0.126,0.062,0.297,0.072,0.514s0.016,0.431,0.021,0.643c-2.076-0.005-3.656-0.024-4.738-0.058
			c-0.111-0.819-0.178-2.806-0.195-5.96c-0.025-3.193,0.006-4.917,0.094-5.173c2.662,0.01,4.213,0.029,4.652,0.058
			C72.678,87.816,72.631,88.112,72.496,88.382z"/>
	</g>
	<path fill="none" stroke="#CCCCCC" stroke-miterlimit="10" d="M76.693,28.096c0,14.741-11.951,26.686-26.694,26.686
		c-14.742,0-26.693-11.944-26.693-26.686C23.306,13.352,35.257,1.401,50,1.401C64.742,1.401,76.693,13.352,76.693,28.096z"/>
	<g>
		<g>
			<polygon fill="#CCCCCC" points="42.252,15.292 42.252,39.326 66.287,27.309 			"/>
		</g>
	</g>
</g>
</svg>