<svg version="1.0" id="Layer_1" xmlns="http://www.w3.org/2000/svg" xmlns:xlink="http://www.w3.org/1999/xlink" x="0px" y="0px"
	 width="100%" height="100%" viewBox="0 0 25 25" enable-background="new 0 0 25 25" xml:space="preserve">
<g opacity="0.35">
	<g>
		<defs>
			<rect id="SVGID_1_" x="0.351" y="0.351" width="24.299" height="24.299"/>
		</defs>
		<clipPath id="SVGID_2_">
			<use xlink:href="#SVGID_1_"  overflow="visible"/>
		</clipPath>
		<path clip-path="url(#SVGID_2_)" fill="#B3B3B3" d="M12.577,0.351C5.862,0.314,0.39,5.722,0.351,12.43
			C0.308,19.139,5.715,24.61,12.423,24.648c6.713,0.039,12.188-5.372,12.227-12.079C24.692,5.862,19.282,0.386,12.577,0.351
			 M12.651,16.754c-2.264,0-4.102-1.835-4.102-4.1c0-2.267,1.838-4.104,4.102-4.104c2.266,0,4.1,1.837,4.1,4.104
			C16.751,14.919,14.917,16.754,12.651,16.754"/>
		<path clip-path="url(#SVGID_2_)" fill="#898989" d="M12.673,8.554c-2.275,0-4.119,1.845-4.119,4.121
			c0,2.274,1.844,4.118,4.119,4.118c2.277,0,4.119-1.844,4.119-4.118C16.792,10.398,14.95,8.554,12.673,8.554 M12.673,17.479
			c-2.656,0-4.805-2.154-4.805-4.805c0-2.654,2.148-4.805,4.805-4.805c2.654,0,4.803,2.15,4.803,4.805
			C17.476,15.324,15.327,17.479,12.673,17.479"/>
	</g>
</g>
<g>
	<path fill="#666666" d="M0.28,13.651V8.442c0-0.254,0.112-0.381,0.337-0.381c0.004,0,0.008,0,0.012,0h0.604
		c0.12,0,0.201,0.036,0.244,0.108C1.519,8.242,1.54,8.329,1.54,8.431v5.186c0,0.184,0.038,0.359,0.114,0.527s0.182,0.32,0.314,0.457
		s0.293,0.245,0.481,0.325c0.188,0.08,0.395,0.12,0.622,0.12c0.215,0,0.415-0.042,0.599-0.126c0.185-0.084,0.343-0.194,0.476-0.331
		s0.238-0.291,0.314-0.463s0.114-0.342,0.114-0.51V8.442c0-0.254,0.111-0.381,0.334-0.381c0.004,0,0.008,0,0.012,0h0.598
		c0.121,0,0.204,0.036,0.249,0.108s0.067,0.159,0.067,0.261v5.221c0,0.352-0.07,0.684-0.211,0.996s-0.334,0.589-0.578,0.829
		s-0.539,0.431-0.883,0.571s-0.722,0.211-1.132,0.211c-0.397,0-0.764-0.072-1.099-0.217c-0.334-0.145-0.623-0.337-0.867-0.577
		c-0.243-0.24-0.435-0.517-0.575-0.829C0.351,14.323,0.28,13.995,0.28,13.651z"/>
	<path fill="#666666" d="M7.017,15.058c-0.035-0.062-0.053-0.123-0.053-0.182c0-0.09,0.045-0.166,0.135-0.229l0.621-0.404
		c0.062-0.043,0.121-0.064,0.176-0.064c0.09,0,0.168,0.057,0.235,0.17c0.105,0.16,0.242,0.304,0.41,0.431s0.399,0.19,0.696,0.19
		c0.151,0,0.297-0.023,0.435-0.07c0.139-0.047,0.259-0.114,0.362-0.202s0.187-0.194,0.251-0.32c0.064-0.125,0.097-0.268,0.097-0.428
		c0-0.184-0.034-0.343-0.103-0.478c-0.067-0.136-0.155-0.256-0.263-0.361s-0.227-0.193-0.359-0.264
		c-0.132-0.07-0.261-0.135-0.386-0.193c-0.343-0.153-0.65-0.312-0.925-0.476s-0.508-0.344-0.699-0.539
		c-0.192-0.196-0.338-0.414-0.438-0.654c-0.1-0.24-0.149-0.514-0.149-0.818c0-0.319,0.062-0.619,0.185-0.897s0.295-0.52,0.517-0.722
		c0.221-0.203,0.481-0.365,0.783-0.485C8.845,7.94,9.167,7.88,9.512,7.88c0.222,0,0.441,0.03,0.658,0.091
		c0.216,0.061,0.414,0.145,0.594,0.252s0.337,0.233,0.471,0.378c0.135,0.145,0.239,0.301,0.313,0.469
		c0.039,0.078,0.049,0.159,0.029,0.243s-0.062,0.147-0.129,0.19L10.804,9.86c-0.059,0.035-0.113,0.053-0.164,0.053
		c-0.09,0-0.164-0.057-0.223-0.171c-0.09-0.162-0.212-0.298-0.365-0.408c-0.154-0.11-0.367-0.165-0.64-0.165
		c-0.28,0-0.514,0.095-0.701,0.284c-0.187,0.19-0.28,0.424-0.28,0.701c0,0.281,0.084,0.511,0.251,0.687
		c0.168,0.176,0.419,0.328,0.754,0.457c0.257,0.098,0.522,0.218,0.798,0.361c0.275,0.143,0.525,0.316,0.75,0.521
		c0.224,0.205,0.408,0.448,0.553,0.728s0.217,0.611,0.217,0.994c0,0.375-0.076,0.707-0.229,0.996
		c-0.152,0.29-0.348,0.536-0.588,0.739s-0.51,0.357-0.811,0.463c-0.3,0.105-0.597,0.158-0.889,0.158
		c-0.512,0-0.968-0.114-1.368-0.343S7.185,15.401,7.017,15.058z"/>
	<path fill="#666666" d="M13.077,15.714V8.431c0-0.105,0.036-0.193,0.108-0.264s0.161-0.105,0.267-0.105h4.225
		c0.09,0,0.17,0.03,0.24,0.091s0.105,0.146,0.105,0.255v0.539c0,0.113-0.032,0.204-0.097,0.272
		c-0.065,0.068-0.145,0.103-0.238,0.103h-3.01c-0.113,0-0.199,0.04-0.256,0.12s-0.085,0.159-0.085,0.237v1.26
		c0,0.105,0.036,0.194,0.108,0.267c0.073,0.072,0.158,0.108,0.256,0.108h2.564c0.098,0,0.178,0.034,0.241,0.103
		c0.062,0.068,0.094,0.157,0.094,0.267v0.527c0,0.113-0.037,0.202-0.111,0.267c-0.075,0.064-0.153,0.097-0.235,0.097h-2.541
		c-0.105,0-0.194,0.038-0.268,0.114c-0.072,0.076-0.108,0.165-0.108,0.267v1.453c0,0.137,0.03,0.243,0.091,0.319
		s0.145,0.114,0.25,0.114h3.01c0.098,0,0.178,0.034,0.241,0.103c0.062,0.068,0.094,0.157,0.094,0.267v0.533
		c0,0.113-0.036,0.201-0.108,0.264s-0.151,0.094-0.237,0.094h-4.283c-0.121,0-0.204-0.036-0.249-0.108S13.077,15.827,13.077,15.714z
		"/>
	<path fill="#666666" d="M19.376,15.714V8.431c0-0.105,0.036-0.193,0.108-0.264c0.071-0.07,0.16-0.105,0.266-0.105h2.365
		c0.366,0,0.716,0.076,1.049,0.229c0.332,0.152,0.624,0.353,0.876,0.601c0.251,0.248,0.447,0.531,0.59,0.85
		c0.142,0.318,0.213,0.651,0.213,0.999v2.76c0,0.352-0.076,0.683-0.228,0.993c-0.152,0.311-0.355,0.586-0.61,0.826
		s-0.552,0.431-0.891,0.571s-0.695,0.211-1.069,0.211h-2.354c-0.121,0-0.203-0.036-0.248-0.108S19.376,15.827,19.376,15.714z
		 M20.636,14.407c0,0.137,0.03,0.243,0.091,0.319s0.144,0.114,0.25,0.114h1.104c0.199,0,0.391-0.042,0.572-0.126
		c0.183-0.084,0.343-0.194,0.481-0.331s0.249-0.291,0.329-0.463s0.12-0.342,0.12-0.51v-2.578c0-0.176-0.038-0.354-0.114-0.533
		s-0.179-0.342-0.306-0.486s-0.28-0.263-0.461-0.354c-0.18-0.092-0.372-0.138-0.575-0.138h-1.15c-0.114,0-0.199,0.04-0.256,0.12
		s-0.085,0.159-0.085,0.237V14.407z"/>
</g>
</svg>