<svg xmlns="http://www.w3.org/2000/svg" xmlns:xlink="http://www.w3.org/1999/xlink" version="1.0" id="Layer_1" x="0px" y="0px" width="100%" height="100%" viewBox="0 0 41 41" enable-background="new 0 0 41 41" xml:space="preserve" xmlns:xml="http://www.w3.org/XML/1998/namespace"><g><path fill="#828282" d="M40.889,39.271c0-1.697,0-3.396-0.852-4.246l-7.648-6.797V1.892l-2.545-1.696l-5.948,18.688l-6.798-5.098V6.139l-2.547-2.548l-1.7,5.098h-2.547c-0.915,0.058-1.702,0.851-1.702,1.699v2.551l-5.097,1.699l2.547,2.547h7.649L18.8,23.98L0.11,29.928l1.699,2.549h26.335l6.795,7.646c0.852,0.85,2.551,0.85,4.248,0.85C40.037,40.973,40.889,40.123,40.889,39.271zM36.16,38.939l-6.752-7.592c-0.318-0.367-0.783-0.57-1.271-0.57H3.042L19.312,25.6c0.524-0.166,0.933-0.578,1.101-1.1c0.056-0.17,0.084-0.348,0.084-0.521c0-0.365-0.116-0.721-0.339-1.018l-5.099-6.795c-0.318-0.43-0.822-0.682-1.36-0.682H6.761l-0.108-0.108l2.49-0.826c0.692-0.234,1.159-0.88,1.159-1.612v-2.483c0.028-0.029,0.066-0.056,0.093-0.068h2.457c0.734,0,1.383-0.47,1.612-1.161l0.827-2.489l0.106,0.108v6.941c0,0.537,0.254,1.037,0.679,1.359l6.799,5.098c0.438,0.332,1.013,0.426,1.539,0.256c0.521-0.168,0.934-0.579,1.102-1.103l5.172-16.27v25.101c0,0.48,0.209,0.943,0.574,1.268l7.592,6.752c0.322,0.387,0.332,1.957,0.332,2.955c-0.018,0.029-0.047,0.057-0.074,0.076C38.121,39.271,36.547,39.266,36.16,38.939z" /></g></svg>