<svg version="1.0" id="Layer_1" xmlns="http://www.w3.org/2000/svg" xmlns:xlink="http://www.w3.org/1999/xlink" x="0px" y="0px"
	 width="100%" height="100%" viewBox="0 0 100 100" enable-background="new 0 0 100 100" xml:space="preserve">
<g>
	<g>
		<rect x="1.867" y="1.161" fill="#F2F2F2" width="63.292" height="88.708"/>
		<rect x="1.867" y="1.161" fill="none" stroke="#D2D3D4" stroke-miterlimit="10" width="63.292" height="88.708"/>
	</g>
	<g>
		<g>
			<path fill="#F2F2F2" d="M80.551,75.531H65.355l-4.56-15.196l-4.56,15.196H41.041l12.158,8.358l-4.56,14.436l12.157-7.598
				l12.157,7.598l-4.56-14.436L80.551,75.531z"/>
		</g>
		<g>
			<path fill="none" stroke="#D2D3D4" stroke-miterlimit="10" d="M80.551,75.531H65.355l-4.56-15.196l-4.56,15.196H41.041
				l12.158,8.358l-4.56,14.436l12.157-7.598l12.157,7.598l-4.56-14.436L80.551,75.531z"/>
		</g>
	</g>
	<g>
		<g>
			<path fill="#F2F2F2" d="M89.712,61.961h-6.625l-1.986-6.624l-1.988,6.624h-6.624l5.3,3.644L75.8,71.897l5.301-3.312l5.299,3.312
				l-1.988-6.293L89.712,61.961z"/>
		</g>
		<g>
			<path fill="none" stroke="#D2D3D4" stroke-miterlimit="10" d="M89.712,61.961h-6.625l-1.986-6.624l-1.988,6.624h-6.624l5.3,3.644
				L75.8,71.897l5.301-3.312l5.299,3.312l-1.988-6.293L89.712,61.961z"/>
		</g>
	</g>
	<g>
		<g>
			<path fill="#F2F2F2" d="M95.921,84.269h-5.663l-1.699-5.664l-1.7,5.664h-5.663l4.531,3.115l-1.699,5.381l4.531-2.833l4.53,2.833
				l-1.699-5.381L95.921,84.269z"/>
		</g>
		<g>
			<path fill="none" stroke="#D2D3D4" stroke-miterlimit="10" d="M95.921,84.269h-5.663l-1.699-5.664l-1.7,5.664h-5.663l4.531,3.115
				l-1.699,5.381l4.531-2.833l4.53,2.833l-1.699-5.381L95.921,84.269z"/>
		</g>
	</g>
</g>
</svg>