<svg version="1.0" id="Layer_1" xmlns="http://www.w3.org/2000/svg" xmlns:xlink="http://www.w3.org/1999/xlink" x="0px" y="0px"
	 width="100%" height="100%" viewBox="0 0 100 100" enable-background="new 0 0 100 100" xml:space="preserve">
<g>
	<path fill="#2e2e2e" d="M95.752,50c0,25.266-20.481,45.752-45.752,45.752C24.729,95.752,4.248,75.266,4.248,50
		C4.248,24.733,24.729,4.248,50,4.248C75.271,4.248,95.752,24.733,95.752,50z"/>
	<path fill="none" stroke="#1c1c1c" stroke-width="6" stroke-miterlimit="10" d="M95.752,50c0,25.266-20.481,45.752-45.752,45.752
		C24.729,95.752,4.248,75.266,4.248,50C4.248,24.733,24.729,4.248,50,4.248C75.271,4.248,95.752,24.733,95.752,50z"/>
</g>
<g>
	<path fill-rule="evenodd" clip-rule="evenodd" fill="#6c6c6c" d="M59.382,33.27c1.936,1.969,3.753,3.829,5.621,5.73
		c-0.067,0.059-0.177,0.194-0.303,0.32c-3.265,3.256-6.538,6.53-9.804,9.803c-0.421,0.413-0.421,0.413,0,0.825
		c3.257,3.265,6.514,6.53,9.77,9.778c0.135,0.135,0.295,0.219,0.438,0.328c-1.952,1.901-3.828,3.736-5.738,5.612
		c-3.434-3.433-6.942-6.959-10.468-10.477c-3.551,3.552-7.052,7.061-10.527,10.527c-1.902-1.919-3.745-3.77-5.621-5.663
		c0.034-0.034,0.151-0.16,0.269-0.295c3.265-3.265,6.539-6.529,9.803-9.803c0.421-0.42,0.421-0.42,0.017-0.825
		c-3.273-3.273-6.539-6.546-9.82-9.812c-0.109-0.109-0.269-0.185-0.345-0.236c1.927-1.935,3.778-3.787,5.663-5.663
		c0.05,0.042,0.185,0.16,0.311,0.294c3.257,3.249,6.513,6.505,9.77,9.761c0.438,0.446,0.438,0.446,0.875,0.017
		c3.256-3.257,6.513-6.521,9.77-9.778C59.18,33.598,59.256,33.455,59.382,33.27z"/>
</g>
</svg>