<svg version="1.0" id="Layer_1" xmlns="http://www.w3.org/2000/svg" xmlns:xlink="http://www.w3.org/1999/xlink" x="0px" y="0px" width="100%" height="100%"  xml:space="preserve">

	<defs>
		<g id="rent-buy-tag">
				<path fill="#C9282E" d="M22.986,2.407L2.582,22.818L5.13,45.781l51.861,51.856L97.81,56.818L45.956,4.963L22.986,2.407z
					 M28.38,27.618c-2.649,2.977-7.206,3.245-10.183,0.586c-2.983-2.649-3.248-7.221-0.597-10.183
					c2.649-2.975,7.213-3.236,10.183-0.597C30.759,20.076,31.014,24.632,28.38,27.618"/>
				<path fill="#363535" d="M27.914,27.207c0.043,0.07,0.192,0.184,0.2,0.107l-0.209-0.236L27.914,27.207z"/>
				<path fill="#363535" d="M28.6,27.229c-0.072-0.155-0.235-0.379-0.49-0.514c0.197,0.237,0.09,0.175,0.322,0.457
					c-0.01,0.076-0.143,0.027-0.225-0.052c0.048,0.068-0.106,0.033,0.021,0.185c0.23,0.09,0.304,0.003,0.211-0.206
					C28.507,27.122,28.559,27.191,28.6,27.229"/>
				<path fill="#363535" d="M30.426,21.113l-0.029,0.052C30.414,21.148,30.422,21.13,30.426,21.113"/>
				<path fill="#363535" d="M28.538,17.355c0.028,0.02,0.06,0.008,0.079-0.009C28.582,17.336,28.552,17.33,28.538,17.355"/>
				<path fill="#363535" d="M28.23,16.586c0.009,0.018,0.016,0.029,0.023,0.042C28.259,16.597,28.254,16.574,28.23,16.586"/>
				<path fill="#363535" d="M30.426,21.113l0.076-0.133C30.402,20.996,30.438,21.055,30.426,21.113"/>
				<path fill="#363535" d="M28.474,26.13c0,0.025,0.016,0.053,0.038,0.085V26.16L28.474,26.13z"/>
				<path fill="#363535" d="M30.849,22.961l-0.001,0.034c0.035,0.009,0.076,0.021,0.125,0.033L30.849,22.961z"/>
				<path fill="#363535" d="M30.733,24.427c0.019-0.032-0.235-0.095-0.346-0.128c0.102,0.038,0.146,0.071,0.159,0.105
					C30.598,24.415,30.656,24.424,30.733,24.427"/>
				<path fill="#363535" d="M29.538,26.409l0.016,0.053L29.538,26.409z"/>
				<path fill="#363535" d="M30.859,21.906c0.038-0.007,0.07-0.016,0.091-0.023C30.918,21.886,30.888,21.894,30.859,21.906"/>
				<path fill="#363535" d="M26.496,27.662l0.028,0.037C26.513,27.674,26.504,27.659,26.496,27.662"/>
				<polygon fill="#363535" points="28.431,27.664 28.426,27.687 28.531,27.789 	"/>
				<path fill="#363535" d="M27.259,15.474l0.003,0.008C27.309,15.477,27.288,15.471,27.259,15.474"/>
				<path fill="#363535" d="M15.765,18.738c0.266-0.014,0.165,0.36,0.481,0.293C16.147,19,15.974,18.649,15.765,18.738"/>
				<path fill="#363535" d="M28.521,26.125c0.006-0.016,0.014-0.029,0.027-0.04C28.527,26.095,28.52,26.109,28.521,26.125"/>
				<polygon fill="#363535" points="16.246,19.031 16.248,19.032 16.278,19.024 	"/>
				<path fill="#363535" d="M24.062,14.555c0,0.047,0.009,0.081,0.019,0.116C24.082,14.644,24.078,14.612,24.062,14.555"/>
				<path fill="#363535" d="M26.261,15.593l-0.038-0.057C26.233,15.569,26.247,15.583,26.261,15.593"/>
				<path fill="#363535" d="M22.793,14.875c-0.032-0.02-0.044-0.057-0.087-0.023l0.015,0.032
					C22.734,14.848,22.756,14.834,22.793,14.875"/>
				<polygon fill="#363535" points="21.533,15.021 21.566,15.068 21.602,15.05 	"/>
				<path fill="#363535" d="M23.844,28.839c0.032,0.069,0.057,0.147,0.078,0.227C23.881,28.882,24.012,28.795,23.844,28.839"/>
				<path fill="#363535" d="M28.601,26.207c-0.054-0.038-0.075-0.063-0.078-0.082l-0.011,0.035
					C28.544,26.181,28.576,26.203,28.601,26.207"/>
				<path fill="#363535" d="M22.807,16.943l-0.152-0.046C22.699,16.924,22.754,16.94,22.807,16.943"/>
				<path fill="#363535" d="M17.823,26.081l0.044,0.016C17.866,26.081,17.854,26.074,17.823,26.081"/>
				<path fill="#363535" d="M22.218,17.007c-0.038-0.089-0.073-0.137-0.108-0.167c-0.004,0.021-0.009,0.04-0.009,0.069L22.218,17.007z"
					/>
				<path fill="#363535" d="M23.924,29.068v-0.003V29.068z"/>
				<path fill="#363535" d="M24.76,28.237c-0.131,0.04,0.038,0.344,0.068,0.544c-0.141,0.155-0.149-0.215-0.253-0.363
					c-0.07,0.128-0.075,0.459-0.162,0.451c-0.02-0.054-0.041-0.07-0.038-0.143c-0.059,0.281-0.337,0.062-0.42,0.423
					c-0.015-0.027-0.024-0.056-0.03-0.08c0.048,0.166,0.078,0.339,0.093,0.464c-0.072,0.017-0.109,0.236-0.165,0.017
					c0.045,0,0.037-0.09,0.048-0.162l-0.062,0.107c-0.107-0.312,0.088-0.127,0.055-0.363c-0.123,0.125-0.268,0.419-0.391,0.345
					c-0.045-0.312,0.247-0.145,0.076-0.404l0.18,0.095c-0.183-0.477,0.102,0.02-0.074-0.496c-0.211-0.065-0.212,0.22-0.426,0.126
					c-0.04,0.172,0.027,0.26-0.016,0.434c-0.316,0.303-0.244-0.809-0.465-0.395c-0.062,0.207-0.109,0.607-0.262,0.391l0.079-0.355
					c-0.198-0.042-0.163,0.51-0.363,0.264c0.058-0.139,0.18-0.115,0.152-0.157c-0.11-0.286-0.122,0.198-0.235,0.195l0.02-0.316
					c-0.213-0.003-0.495,0.163-0.761,0.162c0.038-0.087,0.103-0.175,0.073-0.284c-0.169,0.043-0.332,0-0.472-0.088
					c-0.129-0.119-0.238-0.278-0.329-0.424l-0.211,0.205c-0.023-0.015,0.008-0.133,0.056-0.168c-0.06-0.141-0.079,0.153-0.174,0.228
					c-0.07-0.011-0.014-0.177,0.061-0.233c-0.277,0.134-0.787,0.206-0.792-0.2l0.078-0.044c-0.07-0.189-0.469,0.353-0.456,0.045
					l0.053-0.021c-0.229-0.309-0.752-0.363-0.629-0.895c-0.319,0.235-0.113-0.384-0.539-0.032c0.06-0.338,0.176-0.357,0.124-0.677
					c-0.037-0.067-0.344,0.115-0.444,0.062l0.233-0.168l-0.312,0.059l0.249-0.252l-0.108-0.035c0.004,0.038-0.069,0.134-0.14,0.174
					c-0.188-0.056-0.011-0.404,0.116-0.477l-0.385-0.166c0.105-0.046,0.171-0.017,0.26-0.015c-0.354-0.013,0.252-0.164-0.071-0.176
					c-0.048,0.047-0.159,0.065-0.214,0.088c0.102-0.142,0.066-0.32-0.051-0.416l0.189-0.05c-0.028-0.241-0.256-0.438-0.35-0.694
					c-0.055,0.115-0.393,0.19-0.455,0.119l0.283-0.109c-0.201-0.004-0.082,0.11-0.343,0.063c0.011-0.113,0.322-0.151,0.426-0.119
					l-0.121-0.1c0.088-0.025,0.14-0.01,0.251-0.028c-0.19-0.011,0.271-0.27-0.061-0.272l0.088-0.025
					c-0.035-0.26-0.16-0.362-0.211-0.578c-0.263,0.02-0.218-0.072-0.442-0.128c0.09-0.18,0.308-0.363,0.292-0.56
					c-0.125-0.146-0.222-0.05-0.375-0.122c0.24,0,0.224-0.2,0.393-0.086c-0.014-0.239-0.08-0.308-0.185-0.638
					c-0.104,0.019-0.157,0.049-0.231,0.019c-0.024-0.066,0.131-0.113,0.241-0.086l0.021,0.02c-0.251-0.435,0.832-0.598,0.453-0.981
					l0.016,0.021l-0.121-0.35c0.093-0.103,0.133,0.141,0.311,0.11c-0.238-0.436,0.246-0.402,0.11-0.751
					c0.683,0.188,0.36-0.582,0.864-0.534l-0.14-0.091c-0.088-0.157,0.121-0.007,0.178-0.022c-0.104-0.074-0.157-0.034-0.203-0.125
					c0.065-0.313,0.358-0.457,0.642-0.579c0.299-0.101,0.557-0.238,0.852-0.288c0.191-0.061-0.371-0.776,0.073-0.579l0.096,0.301
					c0.08-0.265,0.273-0.378,0.46-0.482c0.204-0.068,0.41-0.116,0.555-0.337c0,0.075,0.03,0.161-0.007,0.175
					c0.155,0.182,0.301-0.097,0.253-0.276c0.067-0.003,0.062,0.154,0.125,0.229c0.115,0.101,0.128-0.359,0.231-0.147
					c0.019,0.035-0.006,0.072-0.016,0.095c0.027-0.117,0.265-0.01,0.155-0.255c0.18,0.098,0.28-0.158,0.429-0.027
					c0.044-0.299,0.282,0.097,0.264-0.314c0.034,0.428,0.296,0.279,0.394,0.108c-0.028,0.125,0.092,0.136,0.059,0.309
					c0.108,0,0.209-0.073,0.191-0.289c0.19,0.512,0.453-0.391,0.524,0.259c0.357-0.252,0.691-0.251,1.03-0.301
					c-0.111,0.408-0.35-0.037-0.423,0.398c0.302-0.105,0.572-0.412,0.838-0.251c0.056,0.072-0.101,0.165-0.146,0.229
					c0.34-0.095,0.494,0.255,0.83,0.142c-0.018,0.035-0.062,0.062-0.1,0.078c0.054,0.011,0.082,0.107,0.16-0.068l-0.068,0.025
					c0.037-0.288,0.447-0.434,0.529-0.56c-0.336,0.451,0.191,0.238-0.271,0.789c0.046-0.02,0.131-0.082,0.186-0.195
					c0.028,0.055,0.006,0.123-0.11,0.23c0.221-0.021,0.256-0.205,0.398-0.107c-0.05,0.078-0.097,0.088-0.167,0.171
					c0.162-0.104,0.333-0.203,0.41-0.05c-0.039,0.041-0.066,0.112-0.102,0.085c0.212,0.118,0.639-0.131,0.766,0.173
					c-0.327,0.261-0.007,0.158-0.225,0.429c0.006-0.008,0.18,0.013,0.175,0.02l0.075-0.17c0.081,0.101,0.338,0.005,0.336,0.173
					l-0.168,0.028l0.213,0.136l-0.002-0.195c0.223-0.024,0.304-0.32,0.361-0.116c-0.052-0.003,0.095,0.108-0.011,0.298
					c0.128-0.024,0.266-0.045,0.271,0.088c-0.068,0.088-0.312,0.229-0.357,0.289c0.266-0.134,0.282,0.168,0.571,0.057
					c-0.073,0.02-0.22,0.13-0.246,0.158l0.219-0.093c-0.028,0.1-0.054,0.13-0.179,0.203c0.061,0.187,0.331-0.306,0.291-0.003
					c-0.025-0.002-0.05,0.022-0.098,0.014c0.031,0.244,0.352,0.293,0.36,0.534c-0.276,0.219-0.168-0.112-0.391,0.094
					c0.208,0.2,0.693,0.318,0.694,0.639l0.018-0.065c0.473-0.146-0.154,0.295,0.112,0.346c-0.048-0.023-0.275,0.049-0.221,0.039
					c-0.015,0.207,0.259,0.324,0.494,0.579l-0.13-0.006c-0.093,0.141-0.02,0.313-0.058,0.446c0.132,0.013,0.122,0.088,0.298,0.013
					c-0.675,0.474,0.542,0.709-0.107,1.1c0-0.043-0.105-0.095-0.108-0.064l0.105,0.288c0.218-0.021,0.133-0.035,0.303-0.096
					c0.126,0.038,0.223,0.128,0.22,0.206c-0.139-0.144-0.347-0.008-0.47,0.042c0.067-0.008,0.14,0.016,0.207,0.013
					c-0.39,0.138,0.432,0.05,0.166,0.256l-0.112-0.022c0.055,0.086,0.2,0.18,0.165,0.265c-0.249,0.008-0.112-0.101-0.316-0.127
					c0.008,0.116,0.47,0.303,0.188,0.376c-0.057-0.061-0.038-0.135-0.109-0.195c-0.293,0.082-0.24,0.101-0.301,0.18l0.008-0.009
					l-0.176,0.168l0.09-0.032c0.604,0.266,0.048,0.312,0.414,0.613c-0.344-0.294-0.218-0.088-0.487-0.172
					c-0.089,0.029-0.189,0.079-0.262,0.038c0.199,0.148-0.206,0.095,0.085,0.314c-0.088-0.021-0.03,0.093-0.243,0.003
					c0.043,0.135,0.157,0.023,0.264,0.066c0.25,0.291-0.523,0.259-0.229,0.662c0.065,0.285,0.323,0.461,0.361,0.748
					c-0.161,0.001-0.267-0.215-0.267-0.215c-0.173,0.045-0.171,0.145-0.151,0.293c-0.054-0.062-0.125-0.074-0.233-0.1
					c-0.032,0.083,0.249,0.221,0.062,0.248c-0.073-0.072-0.196-0.178-0.258-0.266c0.012,0.126,0.093,0.305,0.097,0.44
					c-0.148-0.065-0.162-0.189-0.226-0.276c-0.012,0.137-0.062,0.333,0.115,0.513l0.122-0.015c-0.019,0.049-0.189-0.105-0.208-0.158
					c-0.101-0.196,0.159-0.072,0.239-0.028l0.002,0.099c0.49,0.232,0.121-0.316,0.236-0.422l0.293,0.258l-0.178-0.303
					c0.105,0.018,0.311,0.105,0.314,0.206c0.23-0.009-0.073-0.166,0.161-0.157c0.034,0.007,0.048,0.02,0.056,0.037l-0.051-0.165
					c0.062,0.06,0.251,0.109,0.171,0.152c0.293-0.104-0.115-0.453,0.184-0.401l0.015,0.027c0.007-0.334-0.246-0.15-0.462-0.482
					l0.712,0.13l-0.253-0.133c0.022-0.024,0.067-0.07,0.17-0.021c-0.135-0.176-0.125-0.025-0.269-0.152
					c0.319-0.043,0.026-0.414,0.461-0.313c-0.195-0.115-0.192,0.09-0.302-0.11c0.479,0.098-0.038-0.2,0.208-0.271
					c0.235,0.104,0.075,0.202,0.324,0.122c-0.393-0.189,0.152-0.247,0.102-0.386c-0.329-0.073-0.08-0.28-0.147-0.49
					c0.132,0.03,0.222-0.344,0.35-0.524l0.056,0.01c-0.341-0.064-0.27-0.248-0.335-0.389c0.205,0.012,0.285,0.038,0.374,0.12
					l0.004-0.135c-0.109-0.035-0.164-0.076-0.202-0.163l0.255,0.035c-0.013-0.186-0.273-0.354-0.125-0.589
					c-0.24,0.01-0.64,0.21-0.831,0.004c0.127-0.019,0.347-0.044,0.407,0.013c-0.02-0.02-0.117-0.062-0.066-0.104l0.23,0.073
					c0.079-0.106-0.189-0.038-0.182-0.117c0.185-0.014,0.122-0.071,0.269-0.074c0.021,0.02-0.065,0.078,0.012,0.104
					c0.019-0.094,0.112-0.217,0.245-0.271c-0.103,0.022-0.246,0.028-0.281-0.035c-0.041-0.172,0.212-0.089,0.289-0.205
					c-0.135-0.025-0.02-0.16-0.293-0.12c-0.007-0.05,0.12-0.08,0.19-0.115c-0.135-0.07-0.103-0.423-0.373-0.256l-0.017,0.027
					l-0.012-0.013v0.002v-0.002c-0.285-0.228-0.021-0.621-0.223-0.87l0.088-0.032c-0.158-0.13-0.192-0.35-0.416-0.388
					c-0.016-0.046,0.113-0.177,0.221-0.203c-0.115-0.096-0.192-0.073-0.16-0.304c0.215,0.046,0.104-0.105,0.178,0.07
					c-0.018-0.189,0.09-0.296-0.231-0.341c0.243-0.056,0.192-0.263,0.084-0.302l-0.081,0.191c-0.08-0.066-0.104-0.146-0.13-0.23
					l0.292-0.118c0.105-0.538-0.866-0.229-0.537-0.815c-0.236,0.059,0.015,0.244-0.248,0.33c-0.074-0.144,0.152-0.557,0.113-0.6
					c-0.032-0.294-0.493,0.129-0.568-0.125c-0.06,0.098-0.26,0.315-0.45,0.264c-0.076-0.144,0.194-0.477,0.33-0.457
					c0.035,0.021,0.021,0.062-0.005,0.086c0.065,0.012,0.148,0.032,0.189-0.1l-0.096,0.06c0.024-0.141-0.146-0.309,0.018-0.396
					c-0.164-0.022-0.164,0.09-0.139,0.2c-0.046-0.272-0.217-0.272-0.338-0.48c-0.012,0.069-0.068,0.187-0.098,0.165
					c-0.18-0.301-0.251,0.073-0.457-0.013c0.003-0.207,0.285-0.294,0.016-0.313c-0.045-0.173,0.148-0.257,0.251-0.293
					c-0.299,0.048-0.243-0.349-0.328-0.456l0.145-0.007c-0.087,0.003-0.131-0.032-0.18-0.065l-0.067,0.225
					c-0.031-0.07-0.078-0.105-0.027-0.183c-0.133,0.083-0.156,0.341-0.369,0.434c-0.011-0.143-0.264-0.052-0.148-0.311
					c0.179,0.23,0.125-0.276,0.342-0.184c-0.056,0.003-0.099-0.03-0.136-0.1c0.007-0.035,0.04-0.052,0.062-0.055
					c-0.113-0.349-0.276,0.235-0.517,0.114c0.109-0.131,0.086-0.306,0.027-0.295c0.102,0.051-0.078,0.27-0.224,0.341
					c-0.102-0.188-0.212,0.01-0.285-0.04l0.067,0.097c-0.102,0.138-0.167,0.084-0.293,0.084c0.041-0.123,0.131-0.04,0.117-0.106
					c-0.229,0.215-0.154-0.4-0.396-0.293c-0.04-0.141,0.101-0.298,0.055-0.398c-0.263,0.11-0.147-0.289-0.423-0.181
					c0,0.229,0.022,0.177-0.188,0.35l0.396-0.065l-0.321,0.255c0.101,0.03,0.263-0.089,0.31-0.022
					c-0.159,0.133-0.132,0.093-0.144,0.278c-0.035-0.353-0.327,0.121-0.419-0.131l0.15-0.531c-0.198-0.301-0.517,0.168-0.81-0.042
					l0.089,0.118c-0.084,0.206-0.206-0.014-0.322,0.05c0.037-0.181-0.02-0.262-0.051-0.384c-0.012,0.134-0.248-0.024-0.315,0.341
					l-0.125-0.248c-0.269-0.11-0.335,0.512-0.576,0.439c0.078-0.198-0.036-0.332,0.141-0.469c-0.087-0.003-0.166-0.041-0.168,0.087
					c-0.052-0.117-0.235,0.241-0.314,0.062c-0.034,0.081-0.037,0.272-0.13,0.254c-0.014-0.036-0.005-0.09-0.005-0.09
					c0.003,0.084-0.138,0.135-0.045,0.328c-0.298-0.536-0.68,0.146-0.976-0.309c-0.172,0.095-0.378,0.178-0.535,0.229
					c-0.004-0.057-0.023-0.09,0.012-0.082c-0.265-0.086,0.008,0.559-0.28,0.457c-0.212-0.239,0.08-0.199-0.03-0.277
					c-0.214-0.568-0.271,0.184-0.556-0.09l0.029-0.048C20,15.11,19.971,15.585,19.75,15.62c0,0-0.012-0.052-0.035-0.085
					c-0.027,0.318-0.207,0.57-0.341,0.745c-0.062-0.24,0.021-0.158-0.13-0.349c-0.064,0.076,0.209,0.328,0.087,0.477
					c-0.113-0.081-0.287-0.111-0.436-0.321l0.147-0.104c-0.248-0.24-0.197,0.131-0.308,0.13l-0.067-0.128
					c-0.219,0.188-0.012,0.489-0.274,0.619l0.091,0.073c0.09,0.378-0.226-0.076-0.18,0.237l-0.266-0.256
					c-0.024,0.143-0.044,0.522-0.129,0.694c-0.11-0.271-0.039-0.526-0.035-0.747c-0.082,0.07-0.256,0.269-0.173,0.441
					c0.008-0.056-0.013-0.16,0.056-0.146c0.097,0.304,0.075,0.517-0.076,0.648c-0.483-0.526-0.529,0.228-1.018,0.017
					c-0.023,0.474-0.547,0.555-0.782,0.959c0.567,0.158-0.064,0.115,0.444,0.384c-0.025,0.099-0.038,0.134-0.076,0.122l-0.431,0.118
					c-0.18-0.007-0.07-0.147-0.188-0.2c-0.138,0.193-0.257-0.021-0.461,0.059c0.196,0.062,0.229,0.203,0.101,0.295l0.318-0.061
					c0.143,0.418-0.557,0.062-0.418,0.489l-0.122-0.166c0.021,0.195-0.271,0.597,0.153,0.897c-0.07,0.008-0.229,0.003-0.25-0.082
					c-0.168,0.394,0.27,0.979-0.077,1.226l-0.13-0.051c0.024,0.081,0.225,0.163,0.086,0.24c-0.059-0.012-0.137-0.05-0.147-0.015
					c0.046,0.047,0.235,0.224,0.148,0.315l-0.151-0.1c-0.2,0.39,0.356,0.631,0.443,0.935c-0.403,0-0.573,0.318-0.606,0.479
					l-0.058-0.001c0.016,0.477,0.454,0.752,0.676,1.118c-0.432,0.365,0.074,0.883-0.027,1.374c0.049-0.09,0.304-0.105,0.367-0.053
					c-0.043,0.125,0.354,0.139,0.004,0.275l-0.008-0.036c-0.309,0.217-0.157,0.382-0.073,0.52l0.455-0.2
					c-0.418,0.705,0.768,0.77,0.35,1.314c0.147,0.017,0.232,0.108,0.396,0.105l-0.211,0.16c0.136,0.249,0.208,0.38,0.491,0.594
					l-0.188,0.078c0.128,0.161,0.721-0.348,0.843-0.235l-0.238,0.321c0.208,0.254,0.301,0.703,0.785,0.627
					c-0.041,0.042-0.117,0.128-0.172,0.107c0.121,0.102,0.359,0.59,0.611,0.104c-0.19,0.293,0.264,0.24,0.487,0.193l-0.154,0.214
					c0.304-0.223,0.349-0.303,0.577-0.298c0.027,0.049-0.058,0.201-0.086,0.115c0.086,0.191,0.225-0.167,0.341,0.038l-0.14,0.118
					c0.146,0.09,0.173,0.004,0.333-0.137c0.135-0.054,0.254,0.188,0.191,0.418c0.076-0.124,0.226-0.266,0.288-0.162
					c-0.018,0.088-0.068,0.124-0.094,0.144c0.196,0.298,0.486-0.168,0.59,0.132c-0.02,0.084-0.02,0.128-0.01,0.156
					c-0.217-0.058-0.389-0.113-0.365-0.128c-0.079,0.228,0.094,0.312-0.156,0.59c0.213-0.131,0.565-0.449,0.709-0.301
					c0.002,0.024,0.005,0.049,0.003,0.085l-0.024,0.022c0.034,0.034,0.078,0.02,0.121-0.011c0.046,0.051,0.076,0.09,0.131,0.104
					c-0.021,0.2,0.19,0.155,0.28,0.186c0.04-0.261,0.147-0.193,0.077-0.432c0.009,0.022-0.023,0.029-0.084,0.025
					c-0.014,0.005-0.032,0.007-0.043,0.018l0.011-0.021c-0.061-0.01-0.138-0.021-0.224-0.035c0.099-0.112,0.19-0.207,0.259-0.04
					c0.077-0.156,0.157-0.315,0.194-0.391c0.05,0.391,0.259,0.634,0.269,0.848c0.298-0.133,0.685-0.066,0.86-0.555
					c0.077-0.059,0.087,0.145,0.115,0.224c-0.045,0.049-0.097,0.038-0.123,0.107c0.157-0.12,0.466-0.034,0.484-0.376
					c0.199,0.158-0.093,0.323,0.17,0.255l-0.028,0.111c0.614,0.466,0.715-0.997,1.401-0.392c-0.051-0.035-0.075-0.051-0.096-0.107
					c0.354,0.085,0.655-0.131,0.953-0.284c0.301-0.159,0.594-0.284,0.981-0.257c0.209-0.009,0.121-0.212,0.13-0.412l0.179,0.222
					l-0.007-0.376c0.074-0.342,0.822,0.354,0.805-0.259l-0.149-0.118c0.113-0.055,0.211-0.345,0.339-0.165
					c-0.015-0.035-0.101-0.177,0-0.134l0.1,0.108l0.049-0.39c0.245-0.081,0.378,0.449,0.661,0.227c0.061-0.133-0.042-0.546-0.152-0.578
					c-0.043,0.028-0.163,0.025-0.275-0.071l0.026-0.128c-0.306-0.307-0.594-0.643-0.986-0.696l0.072,0.291l-0.188-0.114l0.09-0.099
					c-0.198-0.087-0.107,0.065-0.063,0.19c-0.089-0.072-0.159-0.114-0.212-0.123l0.168,0.409c-0.128-0.113-0.176-0.296-0.314-0.296
					c0.073,0.193,0.309,0.234,0.301,0.414c-0.191-0.094-0.277-0.233-0.234-0.043c-0.082-0.077-0.113-0.145-0.121-0.206
					c0.03,0.156-0.113,0.187-0.002,0.396c-0.203-0.132-0.17,0.231-0.411-0.112c0.037,0.092,0.067,0.333,0.01,0.387
					c-0.16-0.478-0.254,0.116-0.504-0.35c0.149,0.429-0.192,0.348-0.226,0.658c-0.007-0.037-0.024-0.11,0-0.098
					c-0.102,0.019-0.184-0.087-0.271-0.129c0.147,0.333,0.033,0.46,0.04,0.698c-0.256-0.285-0.098-0.421-0.271-0.718
					c0.125,0.269-0.078,0.339,0.053,0.555c-0.169-0.17-0.117-0.07-0.269-0.338c0.146,0.436-0.052,0.101-0.029,0.391
					c-0.199-0.165-0.169-0.394-0.261-0.213C24.694,28.433,24.76,28.237,24.76,28.237 M21.387,29.102l0.002-0.005
					c0.032,0.002,0.059,0.002,0.076,0.002C21.449,29.101,21.427,29.102,21.387,29.102 M21.085,29.037
					c0.033,0.02,0.078,0.032,0.128,0.04c-0.015,0.09-0.052,0.178-0.082,0.165C21.164,29.187,21.106,29.122,21.085,29.037
					 M21.364,30.968c-0.068,0.023-0.078-0.032-0.075-0.089c0.029,0.004,0.064,0.004,0.11-0.006l0.015-0.027
					C21.398,30.893,21.384,30.936,21.364,30.968"/>
				<path fill="#363535" d="M21.537,30.656c0.01-0.004,0.016-0.013,0.027-0.013c-0.01-0.024-0.018-0.047-0.024-0.065l-0.035,0.074
					L21.537,30.656z"/>
				<path fill="#363535" d="M30.392,21.174l0.005-0.01c-0.01,0.01-0.019,0.016-0.035,0.023L30.392,21.174z"/>
				<polygon fill="#363535" points="18.094,26.287 18.039,26.324 18.099,26.312 	"/>
				<path fill="#363535" d="M29.648,23.109c-0.023,0.001-0.047,0.006-0.067,0.02C29.597,23.128,29.621,23.118,29.648,23.109"/>
				<path fill="#363535" d="M29.534,23.852l-0.117,0.089C29.479,23.906,29.513,23.876,29.534,23.852"/>
				<path fill="#363535" d="M29.275,24.383c0.043,0.016,0.076,0.027,0.105,0.037l0.002-0.002L29.275,24.383z"/>
				<path fill="#363535" d="M25.57,17.208c-0.006,0-0.014,0-0.023,0.003C25.482,17.238,25.521,17.234,25.57,17.208"/>
				<path fill="#363535" d="M28.055,18.302c-0.056,0.01-0.109,0.021-0.153,0.02C27.921,18.37,27.943,18.402,28.055,18.302"/>
				<polygon fill="#363535" points="22.824,16.949 22.824,16.943 22.806,16.943 	"/>
				<path fill="#363535" d="M27.819,18.222c-0.005,0.074,0.03,0.097,0.083,0.1C27.888,18.279,27.875,18.224,27.819,18.222"/>
				<polygon fill="#363535" points="28.161,26.521 28.136,26.537 28.169,26.561 	"/>
				<path fill="#363535" d="M28.169,26.562l0.008,0.043C28.185,26.593,28.189,26.584,28.169,26.562"/>
				<path fill="#363535" d="M28.192,26.696l-0.017-0.091C28.162,26.623,28.141,26.64,28.192,26.696"/>
				<path fill="#363535" d="M28.679,25.971l-0.08-0.053C28.613,25.931,28.641,25.949,28.679,25.971"/>
				<path fill="#363535" d="M28.746,25.75c-0.041,0.039-0.234,0.03-0.211,0.125l0.063,0.043C28.487,25.818,28.867,25.871,28.746,25.75"
					/>
				<path fill="#363535" d="M30.25,25.26c0.008,0.005-0.16,0.179-0.16,0.179c0.112,0,0.262-0.003,0.242,0.103
					C30.733,25.377,30.1,25.519,30.25,25.26"/>
				<path fill="#363535" d="M30.554,24.618c0.017,0.132,0.142,0.034,0.198,0.052C30.68,24.572,30.66,24.549,30.554,24.618"/>
				<path fill="#363535" d="M30.101,19.612l0.223-0.088C30.259,19.447,30.238,19.562,30.101,19.612"/>
				<polygon fill="#363535" points="28.572,19.399 28.484,19.542 28.691,19.461 	"/>
				<polygon fill="#363535" points="29.703,17.988 29.755,18.006 29.597,17.915 	"/>
				<path fill="#363535" d="M21.721,14.755l0.073,0.288C21.851,14.981,21.818,14.652,21.721,14.755"/>
				<path fill="#363535" d="M18.323,16.453c-0.125-0.102-0.265-0.103-0.225,0.056C18.176,16.468,18.305,16.502,18.323,16.453"/>
				<polygon fill="#363535" points="15.624,26.75 15.496,26.723 15.646,26.818 	"/>
				<path fill="#363535" d="M23.055,1.79c-0.155,0.062-0.093,0.253,0.313,0.263l0.32-0.275L23.055,1.79z"/>
				<path fill="#363535" d="M25.702,2.66c0.491-0.096,1.067-0.297,0.79-0.613c-0.5,0.244-0.602,0.108-1.146,0.402
					c-0.408-0.01-0.693-0.176-0.612-0.281c-0.151,0.062-0.618-0.138-0.858,0.031c0.499,0.295,1.162,0.379,1.879,0.26
					C25.896,2.542,25.742,2.607,25.702,2.66"/>
				<path fill="#363535" d="M59.26,18.88l-0.154-0.206C59.141,18.737,59.194,18.808,59.26,18.88"/>
				<path fill="#363535" d="M76.504,36.365c-0.138-0.128-0.215-0.162-0.241-0.148C76.4,36.325,76.513,36.412,76.504,36.365"/>
				<path fill="#363535" d="M79.229,39.57c-0.06-0.07-0.107-0.127-0.161-0.189C79.114,39.467,79.169,39.545,79.229,39.57"/>
				<path fill="#363535" d="M59.26,18.88l0.396,0.533C59.76,19.375,59.469,19.122,59.26,18.88"/>
				<path fill="#363535" d="M31.216,2.524c-0.138,0-0.255,0.016-0.363,0.04l0.336,0.005L31.216,2.524z"/>
				<path fill="#363535" d="M51.429,11.402l-0.14-0.141c-0.067-0.016-0.137-0.025-0.207-0.027L51.429,11.402z"/>
				<path fill="#363535" d="M45.663,5.704c0.058,0.073,0.243-0.11,0.361-0.155c-0.128,0.024-0.221,0.006-0.304-0.049
					C45.695,5.542,45.679,5.611,45.663,5.704"/>
				<path fill="#363535" d="M32.949,3.787l-0.236,0.01C32.775,3.792,32.876,3.79,32.949,3.787"/>
				<path fill="#363535" d="M55.594,15.648c-0.019,0.036-0.021,0.082-0.014,0.12C55.604,15.746,55.604,15.703,55.594,15.648"/>
				<path fill="#363535" d="M15.307,8.346c0.008,0.019,0.023,0.021,0.033,0.033C15.354,8.325,15.353,8.303,15.307,8.346"/>
				<path fill="#363535" d="M23.035,2.456l-0.086,0.103C22.976,2.606,23,2.649,23.033,2.684L23.035,2.456z"/>
				<path fill="#363535" d="M84.416,45.234c-0.01-0.013-0.013-0.019-0.021-0.029C84.231,45.083,84.316,45.162,84.416,45.234"/>
				<path fill="#363535" d="M59.724,93.367c0.729-0.398-0.704,1.133,0.328,0.467C59.9,93.84,60.535,92.771,59.724,93.367"/>
				<path fill="#363535" d="M31.427,2.582l0.338,0.034C31.613,2.591,31.508,2.581,31.427,2.582"/>
				<path fill="#363535" d="M60.052,93.834l0.002,0.002l0.103-0.07C60.114,93.793,60.088,93.809,60.052,93.834"/>
				<path fill="#363535" d="M96.221,56.82l0.021-0.002c0.05-0.006,0.081-0.021,0.106-0.037c-0.031,0.002-0.062,0.012-0.104,0.037
					L96.221,56.82z"/>
				<path fill="#363535" d="M87.979,48.046l0.206,0.254C88.109,48.193,88.044,48.112,87.979,48.046"/>
				<path fill="#363535" d="M92.432,61.133c-0.139,0.109-0.208,0.129-0.354,0.326c0.023-0.006,0.047-0.016,0.074-0.031
					C92.191,61.342,92.26,61.246,92.432,61.133"/>
				<path fill="#363535" d="M87.4,66.168l0.131-0.057c0.046-0.053,0.101-0.111,0.147-0.168L87.4,66.168z"/>
				<path fill="#363535" d="M1.747,25.326c0.057-0.165,0.127-0.269,0.198-0.354C1.773,25.101,1.59,24.071,1.747,25.326"/>
				<path fill="#363535" d="M31.203,2.671c0.048-0.062,0.113-0.088,0.225-0.09L31.189,2.57C31.165,2.605,31.156,2.642,31.203,2.671"/>
				<path fill="#363535" d="M93.691,62.803l-0.828,0.771C93.105,63.367,93.405,63.086,93.691,62.803"/>
				<path fill="#363535" d="M25.844,68.002L25.64,67.84C25.705,67.914,25.775,67.975,25.844,68.002"/>
				<path fill="#363535" d="M90.518,65.975c-0.208,0.078-0.396,0.189-0.576,0.322c-0.021,0.047-0.047,0.1-0.047,0.141L90.518,65.975z"
					/>
				<path fill="#363535" d="M1.948,24.971l-0.002,0.001L1.948,24.971z"/>
				<path fill="#363535" d="M5.33,17.96c-0.767,0.757-0.118,0.595-0.141,0.897c-0.838,0.979-0.6,0.242-1.035,0.426
					c-0.502,0.634-0.713,1.294-1.146,1.705c-0.071-0.006-0.168,0.062-0.122-0.086c-0.095,0.184-0.241,0.381-0.417,0.584
					c-0.174,0.203-0.605,0.644-0.922,0.968c0.16,1.331,0.227,1.84,0.473,2.38c-0.023,0.075-0.047,0.114-0.071,0.138
					c0.153-0.18,0.325-0.223,0.454-0.203c0.059,0.478,0.315,0.865,0.11,1.071c-0.025-0.296-0.118-0.31-0.203-0.441l0.151,0.494
					c-0.271,0.488-0.188-0.675-0.426-0.647c0.215,0.969,0.609,2.082,0.601,2.844c-0.298,0.191-0.301-1.746-0.471-0.711l-0.009-1.178
					c-0.398,0.943-0.043-0.711-0.484,0.165c0.079,1.54,0.35,1.693,0.428,3.23c0.213,0.324,0.247-0.142,0.459,0.184
					c0.558,2.136-0.602,1.795-0.004,3.344c0.256,0.392,0.672,0.508,0.586,1.665l-0.397-0.347c0.128,1.485,0.606,0.789,0.538,2.366
					c-0.17-0.259-0.249-1.15-0.265-0.922c-0.169,1.037,0.28,0.688,0.366,1.463l-0.297,0.193c0.224,1.573,0.645,3.285,0.897,5.026
					c-0.105-0.085-0.237-0.374-0.288,0.044c0.096,0.522,0.172,1.064,0.236,1.614c0.062,0.673,0.128,1.355,0.192,2.038L5,47.208
					l0.599,0.685c0.388,0.456,0.769,0.903,1.132,1.331l0.771,0.385c0.133,0.137,0.162,0.337-0.021,0.23
					c0.516,0.662,0.153-0.094,0.512,0.113c0.352,0.321,0.332,0.555,0.062,0.399c1.203,0.875,3.315,2.609,4.203,3.914l-0.27-0.156
					c0.773,0.93,1.359,0.564,1.971,1.537l-0.186-0.117c1.768,1.936,3.992,3.805,5.113,5.51c0.547-0.01,1.707,1.957,2.216,1.688
					c0.864,1.25,0.491,1.016,1.852,2.635c0.381,0.416,0.837,0.35,1.37,0.803l-0.192,0.217l0.882,0.453l0.111,0.6l0.515,0.406
					c-0.174-0.193-0.3-0.48-0.215-0.512c0.814,0.629,1.616,1.898,1.529,2.021l1.877,1.531c-0.12,0.043-0.434-0.213-0.71-0.389
					c1.116,0.703-0.051,0.383,0.974,1.025c-0.065-0.158,0.183-0.062,0.241-0.084c0.293,0.541,1.238,1.488,1.989,2.135l-0.273,0.006
					c1.229,1.301,2.733,2.598,4.148,4.02c-0.444-0.574-0.083-0.701,0.355-0.307l-0.048,0.381c0.402,0.135-0.354-0.516,0.361-0.129
					c0.505,0.557,0.112,0.602-0.263,0.369l0.719,0.568c-0.027,0.102-0.211-0.016-0.333,0.029c0.398,0.127,0.896,1.328,1.511,1.475
					l-0.026,0.102c1.415,1.42,2.134,1.988,3.301,3.133c0.207-0.162,0.617,0.332,1.111,0.525c0.791,0.908,1.588,1.996,2.626,3.004
					c0.811,0.627,0.368,0.053,0.802,0.266c-0.117,0.225,0.921,1.227,0.27,0.82c1.255,1.201,1.602,1.535,3.293,2.951
					c-0.101-0.24-0.259-0.461-0.104-0.42c0.311,0.256,0.571,0.713,0.447,0.754l-0.091-0.057c1.997,1.49,3.531,4.516,5.271,5.551
					l-0.095-0.061c0,0,0.406,0.316,0.812,0.629l1.17,0.986c1.068,1.129-0.714-0.459,0.068,0.535c0.226,0.184,0.437,0.355,0.632,0.518
					c0.584-0.674,1.081-1.205,1.562-1.693c0.178-0.174,0.35-0.344,0.517-0.51l0.418-0.389c0.551-0.508,1.081-0.994,1.582-1.67
					c1.489-0.492,3.48-3.549,5.133-4.564l-0.195-0.041c0.231-0.459,0.486-0.35,0.768-0.578c-0.128-0.053-0.481,0.268-0.33-0.01
					c2.783-3.066,6.21-5.865,9.314-8.76c1.128-1.064,0.016-1.229,1.678-2.33l-0.175,0.609c1.953-2.477,4.536-4.516,6.481-6.906
					c-0.08,0.18-0.019,0.25-0.229,0.459c0.615-0.299,1.701-1.686,1.576-1.822c0.354-0.322,0.197,0.041,0.469-0.104
					c0.555-0.365,0.952-1.354,1.354-1.439c0.067-0.016-0.078,0.18-0.15,0.277c0.224-0.375,1.414-1.375,0.945-1.271
					c0.9-0.725,1.476-1.639,2.231-2.178c0.217-0.627,1.489-1.295,1.336-1.717c0.24,0.357,1.666-1.186,2.041-1.84
					c-0.082,0.262,0.54-0.354,0.464-0.025c0.583-0.594,1.065-1.186,0.81-1.238c1.438-0.723,1.886-2.459,2.951-2.609
					c0.651-0.727,1.291-1.438,1.839-2.049c-0.61-0.561-1.204-1.107-1.789-1.645c-0.362-0.318-0.719-0.633-1.068-0.939
					c-0.658-0.592-1.297-1.166-1.929-1.732c0.356-0.244,1.763,1.701,2.008,1.322c-1.609-1.365-2.723-1.969-4.126-3.513
					c-0.341-0.425,0.347,0.087,0.526,0.165c-1.609-1.363-2.849-2.901-4.331-4.062c0.029-0.025,0.203,0.089,0.36,0.2
					c-0.269-0.249-0.561-0.649-0.668-0.484l0.292,0.217c0.219,0.613-1.445-0.625-1.597-0.566c0.829,0.054-1.208-1.402-0.015-1.191
					c-0.198-0.146-0.478-0.297-0.528-0.168c-0.228-0.281-0.256-0.414,0.106-0.26c-1.009-0.858-0.821-0.384-1.665-1.232
					c0.068-0.062,0.266,0.082,0.431,0.094c-0.556-0.303-1.114-0.604-1.771-1.373c0.081,0.002,0.048-0.133,0.263,0.084
					c-1.25-1.211-2.434-1.753-3.656-3.222c0.681,0.112-0.366-0.554-0.191-0.872l-0.797-0.651l0.171,0.412
					c-0.63-0.64-1.37-1.02-1.836-1.646l0.575,0.368l-1.236-1.14l0.58,0.766c-0.77-0.516-0.242,0.381-1.02-0.533
					c0.197,0.146-0.631-0.637-0.816-1.113l0.003,0.003c-0.393-0.236-0.799-0.478-1.205-1.006c-0.044-0.2,0.369-0.177,0.343-0.308
					c-0.515-0.103-1.543-1.427-2.153-1.602c0.183,0.08,0.317-0.042,0.302-0.112l-0.427-0.093c-0.242-0.346-0.258-0.414-0.108-0.471
					c-0.853-0.914-0.031,0.594-0.945-0.592c0.096,0.068,0.083,0.006,0.278,0.15c-0.982-1.123-2.142-1.928-3.026-2.978
					c-0.039-0.534,0.906,0.784,0.787,0.247c-1.44-1.352-3.188-2.593-4.478-4.002l0.224,0.279c-0.538,0.164-0.833-1.177-1.684-1.697
					c0.194,0.142,0.416,0.025,0.332,0.02c-0.869-0.981-1.979-1.807-3.491-3.096l0.265,0.083c-0.465-0.626-1.39-1.481-1.938-2.112
					c-0.265-0.084-0.586-0.437-0.512-0.101c-1.305-2.328-3.737-3.19-4.925-5.228c0.194,0.192,0.538,0.381,0.388,0.229l-1.456-1.291
					c-0.044,0.261,0.087,0.272,0.256,0.681c-0.263-0.084-0.722-0.401-1.06-0.741c0.716,0.516,0.238-0.25,0.057-0.602
					c0,0.09-0.146,0.05-0.169,0.121c-0.446-0.988-0.427,0.187-1.224-0.974l0.133-0.029c-0.408-0.325-0.852-0.556-1.225-0.974
					c0.014-0.341,0.474,0.305,0.643,0.187c-0.564-0.544-1.429-0.761-1.754-1.44c0.284,0.188,0.624,0.527,0.908,0.713
					c-0.339-0.754-0.456-0.765-0.829-1.203l0.035,0.043l-0.845-1.03l0.183,0.293c-0.503-0.098-0.845-0.358-1.259-0.757
					c-0.751-0.069-1.298-0.194-2.088-0.04c1.323-0.26,0.236-0.21,0.366-0.479c-0.327-0.116-0.827-0.26-0.672-0.324
					c-0.647,0.16-1.019-0.293-1.932-0.059c-0.03-0.094-0.664-0.083-0.499-0.293c-0.816-0.02,0.173,0.177,0.095,0.283
					c-1.28,0.171-2.887-0.699-4.726-0.475c-1.562,0.001-1.883,0.274-3.332,0.269c-0.468-0.2,0.432-0.287,0.432-0.287
					c-0.765-0.22-1.355-0.259-2.101-0.238c0.157-0.062,0.011-0.147-0.202-0.273c-0.594-0.042-0.43,0.286-1.195,0.065
					c0.146-0.085,0.335-0.229,0.631-0.297c-0.704,0.006-1.409,0.098-2.139,0.099c-0.174-0.178,0.461-0.19,0.727-0.266
					c-0.818-0.018-2.113-0.09-2.391,0.132l0.508,0.146c-0.296-0.021-0.128-0.23,0.097-0.253c0.713-0.118,0.99,0.198,1.019,0.294h-0.52
					c0.467,0.591,2.068,0.145,3.098,0.29L30.78,3.346l1.092-0.202c0.215,0.127,0.347,0.359-0.171,0.36
					c0.719,0.273,0.671-0.063,1.282,0.218c0.067,0.041,0.033,0.058-0.034,0.063l0.736-0.033c-0.15,0.065,0.09,0.286-0.35,0.181
					c1.274,0.367,2.125-0.056,2.582,0.291l-0.111,0.012c1.814,0.07,0.205-0.264,1.592-0.448l0.832,0.8l0.209-0.264
					c0.184,0.031,0.549,0.094,0.469,0.199c0.713-0.116-0.104-0.137,0.316-0.273c0.865,0.355,2.479,0.152,2.631,0.628
					c0.345-0.182-0.836-0.263,0.134-0.306c0.219,0.515,1.113,0.04,1.904,0.352c-0.276,0.225-1.037,0.006-0.245,0.32
					c0.268-0.182,0.654-0.12,1.062-0.01c0.202,0.059,0.414,0.118,0.614,0.176c0.165,0.05,0.255,0.08,0.379,0.077L45.721,5.5
					c0.1-0.381,1.04,0.84,1.94,1.579c-0.133,0.03,1.417,1.68,2.093,2.531l-0.062,0.018c0.391-0.094,1.135,0.741,1.759,1.266
					c-0.166,0.122-0.328,0.077-0.704-0.17l0.543,0.538c0.202,0.051,0.411,0.18,0.793,0.5l-0.319,0.047
					c0.729,0.709,1.663,1.235,2.466,2.28c0.222-0.116-0.266-1.206,0.826-0.343c-0.056,0.129-0.176,0.322-0.469,0.104
					c0.096,0.07,0.374,0.221,0.505,0.431l-0.544-0.237c0.354,0.487,0.348,0.09,0.672,0.443c-0.137,0.122,0.155,0.341,0.004,0.396
					c-0.099-0.073-0.239-0.347-0.421-0.426c0.354,0.404,0.739,0.94,0.791,1.19c0.042-0.108,0.177-0.176,0.47,0.086
					c0.73,0.71,0.091,0.402,0.441,0.889c0.266,0.084,0.631,0.635,0.837,0.453c0.213,0.211,0.159,0.342,0.188,0.477
					c0.458,0.285,1.763,1.713,1.55,1.087l-0.081-0.11l0.069,0.053l-0.004-0.004l0.004,0.004c1.412,1.025,2.422,2.645,3.717,3.771
					l-0.067,0.062c0.797,0.648,1.65,1.565,2.307,1.94c0.216,0.214,0.386,0.623,0.219,0.61c0.6,0.503,0.735,0.489,1.425,1.396
					c-0.669-0.441,0.091,0.291-0.65-0.486c0.66,0.774,0.718,1.042,1.666,1.634c-0.428-0.096,0.331,0.748,0.721,1.04l-0.383-0.622
					c0.409,0.359,0.728,0.71,1.055,1.064l-0.403,0.035c1.2,1.736,3.103,2.194,3.773,3.759c0.542,0.235-0.69-0.905-0.163-0.737
					c0.646,0.704,1.035,1.724,1.244,1.936c0.805,1.047,1.186,0.543,2.07,1.594c-0.045-0.201,0.047-0.527,0.844,0.122
					c0.648,0.706,0.502,1.158,0.013,0.796c-0.167-0.156-0.224-0.258-0.189-0.279c-0.247-0.189-0.565-0.441-0.384-0.089l0.167,0.009
					c0.255,0.414,1.193,1.336,0.845,1.248c0.588,0.434,0.349,0.088,0.01-0.331c0.755,0.981,1.352,1.358,2.167,2.328
					c-0.099-0.186-0.138-0.408,0.003-0.266c1.215,1.404,0.726,0.427,1.647,1.278c0.383,0.624-0.466,0.105,0.526,0.897
					c0.464,0.626-0.091,0.323-0.373,0.17c0.964,0.662,1.42,1.619,1.857,2.113l-0.49-0.366c0.292,0.219,0.501,0.429,0.715,0.643
					l-0.089-0.399c0.224,0.277,0.437,0.491,0.367,0.551c0.361,0.157,0.062-0.458,0.716-0.084c0.256,0.415,1.107,0.935,1.016,1.26
					c-0.984-1.127-0.092,0.325-1.019-0.533c0.196,0.146,0.406,0.357,0.631,0.637c0.015,0.062-0.078,0.008-0.159-0.048
					c0.823,1.193,0.698,0.228,1.74,1.278c-0.25-0.017,0.021,0.466,0.216,0.609c-0.419-0.422-0.006-0.396,0.471-0.099
					c0.579,0.762,0.797,0.66,1.138,1.023l-0.358-0.444c0.252,0.019,0.572,0.37,1.075,0.8c-0.05,0.132-0.484-0.361-0.359-0.155
					c0.725,0.313,0.959,1.388,1.822,1.972c0.256,0.416-0.188,0.253,0.053,0.6c0.964,0.659,0.717,1.042,1.697,1.766
					c-0.088-0.4-0.171-0.406,0.584,0.041l-1.513-1.291l1.128,0.67c-0.422-0.424-0.992-0.793-1.219-1.074
					c0.559,0.3,0.476,0.294,0.403-0.037c0.341,0.816,1.284,1.009,1.794,1.837L92.679,53.1c0.831,1.182,1.985,1.588,3.195,2.992
					l-0.352-0.488c0.165,0.012,0.372,0.209,0.599,0.445c0.267,0.281,0.284,0.334,0.482,0.469c-0.213,0.047-0.159,0.197-0.256,0.264
					c0.039-0.008,0.074,0.008,0.118,0.037c-0.044,0.1-0.284,0.299-0.122,0.545c0.075-0.076-0.709,0.363-0.709,0.363
					c-1.123,0.984-0.831,1.576-1.891,2.547c0.166-0.449-0.388-0.08,0.189-0.859c-0.34,0.336-0.669,0.617-0.583,0.713
					c-0.28,0.115-0.763,1.113-1.197,1.301c-0.087,0.199,0.003,0.385-0.388,0.752c-0.068,0.016-0.062-0.064-0.062-0.064
					c0.062,0.064-0.508,0.682-0.031,0.494c-1.449,0.637-2.884,2.945-4.142,3.502c-0.695,0.783-1.544,1.717-2.205,2.396
					c0.003-0.084-0.062-0.068,0.078-0.18c-1.047,0.803-0.195,0.941-1.381,1.859c-0.752,0.328,0.442-0.672,0.028-0.416
					c-0.575-0.285-1.213,1.328-2.172,1.783l0.146-0.195c-0.688,0.396-1.159,1.484-2.075,2.34c0,0,0.007-0.082-0.06-0.072
					c-0.387,0.826-1.459,2.043-2.248,2.953c0.097-0.432,0.297-0.475-0.036-0.484c-0.356,0.406,0.386,0.162-0.328,0.973
					c-0.339,0.156-0.969,0.625-1.224,0.516l0.708-0.729c-0.603,0.131-0.92,0.938-1.341,1.275l-0.053-0.15
					c-1.068,1.135-0.825,1.41-2.025,2.574l0.2-0.047c-0.391,0.904-0.688,0.4-1.142,1.234l-0.455-0.064
					c-0.364,0.49-1.244,1.746-1.959,2.559c0.24-0.625,1.037-1.619,1.475-2.287c-0.424,0.422-1.417,1.457-1.51,1.805
					c0.145-0.195,0.297-0.473,0.505-0.602c-0.313,0.723-0.896,1.506-1.742,2.344c-0.356-0.652-2.325,2.072-3.328,2.287
					c-1.303,1.678-3.037,2.881-4.745,4.646c1.01-0.223-0.495,0.518,0.014,0.816c-0.378,0.43-0.539,0.578-0.602,0.588l-1.467,0.984
					c-0.408,0.172,0.297-0.475,0.169-0.529c-0.917,0.857-0.544,0.203-1.236,0.682c0.132,0.014,0.104,0.141-0.023,0.322
					c-0.062,0.09-0.153,0.195-0.263,0.305c-0.141,0.141-0.078,0.066-0.134,0.094c0.026-0.023,0.003,0.092,0.208-0.02l0.448-0.262
					c-0.433,0.58-0.472,0.582-0.572,0.592c-0.097,0.002-0.156-0.088-0.193-0.127c-0.038-0.107-0.044-0.125-0.163-0.117
					c0.013,0.016,0.141-0.109,0.129-0.121c-0.023,0.012-0.041,0.012-0.098-0.025c-0.27-0.252-0.574-0.535-0.881-0.822
					c-0.619-0.555-1.268-1.08-1.744-1.234c-0.068-0.158-0.105-0.418,0.205-0.168c-1.482-1.578-3.751-3.059-4.741-4.447l0.215,0.016
					c-0.314-0.256-0.684-0.309-0.94-0.768c0.059-0.023,0.214,0.016,0.087-0.121c-0.186-0.117-0.931-0.586-1.253-1.02l0.436,0.209
					c-1.363-1.619-2.562-2.02-3.882-3.203c0.295-0.287-0.785-1.557-1.325-2.188l0.062-0.021c-1.702-1.773-3.194-2.711-4.917-4.207
					c-0.684-1.316-3.253-3.516-4.682-5.301c0.193,0.301-0.266,0.188-0.58-0.068c-0.317-0.434-1.244-0.84-0.918-1.047l0.13,0.141
					c-0.021-0.547-0.867-1.25-1.464-1.861l-0.447,0.248c-1.075-2.09-4.332-3.959-4.741-5.275c-0.47-0.295-0.939-0.768-1.405-1.059
					l0.207-0.168c-1.01-1.105-1.514-1.656-2.865-2.918l0.399,0.133c-0.725-0.75-1.47-0.393-2.161-1.062l0.074-0.48
					c-1.291-1.285-2.347-2.832-3.871-3.848c0.062-0.021,0.179-0.062,0.399,0.133c-0.599-0.613-2.153-2.531-2.317-1.928
					c0.234-0.264-1.302-1.352-2.106-1.936l0.291-0.074c-0.821-0.353-0.903-0.307-1.787-1.06c-0.171-0.22-0.022-0.319,0.188-0.014
					c-0.55-0.742-0.679-0.33-1.365-1.211l0.411,0.175c-0.65-0.68-0.662-0.565-1.165-0.794c-0.492-0.344-1.216-1.309-1.148-1.573
					c-0.19,0.012-0.689-0.215-1.033-0.655c0.009-0.117,0.192-0.013,0.281,0.042c-0.15-0.191-0.301-0.357-0.446-0.504
					c-0.105-0.109-0.158-0.151-0.246-0.217c-0.035-0.115-0.069-0.221-0.1-0.324c-0.042-0.182-0.082-0.353-0.12-0.521
					c-0.068-0.341-0.104-0.677-0.058-1.06c0.084-0.03,0.119-0.105,0.135-0.197c0.062,0.621,0.12,1.182,0.158,1.575
					c0.014,0.15,0.022,0.269,0.029,0.344c0,0.049-0.002,0.075-0.007,0.064c0.112-0.064,0.176-0.121,0.243-0.263
					c0.032-0.081,0.07-0.136,0.128-0.124c0.027,0.007,0.06,0.029,0.098,0.075c0.04,0.062,0.083,0.112,0.124,0.092
					c-0.02,0.03-0.059-0.078-0.101-0.202c-0.041-0.114-0.084-0.234-0.127-0.361c-0.085-0.252-0.177-0.525-0.268-0.8
					c-0.169-0.555-0.304-1.135-0.302-1.632c0.017-0.05,0.035-0.098,0.068-0.137l0.038,0.097c-0.001-0.229-0.047-0.428-0.106-0.612
					c0.003-0.316,0.011-0.52-0.02-0.818c0.184-0.138-0.021-1.163-0.067-1.664c-0.257,0.068-0.287-0.59-0.436,0.049
					c0.011-0.082,0.043,0.089,0.092,0.422c0.014,0.074,0.028,0.163,0.049,0.211l-0.027-0.03c0.042,0.326,0.097,0.753,0.157,1.24
					c-0.176-0.382-0.334-0.781-0.252-1.351c-0.194-0.238-0.399-0.503-0.496-0.652c0.287-0.726,0.337-2.066,0.542-2.275
					c-0.317-1.511-0.498-3.588-1.095-4.493c-0.11-0.429,0.087-0.517,0.144-0.685c0.079,0.243,0.104,0.544,0.189,0.672
					c-0.223-0.854-0.335-2.57-0.699-2.738c0.032-1.111,0.383,0.582,0.16-0.916l0.128,0.189c0.081-1.139-0.1-2.089-0.336-3.012
					c-0.125-0.458-0.25-0.917-0.377-1.383L3.129,23.52c-0.047-0.187-0.083-0.354-0.113-0.55c0.269-0.303,0.87-0.84,1.557-1.282
					c-0.192,0.13-0.287,0.198-0.361,0.189c2.879-2.44,5.276-5.691,8.249-7.965c0.817-0.677,0.742-0.913,1.079-1.488l0.36,0.037
					l0.55-1.009c0.936-1.271,2.401-1.422,3.479-3.139L17.615,8.36c0.525-0.477,1.51-1.67,1.58-1.433
					c0.027-0.076,0.026-0.303,0.293-0.429l0.118,0.087l1.055-1.41c1.03-0.883,0.265,0.562,1.68-0.813
					c0.479-0.558,1.174-1.779,0.909-1.654c-0.215,0.205-0.6,0.471-0.72,0.381l0.419-0.53c-0.221-0.391-0.171-1.071-1.551-0.121
					l-0.621,1l-0.412,0.112l0.674-0.694C20.512,3.103,20.39,3.472,20.2,3.834c-0.146-0.017-0.313,0.043-0.505,0.174L19.192,5.1
					c-0.216-0.024,0.119-0.597-0.481-0.128c-0.237,0.508,0.627-0.089,0.1,0.617c-0.528,0.251-0.528,0.022-0.864,0.597
					c-0.145-0.015-0.098-0.162,0.048-0.378c-0.311,0.503-1.033,1.113-1.078,1.488c-0.578,0.23-1.325,1.414-1.576,1.083
					c-0.058,0.198-0.484,0.94-0.847,1.327c0.333-1.029-1.414,1.374-1.606,0.82c-0.191,0.817-1.682,1.96-2.398,3.025
					c0.024-0.075,0.072-0.224,0.167-0.287c-0.528,0.478-0.769,0.527-1.151,0.791c0.194,0.325-0.527,1.165-0.789,1.746
					c-0.864,0.366,0.07-0.679-0.362-0.724c0.24,0.179-0.86,1.28-0.477,1.243C7.25,16.64,7.395,16.653,6.938,16.68
					c0.242,0.406-0.383,0.495-0.575,1.085c-0.84,0.521-0.477-0.128-1.128,0.719C4.78,18.74,5.33,17.96,5.33,17.96 M4.069,42.562H4.064
					c-0.03-0.213-0.057-0.396-0.072-0.512C4.008,42.156,4.031,42.304,4.069,42.562 M4.309,44.665c-0.026-0.258-0.059-0.576-0.092-0.912
					c0.081-0.085,0.182-0.016,0.201,0.196C4.347,43.84,4.35,44.343,4.309,44.665 M5.621,40.018c0.074,0.328,0.035,0.443-0.013,0.497
					c-0.026-0.156-0.056-0.337-0.096-0.578L5.477,39.9C5.528,39.927,5.58,39.957,5.621,40.018"/>
				<path fill="#363535" d="M5.213,39.457c-0.011-0.047-0.025-0.073-0.033-0.136c-0.014,0.072-0.026,0.141-0.037,0.206l0.094,0.109
					C5.229,39.574,5.221,39.511,5.213,39.457"/>
				<path fill="#363535" d="M59.078,18.638l0.028,0.035c-0.021-0.033-0.036-0.065-0.04-0.093
					C59.078,18.611,59.072,18.618,59.078,18.638"/>
				<polygon fill="#363535" points="24.087,66.428 24.132,66.381 23.961,66.289 	"/>
				<path fill="#363535" d="M51.479,9.765c0-0.034-0.013-0.082-0.061-0.156C51.411,9.625,51.441,9.69,51.479,9.765"/>
				<path fill="#363535" d="M47.963,6.165l-0.437-0.567C47.705,5.851,47.846,6.027,47.963,6.165"/>
				<path fill="#363535" d="M44.442,4.091c-0.055,0.038-0.071,0.073-0.088,0.103l0.009,0.001L44.442,4.091z"/>
				<path fill="#363535" d="M89.031,46.615l0.114,0.098C89.432,46.923,89.247,46.77,89.031,46.615"/>
				<path fill="#363535" d="M75.655,34.105c0.17,0.103,0.339,0.207,0.505,0.328C75.944,34.189,75.766,34.006,75.655,34.105"/>
				<polygon fill="#363535" points="93.781,62.719 93.78,62.713 93.691,62.803 	"/>
				<path fill="#363535" d="M76.757,35.039c-0.194-0.268-0.394-0.451-0.597-0.605C76.335,34.633,76.538,34.875,76.757,35.039"/>
				<path fill="#363535" d="M27.791,2.118l-0.185-0.032c0.003,0.02-0.011,0.032-0.026,0.042L27.791,2.118z"/>
				<path fill="#363535" d="M27.58,2.127l-0.209,0.006C27.465,2.145,27.547,2.153,27.58,2.127"/>
				<path fill="#363535" d="M26.931,2.152l0.44-0.019C27.223,2.119,27.036,2.088,26.931,2.152"/>
				<path fill="#363535" d="M32.867,2.805l0.069-0.087C32.901,2.734,32.879,2.762,32.867,2.805"/>
				<path fill="#363535" d="M34.418,2.949c-0.367-0.062-0.902-0.302-1.426-0.302l-0.056,0.07C33.193,2.602,34.05,3.071,34.418,2.949"/>
				<path fill="#363535" d="M40.743,4.836l-1.288-0.219c0.217,0.124,0.498,0.294-0.092,0.253C40.963,5.352,39.049,4.608,40.743,4.836"
					/>
				<path fill="#363535" d="M44.746,5.43c-0.701-0.03-0.008,0.147-0.052,0.2C45.146,5.589,45.256,5.578,44.746,5.43"/>
				<path fill="#363535" d="M65.382,25.237l-0.219,0.12C65.569,25.714,65.231,25.296,65.382,25.237"/>
				<polygon fill="#363535" points="70.205,28.315 69.938,27.838 69.606,27.816 	"/>
				<polygon fill="#363535" points="71.335,31.852 71.145,31.708 71.843,32.285 	"/>
				<path fill="#363535" d="M88.132,65.109l0.321,0.094C88.676,64.906,88.496,64.617,88.132,65.109"/>
				<path fill="#363535" d="M73.359,80.303c-0.267,0.059-0.756,0.412-0.912,0.775C72.797,80.756,73.216,80.5,73.359,80.303"/>
				<polygon fill="#363535" points="29.729,68.734 30.1,68.965 29.474,68.455 	"/>
				<g>
					<path fill="#FFFFFF" d="M58.353,44.543c0.812,0.437,1.414,1.121,1.807,2.055c0.659,1.562,0.538,3.564-0.363,6.007
						c-0.425,1.098-1.141,2.285-2.148,3.561c2.464,3.16,3.432,4.789,2.905,4.893c0.015-0.039-0.027,0.26-0.127,0.893
						c-0.061,0.402-0.225,0.66-0.492,0.775c-0.644-0.387-2.146-1.785-4.507-4.195c-0.647,0.631-1.34,1.238-2.075,1.824
						c-2.124,1.66-4.049,2.053-5.776,1.176c-0.623-0.307-1.114-0.744-1.475-1.312c-0.34-0.461-0.457-0.84-0.349-1.133l0.088-0.191
						l0.146-0.168c0.152-0.162,0.43-0.361,0.834-0.602c0.068-0.061,0.526-0.076,1.372-0.043c0.781,0.016,1.399-0.18,1.851-0.584
						c0.206-0.186,0.636-0.436,1.293-0.752c0.591-0.309,1.065-0.66,1.427-1.059c-1.344-1.441-3.033-3.268-5.065-5.478
						c-0.489,0.365-0.96,0.75-1.412,1.157c-1.148,0.953-2.677,1.635-4.591,2.041c-2.072,0.449-3.55,0.303-4.437-0.436
						c-0.562-0.24-0.982-0.889-1.264-1.947c-0.263-1.174-0.006-2.667,0.77-4.478c0.789-1.823,1.873-3.413,3.251-4.773
						c-1.502-1.647-2.362-2.521-2.578-2.625c-0.126-0.554-0.157-0.96-0.091-1.217c0.03-0.077,0.216-0.367,0.556-0.87
						c0.242-0.144,0.574-0.242,0.994-0.299c0.291-0.062,0.458-0.151,0.504-0.266c0.632,0.374,1.801,1.414,3.509,3.124
						c-0.159,0.07,1.518-0.569,5.034-1.919l0.161-0.069l0.156,0.008c0.393-0.03,0.7,0.078,0.921,0.324
						c0.249,0.223,0.363,0.64,0.343,1.251c-0.005,0.104-0.004,0.203,0.004,0.294l-0.011,0.566l-0.485,0.287
						c-0.364,0.229-1.565,0.849-3.603,1.86c0.977,1.005,1.987,2.09,3.033,3.255c2.754-1.481,5.125-2.15,7.113-2.002
						C56.769,43.565,57.696,43.923,58.353,44.543z M40.122,49.214c0.167,0.765,0.765,0.921,1.794,0.468
						c0.575-0.269,1.69-0.998,3.346-2.187c-1.417-1.551-2.389-2.621-2.917-3.21c-1.36,1.023-2.06,1.788-2.1,2.293
						C40.151,48.295,40.11,49.175,40.122,49.214z M55.906,47.816c-0.185-0.205-0.567-0.343-1.15-0.413
						c-1.089-0.138-2.368,0.133-3.84,0.809c1.378,1.535,2.662,3.007,3.851,4.415c1.032-2.214,1.391-3.525,1.073-3.935L55.906,47.816z"
						/>
				</g>
			</g>
	</defs>

	<svg x="0px" y="0px" width="22%" viewBox="0 0 100 100" enable-background="new 0 0 100 100" xml:space="preserve" style="opacity: 0;">
			<use xlink:href="#rent-buy-tag" />
			<animate id="anim1" attributeType="CSS" attributeName="opacity" from="0" to="1" dur="0.25s" begin="0s; anim4.end" fill="freeze"/>
			<animate id="anim2" attributeType="CSS" attributeName="opacity" from="1" to="1" dur="0.25s" begin="anim1.end" fill="freeze"/>
			<animate id="anim3" attributeType="CSS" attributeName="opacity" from="1" to="0" dur="0.125s" begin="anim14.end" fill="freeze"/>
			<animate id="anim4" attributeType="CSS" attributeName="opacity" from="0" to="0" dur="0.25s" begin="anim15.end" fill="freeze"/>
		</svg>

	<svg x="26%" y="0px" width="22%" viewBox="0 0 100 100" enable-background="new 0 0 100 100" xml:space="preserve" style="opacity: 0;">
		<use xlink:href="#rent-buy-tag" />
		<animate id="anim5" attributeType="CSS" attributeName="opacity" from="0" to="1" dur="0.25s" begin="anim1.end" fill="freeze"/>
		<animate id="anim6" attributeType="CSS" attributeName="opacity" from="1" to="1" dur="0.25s" begin="anim5.end" fill="freeze"/>
		<animate id="anim7" attributeType="CSS" attributeName="opacity" from="1" to="0" dur="0.125s" begin="anim14.end" fill="freeze"/>
		<animate id="anim8" attributeType="CSS" attributeName="opacity" from="0" to="0" dur="0.25s" begin="anim15.end" fill="freeze"/>
	</svg>

	<svg x="52%" y="0px" width="22%" viewBox="0 0 100 100" enable-background="new 0 0 100 100" xml:space="preserve" style="opacity: 0;">
		<use xlink:href="#rent-buy-tag" />
		<animate id="anim9" attributeType="CSS" attributeName="opacity" from="0" to="1" dur="0.25s" begin="anim5.end" fill="freeze"/>
		<animate id="anim10" attributeType="CSS" attributeName="opacity" from="1" to="1" dur="0.25s" begin="anim9.end" fill="freeze"/>
		<animate id="anim11" attributeType="CSS" attributeName="opacity" from="1" to="0" dur="0.125s" begin="anim14.end" fill="freeze"/>
		<animate id="anim12" attributeType="CSS" attributeName="opacity" from="0" to="0" dur="0.25s" begin="anim15.end" fill="freeze"/>
	</svg>

	<svg x="78%" y="0px" width="22%" viewBox="0 0 100 100" enable-background="new 0 0 100 100" xml:space="preserve" style="opacity: 0;">
		<use xlink:href="#rent-buy-tag" />
		<animate id="anim13" attributeType="CSS" attributeName="opacity" from="0" to="1" dur="0.25s" begin="anim9.end" fill="freeze"/>
		<animate id="anim14" attributeType="CSS" attributeName="opacity" from="1" to="1" dur="0.125s" begin="anim13.end" fill="freeze"/>
		<animate id="anim15" attributeType="CSS" attributeName="opacity" from="1" to="0" dur="0.125s" begin="anim14.end" fill="freeze"/>
		<animate id="anim16" attributeType="CSS" attributeName="opacity" from="0" to="0" dur="0.25s" begin="anim15.end" fill="freeze"/>
	</svg>

</svg>