<svg xmlns="http://www.w3.org/2000/svg" xmlns:xlink="http://www.w3.org/1999/xlink" version="1.1" id="Layer_1" x="0px" y="0px" width="100%" height="100%" viewBox="0 0 41 41" enable-background="new 0 0 41 41" xml:space="preserve" xmlns:xml="http://www.w3.org/XML/1998/namespace"><g><path fill="#828282" d="M20.5,1.585c-10.49,0-18.999,8.509-18.999,18.999c0,10.492,8.509,18.998,18.999,18.998c10.492,0,18.998-8.506,18.998-18.998C39.498,10.094,30.992,1.585,20.5,1.585z M21.231,3.065c4.794,0.198,9.075,2.329,12.126,5.624c-3.271,2.425-7.662,3.7-12.126,3.824V3.065z M21.231,13.941c4.819-0.13,9.558-1.508,13.077-4.138c2.188,2.797,3.553,6.26,3.707,10.048H21.231V13.941z M19.768,3.065v9.448c-4.454-0.122-8.848-1.388-12.146-3.801C10.669,5.404,14.963,3.263,19.768,3.065z M6.673,9.828c3.546,2.619,8.287,3.989,13.095,4.113v5.91H2.983C3.137,16.079,4.499,12.623,6.673,9.828z M19.768,21.314v5.898c-4.81,0.125-9.557,1.496-13.103,4.117c-2.172-2.791-3.528-6.244-3.682-10.016H19.768z M7.613,32.445c3.304-2.414,7.694-3.684,12.154-3.805v9.461C14.96,37.908,10.661,35.76,7.613,32.445z M21.231,38.102v-9.461c4.468,0.127,8.856,1.4,12.136,3.822C30.316,35.77,26.031,37.908,21.231,38.102z M34.314,31.354c-3.521-2.629-8.262-4.014-13.083-4.145v-5.896h16.784C37.861,25.098,36.498,28.561,34.314,31.354z" /></g></svg>