<svg version="1.0" id="Layer_1" xmlns="http://www.w3.org/2000/svg" xmlns:xlink="http://www.w3.org/1999/xlink" x="0px" y="0px"
	 width="100%" height="100%" viewBox="0 0 100 100" enable-background="new 0 0 100 100" xml:space="preserve">
<g id="icon_252_3_">
	<path fill-rule="evenodd" clip-rule="evenodd" fill="#FFFFFF" d="M55.415,41.187h-13.6v3.4h6.799v23.799h-6.799v3.4h20.398v-3.4
		h-6.799V41.187z M50.407,33.868c2.588,0,4.676-2.096,4.676-4.676c0-2.582-2.088-4.678-4.676-4.678c-2.58,0-4.674,2.096-4.674,4.678
		C45.733,31.772,47.827,33.868,50.407,33.868z M50.003,3.786c-25.523,0-46.217,20.689-46.217,46.213
		c0,25.525,20.693,46.215,46.217,46.215c25.52,0,46.211-20.689,46.211-46.215C96.214,24.476,75.522,3.786,50.003,3.786z
		 M50.003,92.362c-23.398,0-42.361-18.965-42.361-42.363c0-23.396,18.963-42.361,42.361-42.361
		c23.395,0,42.359,18.965,42.359,42.361C92.362,73.397,73.397,92.362,50.003,92.362z"/>
</g>
</svg>