<svg version="1.0" id="Layer_1" xmlns="http://www.w3.org/2000/svg" xmlns:xlink="http://www.w3.org/1999/xlink" x="0px" y="0px"
	 width="100%" height="100%" viewBox="0 0 100 100" enable-background="new 0 0 100 100" xml:space="preserve">
<g>
	<rect x="30.521" y="32.026" fill="#CCCCCC" width="39.024" height="7.625"/>
	<polygon fill="#CCCCCC" points="35.004,13.491 43.28,13.491 43.28,1.488 55.697,1.488 55.697,13.491 63.15,13.491 49.491,28.807 	
		"/>
	<g>
		<path fill="#333333" d="M13.328,65.812c0-0.005-0.046-1.616-0.139-4.834s-0.102-5.153-0.028-5.807
			c1.738-0.126,3.053,0.22,3.948,1.035c0.69,0.63,1.109,1.592,1.258,2.885c0.046,1.653-0.396,3.178-1.327,4.572
			c-0.867,1.293-1.821,2.039-2.864,2.238C13.647,65.944,13.365,65.914,13.328,65.812z M17.248,60.725
			c0.352-1.719,0.153-2.977-0.598-3.774c-0.751-0.532-1.527-0.736-2.329-0.611c-0.093,4.865-0.074,7.678,0.056,8.438
			c0.75-0.417,1.353-0.917,1.807-1.501C16.638,62.668,16.993,61.818,17.248,60.725z"/>
		<path fill="#333333" d="M25.494,63.779c-0.132,0.392-0.329,0.753-0.591,1.084s-0.489,0.564-0.681,0.698
			c-0.192,0.135-0.522,0.271-0.99,0.41c-0.538,0.065-0.909,0.082-1.116,0.053c-0.206-0.03-0.368-0.077-0.486-0.14
			s-0.293-0.163-0.525-0.302c-0.936-1.117-1.469-2.333-1.598-3.649c-0.065-0.653-0.012-1.582,0.16-2.787
			c0.352-1.473,0.748-2.443,1.188-2.912c0.561-0.75,1.142-1.114,1.745-1.091c0.764-0.005,1.358,0.198,1.783,0.608
			c0.424,0.41,0.777,0.979,1.06,1.706c0.478,1.246,0.612,2.729,0.403,4.448C25.743,62.764,25.626,63.388,25.494,63.779z
			 M24.649,58.535c-0.148-0.463-0.297-0.831-0.445-1.104c-0.38-0.853-0.959-1.296-1.738-1.328c-0.004,0.005-0.03,0.012-0.076,0.021
			c-0.056,0.014-0.107,0.032-0.153,0.056c-0.176,0.083-0.343,0.231-0.5,0.444c-0.681,0.848-1.082,2.15-1.203,3.906
			c-0.13,1.089,0.035,2.11,0.494,3.064c0.278,0.741,0.771,1.205,1.48,1.391c0.755-0.037,1.319-0.407,1.692-1.108
			c0.373-0.702,0.583-1.778,0.629-3.229C24.858,59.703,24.797,58.999,24.649,58.535z"/>
		<path fill="#333333" d="M31.439,65.909c-0.834-1.746-1.286-2.683-1.355-2.808c-0.046-0.116-0.093-0.19-0.139-0.223l-1.432,2.843
			l-0.16,0.223l-0.758-0.021c-0.028-0.231-0.2-1.876-0.518-4.935c-0.317-3.058-0.5-4.987-0.546-5.789l1.244-0.056l0.612,8.694
			c0.806-1.649,1.223-2.511,1.251-2.585l0.028-0.035l-0.014,0.015c0.056-0.019,0.181-0.028,0.375-0.028
			c0.046,0,0.598,0.888,1.654,2.662l0.542-8.681l1.098-0.021c-0.051,0.895-0.193,2.859-0.428,5.895
			c-0.234,3.034-0.411,4.656-0.531,4.864L31.439,65.909z"/>
		<path fill="#333333" d="M40.127,64.93c0.004,0.356-0.017,0.655-0.063,0.896c-0.097,0.042-0.326,0.081-0.688,0.118
			c-0.871-1.941-2.115-5.034-3.732-9.278l-0.049,4.114l-0.194,5.066c-0.264,0.065-0.515,0.084-0.751,0.056
			c-0.106-0.834-0.192-2.708-0.257-5.622c-0.065-2.979-0.046-4.696,0.056-5.15c0.435,0.023,0.931,0.037,1.487,0.042
			c0.241,0.473,1.29,2.904,3.148,7.297c0.018-4.624-0.002-7.061-0.063-7.312h1.112L40.127,64.93z"/>
		<path fill="#333333" d="M46.09,65.868c-0.449-0.028-1.135-0.03-2.057-0.008c-1.353,0.023-2.032,0.035-2.037,0.035
			c-0.528-0.027-0.813-0.03-0.854-0.007c-0.023-3.818-0.01-7.399,0.042-10.745c0.348-0.005,0.713-0.007,1.098-0.007
			c0.019,6.302,0.019,9.528,0,9.682c0.797-0.056,2.087-0.076,3.871-0.062L46.09,65.868z"/>
		<path fill="#333333" d="M52.453,63.779c-0.132,0.392-0.329,0.753-0.591,1.084s-0.489,0.564-0.681,0.698
			c-0.193,0.135-0.523,0.271-0.991,0.41c-0.538,0.065-0.909,0.082-1.116,0.053c-0.206-0.03-0.368-0.077-0.486-0.14
			s-0.293-0.163-0.525-0.302c-0.936-1.117-1.469-2.333-1.598-3.649c-0.065-0.653-0.012-1.582,0.16-2.787
			c0.352-1.473,0.748-2.443,1.188-2.912c0.561-0.75,1.142-1.114,1.745-1.091c0.764-0.005,1.358,0.198,1.783,0.608
			c0.424,0.41,0.776,0.979,1.059,1.706c0.479,1.246,0.612,2.729,0.404,4.448C52.702,62.764,52.586,63.388,52.453,63.779z
			 M51.609,58.535c-0.148-0.463-0.297-0.831-0.445-1.104c-0.38-0.853-0.959-1.296-1.738-1.328c-0.004,0.005-0.03,0.012-0.076,0.021
			c-0.056,0.014-0.107,0.032-0.153,0.056c-0.176,0.083-0.343,0.231-0.5,0.444c-0.681,0.848-1.082,2.15-1.203,3.906
			c-0.13,1.089,0.035,2.11,0.494,3.064c0.278,0.741,0.771,1.205,1.48,1.391c0.755-0.037,1.319-0.407,1.692-1.108
			c0.373-0.702,0.583-1.778,0.629-3.229C51.817,59.703,51.757,58.999,51.609,58.535z"/>
		<path fill="#333333" d="M57.502,56.116l0.48,2.211l0.291,1.3l0.812,3.767l0.508,2.495l-1.008-0.014l-0.598-2.954l-2.426,0.098
			l-0.611,2.85l-0.861,0.007l0.34-2.071l1.801-8.667l1.084,0.132L57.502,56.116z M57.689,61.864l-0.938-4.573l-0.562,2.475
			L55.73,61.83L57.689,61.864z"/>
		<path fill="#333333" d="M60.846,65.812c0-0.005-0.047-1.616-0.139-4.834c-0.094-3.218-0.104-5.153-0.029-5.807
			c1.738-0.126,3.055,0.22,3.947,1.035c0.691,0.63,1.111,1.592,1.26,2.885c0.045,1.653-0.396,3.178-1.328,4.572
			c-0.867,1.293-1.82,2.039-2.863,2.238C61.164,65.944,60.883,65.914,60.846,65.812z M64.766,60.725
			c0.352-1.719,0.152-2.977-0.598-3.774c-0.752-0.532-1.527-0.736-2.328-0.611c-0.094,4.865-0.074,7.678,0.055,8.438
			c0.75-0.417,1.354-0.917,1.807-1.501C64.156,62.668,64.51,61.818,64.766,60.725z"/>
		<path fill="#333333" d="M75.67,56.089l-2.057,0.049l0.006,4.865l-0.041,4.893c-0.408,0.023-0.75,0.027-1.029,0.014
			c-0.031-0.704-0.062-2.325-0.09-4.865c-0.027-2.539-0.025-4.177,0.008-4.913h-0.438c-0.436,0.014-0.949,0.016-1.537,0.007
			l-0.035-0.994c0.441,0.014,1.055,0.019,1.842,0.014c0.789-0.004,1.922-0.007,3.398-0.007L75.67,56.089z"/>
		<path fill="#333333" d="M82.756,63.779c-0.133,0.392-0.33,0.753-0.592,1.084s-0.488,0.564-0.68,0.698
			c-0.193,0.135-0.523,0.271-0.99,0.41c-0.539,0.065-0.91,0.082-1.117,0.053c-0.205-0.03-0.367-0.077-0.486-0.14
			c-0.117-0.062-0.293-0.163-0.523-0.302c-0.938-1.117-1.469-2.333-1.6-3.649c-0.064-0.653-0.012-1.582,0.16-2.787
			c0.352-1.473,0.748-2.443,1.189-2.912c0.561-0.75,1.141-1.114,1.744-1.091c0.764-0.005,1.357,0.198,1.781,0.608
			s0.777,0.979,1.061,1.706c0.477,1.246,0.611,2.729,0.402,4.448C83.004,62.764,82.887,63.388,82.756,63.779z M81.91,58.535
			c-0.148-0.463-0.295-0.831-0.443-1.104c-0.381-0.853-0.959-1.296-1.738-1.328c-0.004,0.005-0.029,0.012-0.076,0.021
			c-0.057,0.014-0.107,0.032-0.152,0.056c-0.178,0.083-0.344,0.231-0.502,0.444c-0.68,0.848-1.082,2.15-1.201,3.906
			c-0.131,1.089,0.035,2.11,0.492,3.064c0.279,0.741,0.771,1.205,1.48,1.391c0.756-0.037,1.32-0.407,1.693-1.108
			c0.373-0.702,0.582-1.778,0.629-3.229C82.119,59.703,82.059,58.999,81.91,58.535z"/>
		<path fill="#333333" d="M15.396,78.382l0.062,3.761c-0.403,0.073-0.781,0.097-1.133,0.069c0.009-0.834,0.014-2.773,0.014-5.817
			c-0.056-3.1-0.058-4.749-0.007-4.948h1.042L15.396,78.382z"/>
		<path fill="#333333" d="M22.516,80.047c-0.132,0.392-0.329,0.753-0.591,1.084s-0.489,0.564-0.681,0.698
			c-0.192,0.135-0.522,0.271-0.99,0.41c-0.538,0.065-0.909,0.082-1.116,0.053c-0.206-0.03-0.368-0.077-0.486-0.14
			s-0.293-0.163-0.525-0.302c-0.936-1.117-1.469-2.333-1.598-3.649c-0.065-0.653-0.012-1.582,0.16-2.787
			c0.352-1.473,0.748-2.443,1.188-2.912c0.561-0.75,1.142-1.114,1.745-1.091c0.764-0.005,1.358,0.198,1.783,0.608
			c0.424,0.41,0.777,0.979,1.06,1.706c0.478,1.246,0.612,2.729,0.403,4.448C22.765,79.031,22.648,79.655,22.516,80.047z
			 M21.671,74.803c-0.148-0.463-0.297-0.831-0.445-1.104c-0.38-0.853-0.959-1.296-1.738-1.328c-0.004,0.005-0.03,0.012-0.076,0.021
			c-0.056,0.014-0.107,0.032-0.153,0.056c-0.176,0.083-0.343,0.231-0.5,0.444c-0.681,0.848-1.082,2.15-1.203,3.906
			c-0.13,1.089,0.035,2.11,0.494,3.064c0.278,0.741,0.771,1.205,1.48,1.391c0.755-0.037,1.319-0.407,1.692-1.108
			c0.373-0.702,0.583-1.778,0.629-3.229C21.88,75.971,21.819,75.267,21.671,74.803z"/>
		<path fill="#333333" d="M24.938,75.505c-0.408-0.398-0.641-0.722-0.699-0.97c-0.058-0.248-0.068-0.487-0.031-0.719
			c0.028-0.199,0.056-0.346,0.083-0.438c0.153-0.468,0.424-0.896,0.813-1.285c0.63-0.44,1.2-0.658,1.71-0.653
			c0.834-0.019,1.73,0.071,2.689,0.271c0,0.172-0.062,0.39-0.188,0.653c-0.051,0.042-0.648,0.035-1.793-0.021
			c-0.408,0.005-0.776,0.071-1.105,0.201c-0.348,0.135-0.637,0.368-0.869,0.702c-0.31,0.449-0.192,0.95,0.354,1.501
			c0.413,0.315,0.973,0.603,1.682,0.862c1.001,0.431,1.717,1.017,2.147,1.758c0.199,0.395,0.318,0.776,0.358,1.147
			c0.04,0.37,0.024,0.75-0.045,1.14c-0.13,0.778-0.406,1.396-0.827,1.855c-0.44,0.561-1.462,0.804-3.065,0.729
			c-0.672-0.027-1.293-0.083-1.863-0.167c0.037-0.444,0.072-0.743,0.104-0.896c0.301,0,0.6,0.005,0.896,0.015
			c0.76,0.074,1.499,0.016,2.217-0.174c0.718-0.19,1.175-0.825,1.369-1.904c0-0.464-0.113-0.867-0.34-1.21
			c-0.246-0.528-0.992-1.049-2.238-1.563C25.841,76.149,25.387,75.871,24.938,75.505z"/>
		<path fill="#333333" d="M39.352,74.33c-0.111,0.19-0.273,0.221-0.486,0.091c-0.176-0.158-0.366-0.269-0.57-0.334
			c-0.236-0.06-0.466-0.056-0.688,0.014c0.042,0.547,0.12,1.313,0.236,2.301c0.236-0.009,0.546-0.061,0.931-0.153l0.118,0.535
			l-0.021,0.008l-0.014,0.007c-0.57,0.157-0.864,0.243-0.883,0.257c0.199,1.479,0.327,2.356,0.382,2.634
			c0.32-0.097,0.556-0.259,0.709-0.486l0.312-0.361c0.028-0.032,0.056-0.076,0.083-0.132c0.046-0.098,0.116-0.155,0.208-0.174
			c0.028-0.009,0.07-0.014,0.125-0.014c0.074,0.097,0.142,0.193,0.202,0.288s0.098,0.159,0.111,0.191l0.014,0.027l-0.021,0.035
			c-0.371,0.667-0.917,1.104-1.64,1.313c0.027,0.278,0.06,0.525,0.097,0.743c0.074-0.009-0.243,0.019-0.952,0.084
			c0-0.051-0.021-0.275-0.062-0.674c-0.19,0.019-0.369,0.027-0.535,0.027c-0.57-0.005-1.017-0.12-1.341-0.348
			c-0.111-0.074-0.25-0.241-0.417-0.5c-0.259-0.403-0.361-0.793-0.306-1.168c0.088-0.611,0.588-1.119,1.501-1.522
			c-0.505-0.027-0.904-0.181-1.196-0.458v-0.007v-0.007L35.21,76.52c-0.371-0.352-0.5-0.771-0.389-1.258
			c0.093-0.408,0.327-0.797,0.702-1.168l0.021-0.014c0.311-0.176,0.7-0.343,1.168-0.5c-0.07-0.603-0.095-0.987-0.077-1.154
			c0.074-0.051,0.213-0.071,0.417-0.062c0.176,0.005,0.308,0.019,0.396,0.042c-0.014,0.264,0.012,0.579,0.077,0.945
			c0.121-0.028,0.285-0.047,0.494-0.056c0.185,0.014,0.389,0.067,0.611,0.159c0.343,0.14,0.609,0.309,0.799,0.508
			c0.13,0.106,0.195,0.16,0.195,0.16S39.533,74.191,39.352,74.33z M35.773,75.186c-0.083,0.255,0.002,0.521,0.257,0.799
			c0.389,0.176,0.72,0.292,0.994,0.348c-0.097-0.778-0.174-1.432-0.229-1.96C36.22,74.595,35.879,74.865,35.773,75.186z
			 M35.94,79.063c0.097,0.167,0.292,0.322,0.583,0.466c0.296,0.144,0.609,0.231,0.938,0.264c-0.033-0.26-0.081-0.63-0.146-1.112
			c-0.088-0.694-0.142-1.111-0.16-1.251c-0.742,0.417-1.168,0.795-1.279,1.133C35.826,78.734,35.847,78.901,35.94,79.063z"/>
		<path fill="#333333" d="M48.04,72.384l0.479,2.211l0.292,1.3l0.813,3.767l0.507,2.495l-1.008-0.014l-0.598-2.954l-2.426,0.098
			l-0.612,2.85l-0.862,0.007l0.341-2.071l1.8-8.667l1.084,0.132L48.04,72.384z M48.228,78.132l-0.938-4.573l-0.563,2.475
			l-0.458,2.064L48.228,78.132z"/>
		<path fill="#333333" d="M56.936,81.197c0.006,0.356-0.016,0.655-0.062,0.896c-0.096,0.042-0.326,0.081-0.688,0.118
			c-0.871-1.941-2.115-5.034-3.732-9.278l-0.049,4.114l-0.193,5.066c-0.265,0.065-0.516,0.084-0.752,0.056
			c-0.105-0.834-0.191-2.708-0.256-5.622c-0.065-2.979-0.047-4.696,0.055-5.15c0.436,0.023,0.932,0.037,1.488,0.042
			c0.24,0.473,1.289,2.904,3.148,7.297c0.018-4.624-0.004-7.061-0.062-7.312h1.111L56.936,81.197z"/>
		<path fill="#333333" d="M58.195,82.08c0-0.005-0.047-1.616-0.139-4.834c-0.094-3.218-0.104-5.153-0.029-5.807
			c1.738-0.126,3.055,0.22,3.947,1.035c0.691,0.63,1.111,1.592,1.26,2.885c0.045,1.653-0.396,3.178-1.328,4.572
			c-0.867,1.293-1.82,2.039-2.863,2.238C58.514,82.212,58.232,82.182,58.195,82.08z M62.115,76.992
			c0.352-1.719,0.152-2.977-0.598-3.774c-0.752-0.532-1.527-0.736-2.328-0.611c-0.094,4.865-0.074,7.678,0.055,8.438
			c0.75-0.417,1.354-0.917,1.807-1.501C61.506,78.936,61.859,78.086,62.115,76.992z"/>
		<path fill="#333333" d="M66.312,76.763c-0.02,0-0.129,0.014-0.334,0.042c-0.162,0.023-0.322,0.039-0.479,0.049
			c0,0.125-0.033,1.513-0.098,4.163l-0.049,1.008c-0.014,0.009-0.033,0.034-0.059,0.076s-0.129,0.066-0.307,0.073
			s-0.381-0.004-0.607-0.031c-0.057-2.22-0.088-4.551-0.094-6.992c-0.008-2.441,0.014-3.688,0.064-3.739l0.967,0.007l0.07,0.153
			l1.424-0.16c1.209-0.106,1.979,0.239,2.309,1.036c0.133,0.319,0.178,0.674,0.131,1.062c-0.041,0.371-0.166,0.761-0.375,1.168
			c-0.436,0.732-0.93,1.29-1.48,1.675l2.092,5.657l-0.959,0.167L66.312,76.763z M65.402,75.949c0.436,0.028,0.896-0.113,1.383-0.424
			c0.652-0.412,1.121-0.866,1.404-1.362c0.254-0.454,0.311-0.856,0.166-1.209c-0.068-0.213-0.359-0.35-0.869-0.41
			c-0.592-0.093-1.289-0.016-2.092,0.229L65.402,75.949z"/>
		<path fill="#333333" d="M76.547,80.047c-0.133,0.392-0.33,0.753-0.592,1.084s-0.488,0.564-0.68,0.698
			c-0.193,0.135-0.523,0.271-0.99,0.41c-0.539,0.065-0.91,0.082-1.117,0.053c-0.205-0.03-0.367-0.077-0.486-0.14
			c-0.117-0.062-0.293-0.163-0.523-0.302c-0.938-1.117-1.469-2.333-1.6-3.649c-0.064-0.653-0.012-1.582,0.16-2.787
			c0.352-1.473,0.748-2.443,1.189-2.912c0.561-0.75,1.141-1.114,1.744-1.091c0.764-0.005,1.357,0.198,1.781,0.608
			s0.777,0.979,1.061,1.706c0.477,1.246,0.611,2.729,0.402,4.448C76.795,79.031,76.678,79.655,76.547,80.047z M75.701,74.803
			c-0.148-0.463-0.295-0.831-0.443-1.104c-0.381-0.853-0.959-1.296-1.738-1.328c-0.004,0.005-0.029,0.012-0.076,0.021
			c-0.057,0.014-0.107,0.032-0.152,0.056c-0.178,0.083-0.344,0.231-0.502,0.444c-0.68,0.848-1.082,2.15-1.201,3.906
			c-0.131,1.089,0.035,2.11,0.492,3.064c0.279,0.741,0.771,1.205,1.48,1.391c0.756-0.037,1.32-0.407,1.693-1.108
			c0.373-0.702,0.582-1.778,0.629-3.229C75.91,75.971,75.85,75.267,75.701,74.803z"/>
		<path fill="#333333" d="M79.322,78.382l0.062,3.761c-0.402,0.073-0.779,0.097-1.133,0.069c0.01-0.834,0.016-2.773,0.016-5.817
			c-0.057-3.1-0.059-4.749-0.008-4.948h1.043L79.322,78.382z"/>
		<path fill="#333333" d="M80.637,82.08c0-0.005-0.047-1.616-0.139-4.834c-0.094-3.218-0.104-5.153-0.029-5.807
			c1.738-0.126,3.055,0.22,3.947,1.035c0.691,0.63,1.111,1.592,1.26,2.885c0.045,1.653-0.396,3.178-1.328,4.572
			c-0.867,1.293-1.82,2.039-2.863,2.238C80.955,82.212,80.674,82.182,80.637,82.08z M84.557,76.992
			c0.352-1.719,0.152-2.977-0.598-3.774c-0.752-0.532-1.527-0.736-2.328-0.611c-0.094,4.865-0.074,7.678,0.055,8.438
			c0.75-0.417,1.354-0.917,1.807-1.501C83.947,78.936,84.301,78.086,84.557,76.992z"/>
		<path fill="#333333" d="M30.168,98.347c0-0.005-0.046-1.616-0.139-4.834s-0.102-5.153-0.028-5.807
			c1.738-0.126,3.053,0.22,3.948,1.035c0.69,0.63,1.109,1.592,1.258,2.885c0.046,1.653-0.396,3.178-1.327,4.572
			c-0.867,1.293-1.821,2.039-2.864,2.238C30.487,98.479,30.205,98.448,30.168,98.347z M34.088,93.259
			c0.352-1.719,0.153-2.977-0.598-3.774c-0.751-0.532-1.527-0.736-2.329-0.611c-0.093,4.865-0.074,7.678,0.056,8.438
			c0.75-0.417,1.353-0.917,1.807-1.501C33.479,95.202,33.833,94.353,34.088,93.259z"/>
		<path fill="#333333" d="M40.711,88.574c-1.423,0.01-2.502,0.003-3.239-0.021c-0.065,1.057-0.065,2.578,0,4.566h2.634
			c0.074,0.236,0.102,0.514,0.083,0.834c-0.056,0.014-0.431,0.041-1.126,0.083c-0.765,0.051-1.26,0.086-1.487,0.104
			c-0.005,0.375-0.009,0.854-0.014,1.435c-0.005,0.582,0.002,1.153,0.021,1.714c0.913-0.014,2.032-0.005,3.357,0.027
			c0.037,0.121,0.06,0.285,0.07,0.494c0.009,0.208,0.016,0.414,0.021,0.618c-1.997-0.005-3.517-0.023-4.559-0.056
			c-0.107-0.787-0.169-2.699-0.188-5.733c-0.023-3.072,0.007-4.731,0.09-4.977c2.562,0.009,4.054,0.027,4.476,0.056
			C40.887,88.03,40.841,88.315,40.711,88.574z"/>
		<path fill="#333333" d="M49.01,87.657c-1.413,5.291-2.134,8.009-2.162,8.152s-0.319,1.015-0.875,2.613l-0.848,0.007
			c-0.171-0.162-0.695-1.776-1.57-4.845c-0.862-3.007-1.379-4.969-1.55-5.887c0.246-0.041,0.584-0.051,1.015-0.027l2.377,8.431
			l0.729-2.544l0.375-1.349c0.806-3.049,1.214-4.565,1.223-4.552H49.01z"/>
		<path fill="#333333" d="M51.123,94.648l0.062,3.761c-0.404,0.073-0.781,0.097-1.133,0.069c0.009-0.834,0.014-2.773,0.014-5.817
			c-0.056-3.1-0.058-4.749-0.007-4.948h1.042L51.123,94.648z"/>
		<path fill="#333333" d="M56.904,88.88c-0.43-0.134-0.879-0.233-1.348-0.299c-0.867-0.056-1.496,0.479-1.891,1.605
			c-0.162,0.528-0.309,1.24-0.438,2.134c-0.01,2.118,0.254,3.693,0.791,4.727c0.361,0.348,0.746,0.47,1.154,0.368
			c0.395-0.074,0.787-0.304,1.182-0.688c0.371-0.394,0.578-0.569,0.619-0.528c0.051,0.056,0.188,0.216,0.41,0.48
			c0,0.157-0.146,0.402-0.438,0.736c-0.182,0.245-0.447,0.484-0.801,0.716c-0.389,0.255-0.834,0.354-1.334,0.299
			c-0.551-0.009-1.047-0.248-1.486-0.716c-0.441-0.542-0.744-1.364-0.911-2.468c-0.144-0.94-0.22-1.568-0.229-1.883
			c-0.019-1.965,0.341-3.473,1.078-4.524c0.281-0.403,0.604-0.709,0.965-0.918c0.311-0.171,0.605-0.252,0.883-0.243
			c0.941,0.051,1.611,0.255,2.01,0.611C57.092,88.507,57.021,88.704,56.904,88.88z"/>
		<path fill="#333333" d="M62.818,88.574c-1.422,0.01-2.502,0.003-3.238-0.021c-0.064,1.057-0.064,2.578,0,4.566h2.635
			c0.074,0.236,0.102,0.514,0.082,0.834c-0.055,0.014-0.43,0.041-1.125,0.083c-0.764,0.051-1.26,0.086-1.486,0.104
			c-0.006,0.375-0.01,0.854-0.016,1.435c-0.004,0.582,0.004,1.153,0.021,1.714c0.912-0.014,2.031-0.005,3.357,0.027
			c0.037,0.121,0.061,0.285,0.068,0.494c0.01,0.208,0.018,0.414,0.021,0.618c-1.996-0.005-3.518-0.023-4.559-0.056
			c-0.107-0.787-0.17-2.699-0.188-5.733c-0.023-3.072,0.006-4.731,0.09-4.977c2.562,0.009,4.055,0.027,4.477,0.056
			C62.996,88.03,62.949,88.315,62.818,88.574z"/>
		<path fill="#333333" d="M64.896,91.771c-0.406-0.398-0.641-0.722-0.697-0.97c-0.059-0.248-0.068-0.487-0.031-0.719
			c0.027-0.199,0.055-0.346,0.084-0.438c0.152-0.468,0.424-0.896,0.812-1.285c0.629-0.44,1.199-0.658,1.709-0.653
			c0.834-0.019,1.73,0.071,2.689,0.271c0,0.172-0.062,0.39-0.188,0.653c-0.051,0.042-0.648,0.035-1.793-0.021
			c-0.408,0.005-0.775,0.071-1.105,0.201c-0.348,0.135-0.637,0.368-0.867,0.702c-0.311,0.449-0.193,0.95,0.354,1.501
			c0.412,0.315,0.973,0.603,1.682,0.862c1.002,0.431,1.717,1.017,2.148,1.758c0.199,0.395,0.318,0.776,0.357,1.147
			c0.039,0.37,0.025,0.75-0.045,1.14c-0.131,0.778-0.406,1.396-0.828,1.855c-0.439,0.561-1.461,0.804-3.064,0.729
			c-0.672-0.027-1.293-0.083-1.861-0.167c0.035-0.444,0.07-0.743,0.104-0.896c0.301,0,0.6,0.005,0.896,0.015
			c0.76,0.074,1.498,0.016,2.217-0.174c0.719-0.19,1.174-0.825,1.369-1.904c0-0.464-0.113-0.867-0.34-1.21
			c-0.246-0.528-0.992-1.049-2.238-1.563C65.801,92.416,65.348,92.138,64.896,91.771z"/>
	</g>
</g>
</svg>