<svg version="1.0" id="Layer_1" xmlns="http://www.w3.org/2000/svg" xmlns:xlink="http://www.w3.org/1999/xlink" x="0px" y="0px"
	 width="100%" height="100%" viewBox="0 0 100 100" enable-background="new 0 0 100 100" xml:space="preserve">
<g>
	<g>
		<polygon fill="#EE272B" points="81.137,88.74 49.996,57.604 18.863,88.74 18.863,6.072 81.137,6.072 		"/>
		<radialGradient id="SVGID_1_" cx="50" cy="47.4062" r="36.5923" gradientUnits="userSpaceOnUse">
			<stop  offset="0" style="stop-color:#010101;stop-opacity:0.25"/>
			<stop  offset="1" style="stop-color:#010101;stop-opacity:0.35"/>
		</radialGradient>
		<polygon fill="url(#SVGID_1_)" points="81.137,88.74 49.996,57.604 18.863,88.74 18.863,6.072 81.137,6.072 		"/>
	</g>
	<g>
		<rect x="32.4" y="29.031" fill-rule="evenodd" clip-rule="evenodd" fill="#FFFFFF" width="35.199" height="4.396"/>
	</g>
	<g>
		<g>
			<g>
				<path fill-rule="evenodd" clip-rule="evenodd" fill="#700F10" d="M80.803,1.9H19.193c-2.42,0-4.395,1.973-4.395,4.406v92.4
					L50,63.504l35.199,35.203v-92.4C85.199,3.873,83.236,1.9,80.803,1.9z M80.803,88.082L50,57.285L19.193,88.082V6.307h61.609
					V88.082z"/>
			</g>
		</g>
	</g>
</g>
</svg>