<svg version="1.0" id="Layer_1" xmlns="http://www.w3.org/2000/svg" xmlns:xlink="http://www.w3.org/1999/xlink" x="0px" y="0px" width="100%" height="100%" viewBox="0 0 30 30" enable-background="new 0 0 30 30" xml:space="preserve">
<g id="icon_183_13_">
	<path fill-rule="evenodd" clip-rule="evenodd" fill="#FFFFFF" d="M18.9,0.3c-6,0-10.8,4.8-10.8,10.8c0,2.7,1,5.2,2.7,7.1L0.3,28.7
		l1,1l10.4-10.4c1.9,1.7,4.4,2.7,7.1,2.7c6,0,10.8-4.8,10.8-10.8C29.7,5.1,24.8,0.3,18.9,0.3z M18.9,20.6c-5.2,0-9.5-4.2-9.5-9.5
		c0-5.2,4.2-9.5,9.5-9.5c5.2,0,9.5,4.2,9.5,9.5C28.3,16.3,24.1,20.6,18.9,20.6z"/>
</g>
</svg>