<svg version="1.0" id="Layer_1" xmlns="http://www.w3.org/2000/svg" xmlns:xlink="http://www.w3.org/1999/xlink" x="0px" y="0px"
	 width="100%" height="100%" viewBox="0 0 100 100" enable-background="new 0 0 100 100" xml:space="preserve">
<g>
	<g>
		<g>
			<path fill="#333333" d="M28.215,71.951c-0.057,0.778-0.046,1.716,0.031,2.813c0.278-0.021,0.5-0.013,0.665,0.023
				c0.113,0.355,0.128,0.659,0.046,0.912c-0.057,0.011-0.304,0.049-0.742,0.116c-0.016,0.86-0.057,1.878-0.124,3.054
				c-0.067,1.175-0.116,2.141-0.146,2.898c-0.387,0.031-0.693-0.003-0.92-0.101c-0.072-0.953-0.104-2.022-0.093-3.208
				c0.01-1.186,0.018-1.992,0.023-2.42c-0.376,0.031-1.175,0.069-2.396,0.116c-1.051,0.041-1.837,0.093-2.358,0.154
				c0.062-0.721,0.108-2.012,0.139-3.873l0.271-2.636c0.078,0.005,0.425,0.013,1.044,0.023c-0.057,1.845-0.088,3.561-0.093,5.148
				c0.696-0.016,1.345-0.044,1.948-0.085c0.603-0.041,1.08-0.077,1.43-0.108c0.01,0.088,0.036-1.572,0.078-4.979
				c0.572,0.016,0.979,0.031,1.221,0.046C28.274,70.528,28.267,71.229,28.215,71.951z"/>
			<path fill="#333333" d="M36.154,75.955c0.474,0.814,0.626,1.824,0.456,3.03c-0.139,0.49-0.296,0.954-0.471,1.392
				c-0.083,0.134-0.207,0.302-0.371,0.503c-0.335,0.407-0.763,0.695-1.284,0.865c-0.927,0.072-1.536,0.067-1.824-0.015
				c-0.304-0.042-0.69-0.205-1.16-0.491c-0.469-0.286-0.881-1.068-1.237-2.347c-0.067-0.428-0.018-1.038,0.147-1.832
				c0.474-1.036,0.966-1.752,1.477-2.148c-0.521-0.552-0.817-1.129-0.889-1.732c-0.031-0.294,0.013-0.719,0.131-1.275
				c0.273-0.763,0.611-1.293,1.013-1.593c0.392-0.329,0.866-0.499,1.422-0.51c0.686,0.088,1.204,0.275,1.554,0.564
				c0.778,0.794,1.018,1.801,0.719,3.022c-0.108,0.402-0.25,0.727-0.425,0.974c-0.072,0.124-0.208,0.258-0.41,0.402
				c0.314,0.149,0.577,0.361,0.789,0.634c0.062,0.083,0.131,0.188,0.209,0.317C36.077,75.845,36.128,75.925,36.154,75.955z
				 M34.446,80.57c0.649-0.489,1.005-1.252,1.067-2.288c0.031-0.525-0.023-0.882-0.162-1.067c0.015-0.01-0.016-0.085-0.093-0.224
				c-0.093-0.175-0.217-0.34-0.371-0.495c-0.449-0.469-1.021-0.714-1.716-0.734c-0.005,0.006-0.028,0.011-0.07,0.016
				c-0.046,0.011-0.092,0.021-0.139,0.031c-0.139,0.046-0.278,0.129-0.417,0.247c-0.438,0.387-0.748,0.896-0.928,1.53
				c-0.155,0.701-0.181,1.229-0.078,1.585c0.093,0.32,0.204,0.577,0.333,0.773l0.395,0.402c0.149,0.18,0.464,0.291,0.943,0.332
				C33.663,80.72,34.075,80.684,34.446,80.57z M33.016,74.525c0.443-0.011,0.74-0.021,0.889-0.031
				c0.149-0.01,0.263-0.031,0.34-0.062c0.505-0.613,0.773-1.15,0.804-1.612c0.031-0.461-0.008-0.767-0.116-0.916l-0.07-0.162
				c-0.067-0.113-0.157-0.225-0.271-0.332c-0.34-0.32-0.773-0.487-1.299-0.503c-0.098,0-0.297,0.085-0.599,0.255
				c-0.301,0.17-0.519,0.596-0.653,1.275c-0.051,0.413-0.043,0.72,0.023,0.92c0.067,0.201,0.134,0.385,0.201,0.549
				C32.338,74.077,32.588,74.283,33.016,74.525z"/>
			<path fill="#333333" d="M47.596,69.833c0.124,0.216,0.157,2.046,0.101,5.488c-0.062,3.376-0.155,5.527-0.278,6.455
				c-0.268,0.031-0.619,0.005-1.051-0.077l0.046-4.546c-0.263-0.025-0.789-0.054-1.577-0.085c-0.799,0.031-1.327,0.06-1.585,0.085
				l-0.154,4.53c-0.304,0.093-0.59,0.124-0.858,0.093c-0.124-0.928-0.214-3.079-0.271-6.455c-0.062-3.442-0.028-5.272,0.101-5.488
				h1.26l-0.193,6.146l1.701,0.046l1.693-0.046l0.031-6.146H47.596z"/>
			<path fill="#333333" d="M55.632,79.423c-0.147,0.436-0.366,0.837-0.657,1.205c-0.291,0.369-0.544,0.628-0.758,0.777
				s-0.581,0.302-1.102,0.456c-0.598,0.072-1.012,0.092-1.24,0.058c-0.229-0.033-0.41-0.085-0.541-0.154
				c-0.132-0.069-0.326-0.182-0.584-0.336c-1.041-1.242-1.634-2.595-1.778-4.059c-0.072-0.727-0.013-1.76,0.178-3.101
				c0.392-1.639,0.832-2.718,1.322-3.238c0.624-0.835,1.271-1.24,1.941-1.214c0.851-0.005,1.511,0.22,1.982,0.676
				s0.864,1.089,1.179,1.898c0.531,1.387,0.681,3.035,0.448,4.947C55.908,78.293,55.778,78.987,55.632,79.423z M54.692,73.59
				c-0.165-0.516-0.33-0.925-0.495-1.229c-0.422-0.948-1.066-1.44-1.933-1.477c-0.005,0.006-0.033,0.013-0.085,0.023
				c-0.062,0.016-0.118,0.036-0.17,0.062c-0.195,0.093-0.381,0.258-0.557,0.495c-0.758,0.943-1.204,2.392-1.337,4.345
				c-0.145,1.211,0.039,2.348,0.549,3.409c0.309,0.824,0.859,1.34,1.647,1.546c0.84-0.041,1.468-0.452,1.882-1.233
				c0.415-0.78,0.648-1.978,0.7-3.591C54.924,74.889,54.857,74.105,54.692,73.59z"/>
			<path fill="#333333" d="M63.072,69.825c0.062,0.994,0.072,2.645,0.031,4.951c-0.042,2.307-0.064,3.696-0.069,4.171
				c-0.243,1.974-1.206,2.914-2.892,2.821c-1.304-0.016-2.139-0.724-2.505-2.126c-0.124-0.299-0.182-1.949-0.174-4.951
				s0.024-4.616,0.05-4.844c0.222-0.03,0.583-0.022,1.083,0.023c0.005,0.979,0.009,2.544,0.012,4.692
				c0.002,2.149,0.024,3.477,0.065,3.981c-0.005,0.722,0.101,1.219,0.316,1.492c0.506,0.355,0.91,0.523,1.214,0.502
				c0.505,0.021,0.907-0.136,1.206-0.471c0.335-0.382,0.508-1.33,0.519-2.846c-0.016-2.813-0.016-4.687,0-5.62
				c0.015-0.933,0.027-1.499,0.038-1.7C62.399,69.825,62.769,69.799,63.072,69.825z"/>
			<path fill="#333333" d="M66.513,75.77c-0.021,0-0.145,0.016-0.371,0.047c-0.181,0.025-0.358,0.044-0.534,0.054
				c0,0.14-0.036,1.683-0.107,4.631l-0.055,1.121c-0.016,0.01-0.037,0.038-0.065,0.085c-0.028,0.046-0.142,0.073-0.34,0.081
				c-0.199,0.008-0.425-0.004-0.677-0.035c-0.062-2.469-0.097-5.061-0.104-7.776s0.017-4.103,0.073-4.159l1.075,0.008l0.077,0.17
				l1.585-0.178c1.345-0.119,2.2,0.266,2.566,1.151c0.149,0.355,0.198,0.75,0.146,1.183c-0.046,0.413-0.186,0.846-0.417,1.299
				c-0.485,0.814-1.034,1.436-1.647,1.863l2.327,6.293l-1.066,0.186L66.513,75.77z M65.5,74.865
				c0.484,0.031,0.997-0.126,1.538-0.472c0.727-0.459,1.247-0.964,1.562-1.515c0.283-0.506,0.345-0.954,0.186-1.346
				c-0.077-0.237-0.399-0.389-0.967-0.456c-0.659-0.103-1.435-0.018-2.326,0.255L65.5,74.865z"/>
			<path fill="#333333" d="M72.001,74.37c-0.454-0.442-0.713-0.803-0.777-1.078s-0.076-0.542-0.035-0.8
				c0.031-0.222,0.062-0.384,0.093-0.487c0.171-0.521,0.472-0.997,0.905-1.43c0.7-0.49,1.334-0.732,1.901-0.728
				c0.928-0.021,1.925,0.08,2.992,0.302c0,0.19-0.07,0.433-0.209,0.727c-0.057,0.047-0.722,0.039-1.995-0.022
				c-0.453,0.005-0.863,0.079-1.229,0.224c-0.387,0.149-0.709,0.41-0.967,0.781c-0.345,0.5-0.214,1.057,0.395,1.67
				c0.459,0.35,1.082,0.67,1.871,0.958c1.113,0.479,1.909,1.132,2.389,1.956c0.222,0.438,0.354,0.863,0.397,1.275
				c0.044,0.412,0.027,0.835-0.05,1.268c-0.145,0.866-0.451,1.554-0.92,2.064c-0.489,0.623-1.626,0.894-3.409,0.812
				c-0.747-0.031-1.438-0.093-2.072-0.186c0.042-0.495,0.08-0.827,0.116-0.997c0.335,0,0.668,0.005,0.997,0.016
				c0.846,0.082,1.668,0.018,2.467-0.193s1.306-0.917,1.522-2.118c0-0.516-0.126-0.964-0.379-1.346
				c-0.273-0.587-1.103-1.167-2.489-1.739C73.006,75.087,72.5,74.777,72.001,74.37z"/>
			<path fill="#333333" d="M29.827,87.831l-2.288,0.055l0.008,5.411L27.5,98.739c-0.454,0.025-0.835,0.031-1.144,0.016
				c-0.036-0.783-0.07-2.587-0.101-5.411s-0.028-4.646,0.008-5.466h-0.487c-0.484,0.016-1.054,0.018-1.708,0.008l-0.039-1.105
				c0.49,0.016,1.172,0.021,2.049,0.016c0.876-0.006,2.136-0.008,3.78-0.008L29.827,87.831z"/>
			<path fill="#333333" d="M37.708,96.386c-0.146,0.436-0.366,0.837-0.657,1.205c-0.292,0.369-0.544,0.628-0.758,0.777
				s-0.581,0.302-1.102,0.456c-0.598,0.072-1.012,0.092-1.241,0.058c-0.229-0.033-0.41-0.085-0.541-0.154
				c-0.132-0.069-0.326-0.182-0.584-0.336c-1.041-1.242-1.634-2.595-1.778-4.059c-0.072-0.727-0.013-1.76,0.178-3.101
				c0.392-1.639,0.832-2.718,1.322-3.238c0.624-0.835,1.271-1.24,1.94-1.214C35.339,86.775,36,87,36.472,87.456
				s0.865,1.089,1.179,1.898c0.531,1.387,0.68,3.035,0.448,4.947C37.986,95.256,37.855,95.95,37.708,96.386z M36.77,90.553
				c-0.165-0.516-0.33-0.925-0.495-1.229c-0.422-0.948-1.066-1.44-1.933-1.477c-0.005,0.006-0.033,0.013-0.085,0.023
				c-0.062,0.016-0.119,0.036-0.17,0.062c-0.196,0.093-0.381,0.258-0.557,0.495c-0.758,0.943-1.204,2.392-1.337,4.345
				c-0.145,1.211,0.039,2.348,0.549,3.409c0.309,0.824,0.858,1.34,1.646,1.546c0.84-0.041,1.468-0.452,1.883-1.233
				c0.415-0.78,0.648-1.978,0.699-3.591C37.001,91.852,36.934,91.068,36.77,90.553z"/>
			<path fill="#333333" d="M48.504,87.762c-1.248,0.047-2.481,0.064-3.703,0.055l0.016,5.063l3.015-0.016
				c0.088,0.263,0.121,0.574,0.101,0.936c-0.067,0.01-0.487,0.041-1.26,0.093c-0.86,0.051-1.43,0.082-1.708,0.093L44.925,98.7
				c-0.505,0.057-0.948,0.07-1.33,0.039c-0.01-0.907-0.036-2.986-0.077-6.238c-0.042-3.252-0.036-5.162,0.016-5.729
				c1.015,0.031,2.68,0.023,4.994-0.023C48.589,87.012,48.582,87.35,48.504,87.762z"/>
			<path fill="#333333" d="M50.971,94.534l0.069,4.182c-0.448,0.083-0.868,0.108-1.26,0.077c0.01-0.928,0.015-3.084,0.015-6.47
				c-0.062-3.448-0.064-5.283-0.008-5.505h1.16L50.971,94.534z"/>
			<path fill="#333333" d="M58.608,97.665c0.005,0.396-0.019,0.729-0.07,0.997c-0.107,0.046-0.363,0.09-0.765,0.131
				c-0.969-2.159-2.353-5.599-4.151-10.32l-0.054,4.577l-0.217,5.636c-0.294,0.071-0.572,0.093-0.835,0.062
				c-0.118-0.928-0.214-3.013-0.286-6.254c-0.072-3.313-0.052-5.224,0.062-5.729c0.484,0.025,1.035,0.041,1.654,0.046
				c0.268,0.526,1.435,3.231,3.501,8.117c0.021-5.143-0.002-7.854-0.069-8.132h1.237L58.608,97.665z"/>
			<path fill="#333333" d="M61.159,94.534l0.07,4.182c-0.449,0.083-0.869,0.108-1.261,0.077c0.011-0.928,0.016-3.084,0.016-6.47
				c-0.062-3.448-0.064-5.283-0.008-5.505h1.16L61.159,94.534z"/>
			<path fill="#333333" d="M63.185,91.333c-0.454-0.442-0.713-0.803-0.777-1.078s-0.076-0.542-0.035-0.8
				c0.031-0.222,0.062-0.384,0.093-0.487c0.171-0.521,0.472-0.997,0.905-1.43c0.7-0.49,1.334-0.732,1.901-0.728
				c0.928-0.021,1.925,0.08,2.992,0.302c0,0.19-0.07,0.433-0.209,0.727c-0.057,0.047-0.722,0.039-1.995-0.022
				c-0.453,0.005-0.863,0.079-1.229,0.224c-0.387,0.149-0.709,0.41-0.967,0.781c-0.345,0.5-0.214,1.057,0.395,1.67
				c0.459,0.35,1.082,0.67,1.871,0.958c1.113,0.479,1.909,1.132,2.389,1.956c0.222,0.438,0.354,0.863,0.397,1.275
				c0.044,0.412,0.027,0.835-0.05,1.268c-0.145,0.866-0.451,1.554-0.92,2.064c-0.489,0.623-1.626,0.894-3.409,0.812
				c-0.747-0.031-1.438-0.093-2.072-0.186c0.042-0.495,0.08-0.827,0.116-0.997c0.335,0,0.668,0.005,0.997,0.016
				c0.846,0.082,1.668,0.018,2.467-0.193s1.306-0.917,1.522-2.118c0-0.516-0.126-0.964-0.379-1.346
				c-0.273-0.587-1.103-1.167-2.489-1.739C64.189,92.05,63.684,91.74,63.185,91.333z"/>
			<path fill="#333333" d="M75.785,86.796c0.124,0.216,0.157,2.046,0.101,5.488c-0.062,3.376-0.154,5.527-0.278,6.455
				c-0.268,0.031-0.618,0.005-1.052-0.077l0.047-4.546c-0.263-0.025-0.789-0.054-1.577-0.085c-0.799,0.031-1.327,0.06-1.585,0.085
				l-0.154,4.53c-0.305,0.093-0.59,0.124-0.858,0.093c-0.123-0.928-0.214-3.079-0.271-6.455c-0.062-3.442-0.028-5.272,0.101-5.488
				h1.26l-0.193,6.146l1.701,0.046l1.693-0.046l0.03-6.146H75.785z"/>
		</g>
	</g>
	<g>
		<path fill="none" stroke="#CCCCCC" stroke-miterlimit="10" d="M78.496,30.054c0,15.774-12.79,28.552-28.565,28.552
			c-15.776,0-28.564-12.777-28.564-28.552c0-15.777,12.788-28.566,28.564-28.566C65.706,1.488,78.496,14.276,78.496,30.054z"/>
		<g>
			<line fill="none" stroke="#CCCCCC" stroke-miterlimit="10" x1="48.869" y1="1.488" x2="48.869" y2="59.151"/>
			<line fill="none" stroke="#CCCCCC" stroke-miterlimit="10" x1="21.163" y1="30.325" x2="78.837" y2="30.325"/>
			<line fill="none" stroke="#CCCCCC" stroke-miterlimit="10" x1="69.912" y1="9.319" x2="28.685" y2="49.648"/>
			<line fill="none" stroke="#CCCCCC" stroke-miterlimit="10" x1="29.957" y1="9.711" x2="70.286" y2="50.939"/>
			<line fill="none" stroke="#CCCCCC" stroke-miterlimit="10" x1="60.351" y1="3.336" x2="37.728" y2="56.378"/>
			<line fill="none" stroke="#CCCCCC" stroke-miterlimit="10" x1="23.596" y1="19.013" x2="76.646" y2="41.637"/>
			<line fill="none" stroke="#CCCCCC" stroke-miterlimit="10" x1="39.465" y1="4.002" x2="60.949" y2="57.515"/>
			<line fill="none" stroke="#CCCCCC" stroke-miterlimit="10" x1="23.359" y1="41.068" x2="76.883" y2="19.582"/>
		</g>
		<path fill="#FFFFFF" d="M72.331,30.091c0,12.547-10.17,22.709-22.716,22.709c-12.548,0-22.72-10.162-22.72-22.709
			c0-12.547,10.172-22.718,22.72-22.718C62.161,7.373,72.331,17.543,72.331,30.091z"/>
		<g>
			<g>
				<path fill="#999999" d="M46.562,22.389c-0.101,1.39-0.083,3.064,0.056,5.024c0.497-0.037,0.893-0.022,1.187,0.042
					c0.202,0.635,0.23,1.178,0.083,1.629c-0.102,0.019-0.543,0.088-1.326,0.207c-0.027,1.537-0.101,3.354-0.221,5.453
					c-0.12,2.098-0.207,3.824-0.262,5.177c-0.69,0.055-1.238-0.005-1.643-0.18c-0.129-1.703-0.185-3.612-0.166-5.729
					c0.019-2.116,0.032-3.557,0.042-4.321c-0.672,0.055-2.098,0.125-4.279,0.207c-1.877,0.074-3.281,0.166-4.21,0.276
					c0.11-1.289,0.193-3.594,0.249-6.916l0.483-4.708c0.138,0.009,0.759,0.023,1.864,0.042c-0.101,3.294-0.157,6.359-0.166,9.194
					c1.242-0.028,2.402-0.078,3.479-0.152c1.077-0.074,1.928-0.138,2.554-0.193c0.018,0.157,0.064-2.807,0.138-8.89
					c1.021,0.028,1.749,0.055,2.181,0.083C46.667,19.849,46.654,21.1,46.562,22.389z"/>
				<path fill="#999999" d="M60.739,29.539c0.847,1.455,1.118,3.258,0.814,5.412c-0.249,0.875-0.529,1.703-0.842,2.485
					c-0.147,0.239-0.368,0.538-0.663,0.897c-0.599,0.728-1.362,1.243-2.292,1.546c-1.656,0.129-2.742,0.12-3.258-0.028
					c-0.543-0.073-1.233-0.366-2.07-0.876c-0.838-0.511-1.574-1.907-2.208-4.189c-0.12-0.764-0.033-1.854,0.262-3.272
					c0.847-1.85,1.726-3.129,2.637-3.837c-0.93-0.985-1.459-2.016-1.588-3.092c-0.056-0.525,0.022-1.284,0.235-2.278
					c0.487-1.362,1.09-2.31,1.808-2.844c0.699-0.589,1.547-0.893,2.54-0.911c1.225,0.157,2.149,0.493,2.775,1.008
					c1.389,1.417,1.817,3.216,1.283,5.397c-0.193,0.718-0.446,1.298-0.759,1.739c-0.129,0.221-0.373,0.46-0.731,0.718
					c0.561,0.267,1.03,0.645,1.407,1.132c0.111,0.147,0.235,0.336,0.373,0.566S60.693,29.484,60.739,29.539z M57.688,37.781
					c1.159-0.875,1.794-2.236,1.905-4.086c0.055-0.938-0.042-1.574-0.29-1.905c0.027-0.019-0.028-0.152-0.166-0.4
					c-0.166-0.313-0.387-0.607-0.662-0.884c-0.801-0.837-1.822-1.274-3.065-1.311c-0.009,0.009-0.051,0.019-0.124,0.027
					c-0.083,0.019-0.165,0.037-0.248,0.055c-0.249,0.083-0.497,0.23-0.746,0.442c-0.782,0.69-1.334,1.601-1.656,2.733
					c-0.276,1.251-0.322,2.195-0.138,2.83c0.165,0.571,0.363,1.031,0.594,1.381l0.703,0.718c0.268,0.322,0.829,0.52,1.685,0.593
					C56.289,38.047,57.025,37.983,57.688,37.781z M55.135,26.985c0.791-0.018,1.32-0.037,1.587-0.055
					c0.268-0.019,0.47-0.055,0.607-0.11c0.902-1.095,1.381-2.055,1.436-2.878c0.056-0.823-0.014-1.369-0.207-1.636l-0.124-0.29
					c-0.119-0.202-0.28-0.4-0.483-0.593c-0.607-0.571-1.38-0.87-2.318-0.897c-0.176,0-0.532,0.152-1.07,0.456
					s-0.928,1.063-1.166,2.278c-0.093,0.736-0.079,1.284,0.041,1.643c0.119,0.359,0.239,0.686,0.358,0.98
					C53.924,26.185,54.37,26.553,55.135,26.985z"/>
			</g>
		</g>
	</g>
</g>
</svg>