<svg version="1.0" id="Layer_1" xmlns="http://www.w3.org/2000/svg" xmlns:xlink="http://www.w3.org/1999/xlink" x="0px" y="0px"
	 width="100%" height="100%" viewBox="0 0 16 16" enable-background="new 0 0 16 16" xml:space="preserve">
<g>
	<defs>
		<rect id="SVGID_1_" width="16" height="16"/>
	</defs>
	<clipPath id="SVGID_2_">
		<use xlink:href="#SVGID_1_"  overflow="visible"/>
	</clipPath>
	<path clip-path="url(#SVGID_2_)" fill="#2D6999" d="M16.003,8c0,4.418-3.581,8-8,8c-4.418,0-8-3.582-8-8s3.582-8,8-8
		C12.422,0,16.003,3.582,16.003,8"/>
</g>
<g>
	<defs>
		<path id="SVGID_3_" d="M1.003,8c0,3.858,3.141,7,7,7c3.859,0,7-3.142,7-7c0-3.86-3.142-7-7-7C4.144,1,1.003,4.14,1.003,8"/>
	</defs>
	<clipPath id="SVGID_4_">
		<use xlink:href="#SVGID_3_"  overflow="visible"/>
	</clipPath>
</g>
<circle opacity="0.27" fill="#FFFFFF" cx="8" cy="8.001" r="6.999"/>
<g>
	<path fill="#F5F5F5" d="M5.551,5.029C5.527,4.963,5.535,4.905,5.573,4.854C5.816,4.446,6.147,4.12,6.567,3.875
		c0.419-0.245,0.881-0.367,1.384-0.367c0.375,0,0.727,0.068,1.055,0.205C9.334,3.85,9.62,4.035,9.865,4.269S10.302,4.78,10.44,5.1
		c0.139,0.32,0.208,0.667,0.208,1.042v0.428c0,0.358-0.059,0.682-0.176,0.971s-0.268,0.539-0.451,0.748
		C9.839,8.497,9.636,8.664,9.415,8.79C9.193,8.916,8.972,9,8.75,9.042C8.609,9.076,8.521,9.136,8.488,9.221
		C8.454,9.307,8.437,9.4,8.437,9.503v0.352c0,0.124-0.039,0.228-0.118,0.311S8.141,10.29,8.021,10.29H7.427
		c-0.115,0-0.207-0.04-0.274-0.119C7.084,10.093,7.05,9.997,7.05,9.887V8.249c0-0.124,0.035-0.206,0.105-0.246
		s0.152-0.061,0.246-0.061h0.332c0.516,0,0.901-0.128,1.157-0.384s0.384-0.582,0.384-0.979V6.15c0-0.401-0.132-0.73-0.394-0.989
		C8.619,4.903,8.292,4.774,7.899,4.774c-0.251,0-0.477,0.061-0.677,0.182C7.021,5.078,6.864,5.239,6.749,5.44
		C6.698,5.538,6.631,5.595,6.548,5.612S6.383,5.617,6.302,5.574l-0.64-0.395C5.611,5.145,5.574,5.095,5.551,5.029z M7.062,12.1
		v-0.697c0-0.148,0.044-0.251,0.131-0.307s0.188-0.083,0.304-0.083h0.537c0.123,0,0.222,0.039,0.294,0.118s0.108,0.178,0.108,0.297
		v0.602c0,0.123-0.046,0.227-0.138,0.31c-0.091,0.083-0.196,0.125-0.316,0.125H7.427c-0.098,0-0.184-0.037-0.256-0.112
		C7.099,12.277,7.062,12.193,7.062,12.1z"/>
</g>
</svg>