<svg xmlns="http://www.w3.org/2000/svg" xmlns:xlink="http://www.w3.org/1999/xlink" version="1.1" id="Layer_1" x="0px" y="0px" width="100%" height="100%" viewBox="0 0 41 41" enable-background="new 0 0 41 41" xml:space="preserve" xmlns:xml="http://www.w3.org/XML/1998/namespace"><g><path fill="#828282" d="M20.5,29.504c1.545-0.027,1.414-0.691,3.066-0.664c2.533,0.041,3.161-1.002,3.194-2.645c0.034-1.947-2.322-3.215-2.562-3.787s-1.837-8.852-1.837-8.852s-0.231-0.634-1.861-0.634c-1.628,0-1.856,0.634-1.856,0.634s-1.603,8.284-1.837,8.852c-0.243,0.572-2.599,1.84-2.562,3.787c0.029,1.643,0.656,2.686,3.193,2.645C19.084,28.812,18.959,29.479,20.5,29.504z M39.248,3.263c-2.565-0.514-5.088-1.468-7.703-1.449c-1.496,0.01-2.997,0.264-4.484,0.508c-1.668,0.273-3.277,0.88-4.942,1.11c-0.537,0.075-1.08,0.098-1.622,0.098c-0.54,0-1.084-0.027-1.615-0.098c-1.668-0.23-3.276-0.837-4.944-1.11c-1.484-0.244-2.988-0.498-4.484-0.508c-2.616-0.02-5.14,0.935-7.706,1.449c0,0.873-0.147,1.991,0.233,2.603C2.375,6.5,3.039,7.078,3.212,7.933c0.412,2.032,0.992,4.029,1.737,5.934c0.363,0.931,1.045,1.576,1.807,2.021c1.836,1.074,4.007,1.232,6.022,0.894c2.866-0.48,4.426-2.984,5.613-5.85c0.44-1.159,0.491-2.508,1.079-3.571c0.217-0.397,0.618-0.439,1.029-0.417c0.414-0.024,0.815,0.019,1.032,0.417c0.587,1.062,0.635,2.406,1.08,3.571c1.187,2.862,2.743,5.367,5.611,5.85c2.011,0.339,4.186,0.18,6.021-0.894c0.763-0.445,1.446-1.098,1.808-2.021c0.748-1.905,1.328-3.902,1.735-5.934c0.173-0.859,0.839-1.438,1.233-2.067C39.405,5.253,39.248,4.135,39.248,3.263z M16.71,11.416c-1.426,3.435-3.986,4.155-5.879,4.155c-0.735,0-1.505-0.111-2.29-0.328c-1.399-0.387-2.446-1.542-2.939-3.244C4.944,9.725,4.672,7.9,4.748,6.255c0.1-2.13,2.047-2.563,4.204-2.841c1.005-0.136,1.816-0.198,2.541-0.201h0.006c0.976,0,1.75,0.084,2.462,0.262c2.087,0.514,3.274,1.224,3.732,2.236C18.204,6.847,17.92,8.501,16.71,11.416z M35.4,12.002c-0.496,1.702-1.539,2.855-2.939,3.242c-0.784,0.218-1.555,0.328-2.293,0.328c-1.894,0-4.447-0.72-5.875-4.154c-1.212-2.914-1.496-4.57-0.986-5.701c0.458-1.013,1.643-1.725,3.733-2.238c0.714-0.178,1.487-0.26,2.462-0.26h0.005c0.727,0.005,1.536,0.069,2.539,0.199c2.159,0.282,4.1,0.709,4.201,2.842C36.33,7.901,36.063,9.728,35.4,12.002z M29.285,33.787c-5.023-2.795-8.08-0.877-8.79-0.35c-0.707-0.533-3.76-2.445-8.784,0.35c-4.996,2.779-7.492-2.006-7.785-2.715c0.465,1.125,5.898,13.061,13.24,6.131c1.16-1.102,2.313-1.398,3.329-1.393c1.015-0.006,2.168,0.297,3.329,1.393c7.344,6.93,12.778-5.006,13.242-6.131C36.775,31.779,34.276,36.564,29.285,33.787z" /></g></svg>