<svg version="1.0" id="Layer_1" xmlns="http://www.w3.org/2000/svg" xmlns:xlink="http://www.w3.org/1999/xlink" x="0px" y="0px"
	 width="100%" height="100%" viewBox="0 0 100 100" enable-background="new 0 0 100 100" xml:space="preserve">
<g>
	<g>
		<path fill="#EE272B" d="M97.6,23.4c0-4.639-3.762-8.4-8.4-8.4H10.8c-4.64,0-8.4,3.762-8.4,8.4v53.2C2.4,81.239,6.161,85,10.8,85
			h78.399c4.639,0,8.4-3.761,8.4-8.399V23.4z"/>
		<linearGradient id="SVGID_1_" gradientUnits="userSpaceOnUse" x1="49.9995" y1="15" x2="49.9995" y2="85.0005">
			<stop  offset="0" style="stop-color:#010101;stop-opacity:0.45"/>
			<stop  offset="0.9368" style="stop-color:#010101;stop-opacity:0.25"/>
		</linearGradient>
		<path fill="url(#SVGID_1_)" d="M97.6,23.4c0-4.639-3.762-8.4-8.4-8.4H10.8c-4.64,0-8.4,3.762-8.4,8.4v53.2
			C2.4,81.239,6.161,85,10.8,85h78.399c4.639,0,8.4-3.761,8.4-8.399V23.4z"/>
	</g>
	<g>
		<polygon fill="#676767" points="37.4,33.906 37.4,63.981 68.182,48.942 		"/>
		<polygon fill="#FFFFFF" points="37.4,33.906 37.4,63.981 68.182,48.942 		"/>
	</g>
</g>
</svg>