<svg version="1.0" id="Layer_1" xmlns="http://www.w3.org/2000/svg" xmlns:xlink="http://www.w3.org/1999/xlink" x="0px" y="0px"
	 width="100%" height="100%" viewBox="0 0 100 100" enable-background="new 0 0 100 100" xml:space="preserve">
<g>
	<g>
		<path fill-rule="evenodd" clip-rule="evenodd" fill="#252525" d="M15.574,3.986V94.35l34.422-34.422L84.418,94.35V3.986
			C84.418,1.611,15.574,1.611,15.574,3.986z"/>
		<polygon fill-rule="evenodd" clip-rule="evenodd" fill="#252525" points="80.055,85.338 49.418,54.713 18.793,85.338 
			18.793,4.018 80.055,4.018 		"/>
	</g>
	<g id="icon_277_4_">
		<path fill-rule="evenodd" clip-rule="evenodd" fill="#7C7C7C" d="M47.809,50.002h4.383V34.689H67.5v-4.379H52.191V14.998h-4.383
			v15.312H32.5v4.379h15.309V50.002z M80.633,1.869H19.371c-2.418,0-4.375,1.961-4.375,4.379v91.883l35.004-35l35.004,35V6.248
			C85.004,3.83,83.047,1.869,80.633,1.869z M80.633,87.568L50,56.939L19.371,87.568V6.248h61.262V87.568z"/>
	</g>
</g>
</svg>