<svg version="1.0" id="Layer_1" xmlns="http://www.w3.org/2000/svg" xmlns:xlink="http://www.w3.org/1999/xlink" x="0px" y="0px"
	 width="100%" height="100%" viewBox="0 0 100 100" enable-background="new 0 0 100 100" xml:space="preserve">
<g id="_x35_ov42k.tif_1_">
	<g>
		<g>
			<path fill="#B7B6B6" d="M46.117,1.464c2.207,0,4.42,0,6.633,0c0.36,0.133,0.719,0.321,1.096,0.383
				C66.923,4.03,76.48,13.721,77.92,26.861c0.587,5.303,0.242,10.715,0.329,16.08c0.015,0.83,0.085,1.651,0.133,2.675
				c1.774,0,3.237,0,4.786,0c0.055,0.915,0.125,1.611,0.133,2.315c0,16.096,0.008,32.209-0.008,48.305
				c0,0.626-0.147,1.235-0.226,1.854c-22.426,0-44.85,0-67.267,0c-0.078-0.54-0.219-1.087-0.219-1.619
				c-0.015-16.261-0.015-32.521,0-48.774c0-0.673,0.133-1.353,0.219-2.096c1.737-0.079,3.278-0.157,5.092-0.235
				c0-1.017,0-1.861,0-2.706c0.024-4.505-0.094-9.01,0.079-13.5c0.352-9.245,4.388-16.613,11.748-22.19
				C36.7,3.943,41.331,2.52,46.117,1.464z M70.177,45.366c0-5.576,0.227-10.934-0.046-16.269
				C69.614,18.82,61.69,10.701,51.499,9.677c-9.895-0.994-19.812,5.428-21.666,15.15c-1.251,6.632-0.861,13.578-1.213,20.539
				C42.77,45.366,56.309,45.366,70.177,45.366z"/>
		</g>
	</g>
</g>
</svg>